<?xml version="1.0" encoding="UTF-8"?><svg id="Layer_2" xmlns="http://www.w3.org/2000/svg" viewBox="0 0 2560.03 418.28"><defs><style>.cls-1{fill:#b08024;}</style></defs><g id="Layer_1-2"><path class="cls-1" d="M1337.56,102.31c16.12-9.11,40.85-14.04,41.22-41.84,.41-30.85-36.9-21.88-29.69,4.1,5.3,19.08-2.35,24.89-12.81,36.11-.35,.38-.38,.95-.06,1.36,.32,.41,.89,.51,1.33,.26Z"/><path class="cls-1" d="M1222.46,102.31c.45,.26,1.02,.14,1.33-.26,.79-1-.46-1.79-2.58-4.04-25.16-26.5-.64-34.63-12.86-50.71-8.18-10.75-27.4-8.81-27.1,13.17,.37,27.82,25.15,32.76,41.21,41.84h0Z"/><path class="cls-1" d="M1384.66,71.09c19.56-11.04,47.46-16.18,47.89-48.53,.47-35.63-42.54-25.24-34.22,4.73,6.19,22.27-2.72,29.07-14.95,42.17-.35,.38-.38,.95-.06,1.36,.31,.4,.88,.52,1.33,.27h0Z"/><path class="cls-1" d="M1175.36,71.09c.45,.25,1.02,.13,1.33-.27,.79-1-.4-1.75-3-4.47-29.48-31.04-.76-40.29-14.98-59.01-9.42-12.38-31.58-10.24-31.24,15.22,.43,32.34,28.31,37.49,47.89,48.53Z"/><path class="cls-1" d="M2448.66,232.14c-64.21,.27-145.8-3.78-232.63-11.36l-.34-.24-.14,.2c-6.24-.55-12.5-1.11-18.78-1.69,52.31-3.39,198.38-8.56,201.34-58.4,1.74-29.46-29.56-29.83-37.68-14.57-6.09,11.44,2.22,27.35,17.59,20.98,13.02-5.4,6.78-19.43-.87-20.02-5.05-.37-11.48,4.17-8.97,5.48,.5,.26,1.12,.04,1.4-.44,.44-.75,4.21-3.36,7.71-2.92,5.16,.65,10.86,11.43-.08,15.97-13.83,5.74-19.95-8.66-14.95-18.06,7.11-13.35,35.36-13.69,33.74,13.47-2.86,48.21-150.77,53.29-201.34,56.57-13.26,.86-8.08,1.05-27.12-.86,8.76-18.86,5.39-41.86-9.17-55.61-38.41-36.27-93.8,22.68-119.5,40.41-29.26-4.05-55.43-8.15-77.13-12.07-12.53-39.09,25.61-58.72,47.16-43.38,15.28,10.87,16.89,37.97-8.87,39.93-20.76,1.58-21.29-20.48-12.58-25.74,5.35-3.23,13.22-1.9,14.25-1.07,.45,.36,1.11,.29,1.47-.16,2.12-2.62-9.88-4.74-16.8-.56-10.46,6.31-9.39,31.36,13.82,29.62,27.43-2.08,26.99-31.57,9.93-43.71-22.83-16.24-62.75,4.04-50.7,44.66-53.69-9.82-43.57-10.13-109.3-31.31,8.03-61.45-78.54-134.82-136.26-61.59l1.45,1.48c72.36-54.86,114.77,6.25,120.08,55.43-82.99-25.98-159.75-43.52-229.77-52.52-1.68-17.74-10.18-33.03-25.37-45.57-33.15-27.36-89.75-4.89-89.54,38.54-60.32,.9-123.17,10.06-177.42,35.21-5.41-17.61-17.33-31.21-33.31-40.57-15.67,9.18-27.81,22.68-33.31,40.57-54.26-25.15-117.13-34.3-177.42-35.21,.11-22.14-16.44-43.86-43.06-49.22-38.5-7.75-68.74,23.33-71.85,56.24-70.01,9-146.76,26.54-229.75,52.52,5.35-49.52,47.91-110.14,120.08-55.43l1.45-1.48c-57.3-72.7-144.43-1-136.26,61.59-65.92,21.24-55.57,21.48-109.31,31.31,17.07-57.54-64.59-67.77-62.53-19.09,.83,19.68,37.33,25.88,41.18,6.19,4.44-22.64-18.7-21.44-22.25-18.58-1.07,.87,.23,2.5,1.31,1.63,1.61-1.3,23.03-4.58,18.89,16.54-3.34,17.04-36.31,11.51-37.04-5.88-1.92-45.97,75.74-35.39,58.12,19.6-21.7,3.92-47.87,8.02-77.12,12.07-13.78-9.51-26.46-20.59-34.71-27.21-72.16-57.85-113.37,.64-93.96,42.41-24.73,2.48-225.26-1.73-228.47-55.71-2.15-36.26,46.92-22.94,33.2,1.53-4.8,8.57-23.05,3.05-20.41-6.31,3.27-11.57,13.01-4.76,13.64-3.68,.7,1.19,2.42,.26,1.89-.89-1.14-2.51-13.65-9.77-17.54,3.99-3.36,11.89,18.3,18.49,24.24,7.9,15.61-27.81-39.47-42.26-37.11-2.43,2.96,50.01,149.62,55.05,201.34,58.4-6.27,.58-12.52,1.14-18.75,1.68l-.13-.19-.33,.23c-86.86,7.58-168.46,11.63-232.68,11.36-.58,0-1.05,.46-1.05,1.04-.01,3,112.75,.15,230.3-10l-26.47,18.51c-3.01-3.59-14.94-3.51-15.94-3.05-36.76,17.11-78.32,29.96-115.88,15.84-3.54-1.34-1.37,31.36,52.33,21.17-11.47,7.38-27.8,11.72-41.4,18.54-6.66,3.34-29.56,29.39-28.6,31.12,.41,.75-.14,.42,10.45,.37,27.01-.13,27.03,.31,49.94-16.78,7.47-5.57,15.15-11.3,23.21-15-33.82,34.91-20.73,46.45-15.26,55.99,.49,.83,1.74,.63,1.93-.32,6.13-30.78,31.8-52.74,56.63-73.99,.99-.85,22.09-18.85,22.42-20.12,1.45-5.5,2.1-9.29,1.19-11.94l29.61-20.7c16.07-1.41,32.32-2.93,48.67-4.58,19.28,37.12,93.74,38.54,135.65,35.67-45.72,11.01-85.56,23.32-105.6,43.41-19.33-2.87-33.66,7.17-32.17,28.06-1.62,.32-3.71,.44-5.42,.33,3.93-10.27-4.42-21.17-14.59-21.17-13.53,0-14.52,16.51-36.21,16.51-7.07,0-11.83-1.65-20.69-1.97,10.44,23.14,26.11,18.77,43.96,18.02,8.27,2.96,3.08,12.18-2.77,12.23-8.81-2.49-16.48-.15-22.22,6.16-14.99,16.45-4.08,28.05-10.19,46.77-1.01,3.08-1.05,3.44-1.73,6.45,10.31-5.09,16.42-5.19,31.47-5.6,38.29-2.95,19.52-40.75,32.66-40.75,6.32,0,4.3,8.68,3.69,12.42-2.51,15.29-1.58,24.67,19.55,37.51,1.03-14.71-1.77-35.98,4.63-39.44,12.68-7.99,16.43-34.68-11.21-33.68,.1-1.56,.26-3.5,.91-5.07,18.58,1.93,27.18-17.8,21.91-35.42,41.19-41.1,169.63-49.69,252.09-81.21,16.36-6.25,32.19-12.16,47.52-17.75,9.32,15.32,21.97,27.39,36.9,36.34-15.16,12.73-27.56,25.27-37.42,37.77-3.45-2.98-9.84-.77-16.46,1.59-3.38,1.22-48.29,54.74-104.48,53.55-3.75-.31,4.2,14.41,21.58,14.41,9.63,0,21.32-3.95,34.8-11.77-19.92,25.57-35.31,18.63-49.91,68.97-.11,.39,0,.8,.31,1.07,.64,.57,30.93-9.8,35.85-14.84,12.03-12.34,20.34-30.61,32.63-42.48-20.34,44.12-4.19,50.7,4.14,57.89,.72,.63,1.86,.02,1.72-.94-7.82-55.1,52.57-106.2,41.17-125.8,9.94-12.66,22.52-25.38,37.97-38.3,38.3,21.98,103.92,30.03,194.34-14.34-28.14,35.86-41.63,81.46-38.96,82.16,.54,.15,1.13-.18,1.28-.75,8.59-32.9,23.07-60.57,41.58-83.35,.14-.07,.73-.36,1.57-.79,.64-1.02,1.3-1.95,2.53-3.34l1.23-.75c.12-.38,.17-.53,.29-.86,6.2-6.23,18.37-14.75,35.17-23.69,39.66,22.01,100.21,15.59,111.84,11.62,26.08-8.79,59.14-21.09,100.47-21.29h0c1.43,.06,2.84,.14,4.26,.23-17.56,1.36-59.45,15.35-73.22,47.28-12.74,15.72-30.93,29.17-44.16,32.75-11.58-14.57-28.6-17.69-42.11-1.59-1.42-.92-2.97-2.26-4.12-3.54,14.28-6.63,11.38-32.04-10.5-29.57-21.31-.64-26.3-14.61-36.21-24.95-8.35,23.13,4.13,30.28,19.02,43.55,3.88,7.88-6.28,10.88-10.5,6.85-11.54-19.88-36.05-8.62-42.91-.1-10.84,14.02-14.3,13.31-22.94,18.95,29.79,9.58,32.49,45.24,69.79,12.19,4.42-3.28,8.21-2.21,9.4,.43,1.95,4.31-3.07,7.4-6.88,10.24-12.51,9.28-18.28,16.67-12.07,40.54,10.48-9.38,22.36-25.24,29.68-25.24,.15,0,2.81,.52,4.79,.52,14.6,0,30.33-15.51,11.71-32.37,1.15-1.05,2.62-2.33,4.18-3.01,12.11,14.46,32.34,6.07,40.85-11.07,12.44-3.57,28.33-14.84,40.87-28.87-10.84,34.52,9.44,75.9,45.51,75.9,19.32,0,38.11-11.91,43.63-31.02,7.8-26.98-16.19-58.76-46.84-38.2-25.94,17.4-5.99,44.76,10.09,42.72,10.65-1.35,20.9-13.13,17.28-13.95-.56-.13-1.12,.23-1.25,.79-.42,1.86-7.59,9.98-16.29,11.09-14.1,1.8-32.59-22.86-8.66-38.91,29.27-19.63,50.83,11.11,43.66,35.88-7.24,25.04-38.17,36.43-60.25,25.18-24.93-12.7-34.25-47.55-22.97-74.1,.31-.39,.55-.6,.48-1.12,11.88-26.35,39.34-36.75,60.35-43.59,12.28-2.85,26.16-2.76,41.86,1.6,7.94,21.25,16.42,29.3,29.62,46.53,13.23-17.27,21.68-25.25,29.62-46.53,47.98-13.31,90.67,16.37,102.22,41.98-.07,.52,.17,.74,.49,1.14,18.15,42.74-16.67,93.34-59.9,74.59-46.35-20.1-20.29-88.82,20.34-61.57,23.97,16.07,5.29,40.69-8.66,38.91-8.7-1.11-15.88-9.23-16.29-11.09-.13-.56-.69-.92-1.25-.79-3.63,.83,6.64,12.6,17.28,13.95,16.1,2.04,36.02-25.33,10.09-42.72-30.66-20.56-54.63,11.22-46.84,38.2,5.53,19.11,24.32,31.02,43.63,31.02,36.1,0,56.33-41.44,45.52-75.89,12.54,14.02,28.42,25.29,40.86,28.86,8.43,16.99,28.68,25.61,40.85,11.07,1.56,.67,3.03,1.95,4.18,3.01-20.47,18.53,.62,35.12,15.4,31.99,7.03-1.95,19.83,15.3,30.78,25.09,8.17-31.41-5.87-34.58-17.65-44.92-3.38-3.88-1.32-8.33,2.8-8.33,9.58,0,22.2,29.67,48.59,7.74,11.17-10.26,15.64-14.4,26.49-17.89-8.68-5.67-12.11-4.95-22.94-18.95-6.72-8.36-31.29-19.92-42.91,.1-4.21,4.01-14.39,1.05-10.5-6.85,14.67-13.08,27.42-20.27,19.02-43.55-12.37,12.9-14.63,24.79-39.05,24.79-19.36,0-21.24,23.43-7.66,29.74-1.15,1.28-2.7,2.61-4.12,3.54-13.57-16.16-30.61-12.89-42.11,1.59-13.23-3.58-31.41-17.02-44.15-32.74-11.37-26.39-46.17-45.2-73.23-47.29,1.41-.09,2.83-.17,4.25-.23h0c69.44,.34,79.47,25.32,139.99,25.32,24.26,0,51.2-3.93,72.33-15.66,16.8,8.94,28.98,17.46,35.18,23.7,.1,.27,.2,.58,.29,.86l1.23,.75c1.24,1.39,1.89,2.32,2.53,3.34,.82,.42,1.48,.74,1.55,.78,18.51,22.79,32.99,50.46,41.58,83.36,.15,.57,.73,.89,1.28,.75,2.42-.63-9.88-45.11-38.96-82.17,90.39,44.35,156.01,36.35,194.35,14.35,15.44,12.92,28.02,25.64,37.96,38.3-1.44,2.48-1.91,6.28-2.27,10.82-.1,1.3,13.92,25.42,14.5,26.42,16.4,28.27,33.35,57.49,28.94,88.56-.13,.95,.98,1.57,1.72,.94,8.33-7.19,24.48-13.76,4.14-57.89,6.38,6.16,11.72,14.11,16.93,21.84,15.98,23.75,16.27,23.36,41.57,32.37,6.55,2.34,11.05,4.68,10.29,2.04-14.59-50.31-30.05-43.48-49.91-68.97,47.77,27.69,60.11-2.95,56.39-2.64-56.08,1.2-101.25-52.38-104.48-53.55-8.5-3.03-13.44-4.2-16.45-1.59-9.86-12.49-22.26-25.04-37.41-37.77,14.87-8.91,27.55-20.96,36.91-36.34,67.08,24.46,62.15,26.08,156.79,47.39,60.52,13.62,117.7,26.51,142.81,51.57-5.26,17.59,3.31,37.35,21.91,35.42,.65,1.57,.81,3.51,.91,5.07-27.76-.99-23.82,25.74-11.21,33.68,6.4,3.46,3.59,24.62,4.63,39.44l1.46-.89c26.28-16.04,18.25-29.81,17.14-43.64,.38-7.02,8.76-7.76,10.19,1.12,3.71,49.58,31.79,26.61,56.62,38.86l1.96,.97c-.68-2.99-.72-3.33-1.74-6.45-6.28-19.24,5.03-30.07-10.19-46.77-5.74-6.3-13.4-8.65-22.22-6.16-5.85-.06-11.03-9.27-2.77-12.23,17.89,.74,33.53,5.12,43.96-18.02-8.85,.32-13.63,1.97-20.69,1.97-21.67,0-22.71-16.51-36.21-16.51-10.13,0-18.54,10.86-14.59,21.17-1.71,.11-3.8,0-5.42-.33,1.53-21.35-13.45-30.84-32.17-28.06-20.04-20.09-59.88-32.4-105.6-43.41,41.74,2.85,116.34,1.5,135.65-35.67,16.37,1.64,32.64,3.17,48.73,4.58l29.56,20.67c-7.4,21.35,69.26,50.93,80.24,106.07,.19,.95,1.45,1.15,1.93,.32,5.47-9.53,18.55-21.08-15.26-55.99,8.06,3.7,15.74,9.43,23.21,15,22.95,17.12,23.08,16.65,49.94,16.78,10.59,.05,10.04,.38,10.45-.37,.97-1.75-21.96-27.8-28.59-31.12-13.6-6.82-29.92-11.16-41.4-18.54,53.35,10.13,56.14-22.61,52.33-21.17-37.53,14.11-79.06,1.3-115.88-15.84-1-.46-12.9-.53-15.92,3.03l-26.43-18.48c119.1,10.29,230.26,12.91,230.25,10,0-.57-.45-1.04-1.05-1.04h.03Zm-291.71-69.98c14.08,13.29,17.19,35.68,8.39,53.86-40.48-4.08-82.93-9.01-123.41-14.56,23.48-16.52,78.27-74.01,115.02-39.31h0Zm-120.64,40.64c-15.82,10.57-32.81,18.59-46.19,15.22-13.03-3.29-22.82-14.03-27.58-26.78,20.94,3.77,45.94,7.69,73.77,11.57h0Zm-244.24,28.07c-37.16-29.87-89.49-60.86-159.63-94.76,54.07,13.47,117.92,32.94,194.71,60.68-7.56,13.97-19.55,25.49-35.08,34.09h0Zm-1.99,1.08c-46.1,24.29-126.96,23.73-193.9-16.39-.68-.79-1.37-1.57-2.06-2.34-3.57-8.42-13.1-18.29-26.75-28.13,16.18-12.27,30.08-36.98,35.38-56.01,43.69,9.77,143.74,68,187.32,102.87h0Zm-510.06-65.13c-10.81-7.45-22.32-13.69-34.47-18.73,.19-5.7,.98-11.38,2.48-16.93,11.38,5.39,22.06,11.37,31.99,17.91,9.93-6.54,20.6-12.52,31.98-17.91,1.5,5.54,2.29,11.22,2.48,16.93-12.15,5.04-23.65,11.29-34.46,18.73h0Zm-314.09,46.38c-.7,.79-1.39,1.57-2.08,2.37-66.92,40.09-147.76,40.67-193.88,16.37,40.12-32.1,141.37-92.59,187.31-102.86,5.29,19.01,19.2,43.73,35.39,56.01-13.63,9.84-23.16,19.7-26.73,28.11h0Zm-197.96,17.66c-15.53-8.59-27.52-20.12-35.08-34.09,76.79-27.74,140.63-47.2,194.71-60.68-70.13,33.9-122.46,64.9-159.63,94.76h0Zm512.05-54.57c11.03-6.98,22.48-12.4,34.07-16.57-.88,8.91-3.04,17.69-6.02,25.9-9.87,2.81-19.26,6.57-28.05,11.22-8.79-4.66-18.19-8.41-28.05-11.22-2.99-8.21-5.14-16.99-6.02-25.9,11.59,4.17,23.05,9.6,34.08,16.57h0Zm555.61-21.47c1.18,13.95-.7,26.59-7.52,40.08-85.58-30.96-159.87-53.41-224.81-67.94,2.28-9,3-17.14,2.52-24.78,70.01,9.03,146.79,26.61,229.81,52.65h0Zm-339.8-45.69c-1.54-4.24-2.66-8.97-2.92-14.05,22.08-.26,45.06,.57,68.9,2.48,2.11,7.5,.34,14.3-4.61,20.12-21.88-3.87-42.08-6.65-61.37-8.55Zm59.59,10.46c-13.7,13.5-47.12,19.92-58.71-8.2,17.96,1.81,37.42,4.46,58.71,8.2Zm8.6-21.85c12.98,1.07,26.21,2.46,39.69,4.17,.61,7.87-.16,16.12-2.33,24.62-14.38-3.19-28.3-5.99-41.78-8.41,4.59-5.97,6.26-13.09,4.42-20.38Zm14.93-41.64c14.56,12.01,22.75,26.96,24.58,43.69-13.63-1.72-27-3.12-40.12-4.19-12.24-39.67-50.96-10.76-45.71-8.4,.53,.24,1.15,0,1.38-.52,1-2.22,12-10.54,23.1-9.7,8.85,.67,15.22,6.88,18.97,18.44-23.63-1.87-46.41-2.68-68.32-2.42-.19-41.78,54.32-63.12,86.1-36.9h0Zm-88.14,39.02c.25,4.96,1.28,9.59,2.72,13.79-45.9-4.38-81.96-3.27-114.17-.93,36.51-8.66,73.93-12.3,111.45-12.86h0Zm-115.58,13.87l.11,1.39c33.34-2.55,70.76-3.92,119.03,.79,12.34,31.59,49.75,24.02,63.62,8.88,13.52,2.41,27.76,5.26,42.84,8.6-5.2,18.56-19.13,43.18-35.23,55.17-68.45-48.15-172.62-67.28-249.07-36.57-.24-5.72-1.07-11.41-2.6-16.98,18.62-8.66,39.11-15.77,61.31-21.28h0Zm-95.21-18.92c14.98,9.1,26.26,22.11,31.4,39.07-11.15,5.26-21.63,11.08-31.4,17.44-9.77-6.36-20.26-12.18-31.4-17.44,5.14-16.93,16.41-29.96,31.4-39.07Zm-36.5,57.18c-78.43-31.5-183.23-9.73-249.07,36.58-16.12-12.01-30.05-36.67-35.23-55.18,15.07-3.34,29.32-6.19,42.84-8.6,13.7,14.95,51.14,23.03,63.62-8.88,48.27-4.71,85.69-3.34,119.03-.79l.11-1.39c22.2,5.51,42.69,12.62,61.31,21.28-1.53,5.56-2.36,11.26-2.6,16.98h0Zm-287.2-45.33c13.49-1.71,26.72-3.1,39.69-4.17-1.84,7.29-.17,14.41,4.42,20.38-13.48,2.42-27.4,5.22-41.78,8.41-2.16-8.5-2.94-16.75-2.33-24.62h0Zm46.51,15.77c-5.02-5.9-6.7-12.72-4.61-20.12,23.84-1.91,46.82-2.74,68.9-2.48-.27,5.08-1.39,9.81-2.92,14.05-20.47,2.02-40.76,4.91-61.37,8.55Zm60.49-6.29c-11.43,27.73-44.71,21.99-58.71,8.2,21.29-3.74,40.75-6.39,58.71-8.2Zm117.35-3.42c-32.21-2.34-68.27-3.46-114.18,.93,1.44-4.2,2.47-8.83,2.72-13.79,37.52,.56,74.94,4.2,111.46,12.86h0Zm-113.49-14.98c-21.91-.26-44.69,.55-68.32,2.42,10.67-32.89,40.31-12.68,42.08-8.74,.57,1.26,2.47,.4,1.91-.86-2.55-5.67-35.12-26.24-46.23,9.78-13.11,1.07-26.49,2.47-40.12,4.19,8.14-74.16,110.97-69.17,110.69-6.79h0Zm-112.97,9.18c-.48,7.65,.24,15.79,2.52,24.78-64.94,14.54-139.22,36.99-224.8,67.94-6.79-13.44-8.7-26.07-7.51-40.08,83.02-26.03,159.79-43.61,229.8-52.64h0Zm-356.72,89.06c-4.78,12.78-14.58,23.5-27.58,26.78-13.37,3.38-30.36-4.65-46.18-15.21,27.83-3.88,52.83-7.8,73.77-11.57h0Zm-105.52-10.16c7.31,6.04,16.39,13.54,26.14,20.4-40.47,5.55-82.92,10.48-123.41,14.56-18.65-38.57,17.25-101.12,97.27-34.96h0Zm50.58,69.68c-1.54-.16-121.28,14.42-146.83-32.73,40.52-4.1,83.54-9.08,124.92-14.8,13.67,9.34,33.75,20.86,49.78,16.82,14.13-3.57,24.64-15.38,29.45-29.24,54.86-9.99,45.2-10.46,110.33-31.46,2.07,13.84,6.62,26.87,13.41,38.57-83.07,30.32-52.44,23.07-181.07,52.84h0Zm700.64-67.35c-.26-1.27-24.34-3.66-27.89-3.66-41.48,0-75.58,12.64-101.58,21.4-9.1,3.1-68.4,10.88-108.94-10.82,67.88-35.41,164.41-57.16,239.02-31.37,.79,8.92,2.84,17.71,5.72,25.97-2.09-.56-4.2-1.06-6.34-1.54h0Zm36.83,47.04c-11.43-14.82-19.44-22.6-27.14-42.39,9.55,2.83,18.63,6.57,27.14,11.16,8.5-4.6,17.59-8.33,27.14-11.16-7.67,19.71-15.54,27.36-27.14,42.39Zm166.29-29.3c-1-.34-74.32-26.59-101.77-21.37-2.4,.11-27.38,2.05-27.69,3.62-2.13,.47-4.25,.98-6.34,1.54,2.88-8.26,4.93-17.05,5.72-25.97,75.52-26.12,172.49-3.35,239.03,31.36-38.9,20.82-97.54,14.71-108.95,10.82h0Zm571.17,49.6c-126.16-29.2-95.95-21.77-181.06-52.84,6.8-11.7,11.35-24.74,13.42-38.57,65.18,21.01,55.5,21.48,110.32,31.46,6.7,19.31,22.34,30.08,36.48,30.08,13.25,0,28.59-7.97,42.75-17.65,41.39,5.71,84.41,10.7,124.92,14.8-25.56,47.17-144.52,32.49-146.84,32.73h0Z"/><path class="cls-1" d="M1637.66,311.67c-48.98,12.78-45.59,39.75-43.84,40.8,9.51,5.73,38.14-.34,45.13-39.61,.14-.74-.54-1.39-1.29-1.2h0Z"/><path class="cls-1" d="M921.04,312.86c8.34,46.8,45.41,43.77,45.64,38.76,1.6-30.61-46.26-42.35-45.64-38.76h0Z"/><path class="cls-1" d="M1643.16,340.19c-26.06,47.75-18.67,79.96,1.28,78.01,29.38-1.9,16-48.36-1.28-78.01Z"/><path class="cls-1" d="M916.84,340.19c-23.77,40.77-25.78,78.08,.4,78.09,19.73,0,23.65-34.09-.4-78.09Z"/><path class="cls-1" d="M1648.26,313.43c8.28,46.51,45.35,44.07,45.63,38.77,1.61-30.77-46.24-42.16-45.63-38.77Z"/><path class="cls-1" d="M910.5,312.24c-30.4,7.93-45.31,21.38-44.34,39.96,.09,1.78,5.68,2.69,8.37,2.69,28.92,0,41.23-44.01,35.97-42.65Z"/><path class="cls-1" d="M2453.56,238.49c-1,.92,5.29,47.48,36.06,48.27,1.75,0,5.72-8.55,1.56-20.02-7.92-21.81-36.41-29.38-37.62-28.25Z"/><path class="cls-1" d="M68.79,266.74c-4.14,11.42-.2,20.02,1.53,20.02,30.09-.07,37.09-47.35,36.09-48.27-1.01-.94-29.53,5.98-37.62,28.25Z"/><path class="cls-1" d="M2482.16,236.19c44.06,28.73,78.28,25.62,77.87,4.8,.4-30.4-48.58-18.94-77.87-4.8Z"/><path class="cls-1" d="M77.88,236.19C34.33,215.16-.31,217.49,0,240.99c-.4,20.67,33.56,24.06,77.87-4.8Z"/><path class="cls-1" d="M2455.86,229.07c39.4-3.88,48.05-31.82,43.01-41.9-.65-1.29-27.2-8.27-44.1,40.52-.26,.74,.37,1.48,1.09,1.38h0Z"/><path class="cls-1" d="M105.25,227.69c-16.53-47.74-43.17-42.36-44.1-40.52-1.98,3.96-2.01,11.5,2.38,19.45,10.9,19.75,43.24,25.47,41.72,21.07Z"/></g></svg>