<?xml version="1.0" encoding="UTF-8"?><svg id="Layer_2" xmlns="http://www.w3.org/2000/svg" xmlns:xlink="http://www.w3.org/1999/xlink" viewBox="0 0 100.33 112.13"><defs><style>.cls-1,.cls-2{stroke-miterlimit:2.41;}.cls-1,.cls-2,.cls-3,.cls-4,.cls-5,.cls-6,.cls-7,.cls-8,.cls-9{stroke:#000;}.cls-1,.cls-2,.cls-3,.cls-4,.cls-5,.cls-6,.cls-7,.cls-9{stroke-width:.39px;}.cls-1,.cls-3,.cls-10{fill:none;}.cls-11{fill:#eaea54;}.cls-2,.cls-12,.cls-4,.cls-13,.cls-5,.cls-6,.cls-7,.cls-14,.cls-9{fill-rule:evenodd;}.cls-2,.cls-13{fill:#d8ae4e;}.cls-12{fill:#f1c257;}.cls-3,.cls-4,.cls-5,.cls-6,.cls-7{stroke-linecap:round;}.cls-3,.cls-4,.cls-5,.cls-6,.cls-7,.cls-9{stroke-linejoin:round;}.cls-15{fill:url(#New_Pattern);}.cls-4{fill:#fff;}.cls-16{filter:url(#AI_Alpha_1);opacity:.28;}.cls-17{fill:#edede8;}.cls-5{fill:#fecc5c;}.cls-6{fill:#e5b853;}.cls-7{fill:#feb342;}.cls-8{fill:#e06363;stroke-miterlimit:10;stroke-width:1.03px;}</style><filter id="AI_Alpha_1" x="0%" y="0%" width="100%" height="100%"><feTurbulence baseFrequency="0.05" numOctaves="2" result="turb"/><feComposite in="SourceGraphic" in2="turb" operator="in"/></filter><pattern id="New_Pattern" x="0" y="0" width="200" height="244" patternTransform="translate(-7479.13 -8656.94) scale(.07 -.07)" patternUnits="userSpaceOnUse" viewBox="0 0 200 244"><g><rect class="cls-10" width="200" height="244"/><g><rect class="cls-10" width="200" height="244"/><path d="M113.68-228.7c-25.31,0-45.9,20.59-45.9,45.9s20.59,45.9,45.9,45.9v17.63c49.45,23.15,49.24,95.4-2.38,117.23-7.92,3.35-16.33,5.05-24.99,5.05V-15.3c25.31,0,45.9-20.59,45.9-45.9s-20.59-45.9-45.9-45.9v-17.63c-50.03-23.39-48.65-95.65,2.38-117.23,7.92-3.35,16.33-5.05,24.99-5.05v18.3Z"/><path d="M213.69-106.7c-25.31,0-45.9,20.59-45.9,45.9s20.59,45.9,45.9,45.9V2.72c49.45,23.15,49.24,95.4-2.38,117.23-7.92,3.35-16.33,5.05-24.99,5.05v-18.3c25.31,0,45.9-20.59,45.9-45.9s-20.59-45.9-45.9-45.9V-2.72c-50.03-23.39-48.65-95.65,2.38-117.23,7.92-3.35,16.33-5.05,24.99-5.05v18.3h0Z"/><path d="M13.68-106.7c-25.31,0-45.9,20.59-45.9,45.9S-11.62-14.91,13.68-14.91V2.72c49.45,23.15,49.24,95.4-2.38,117.23-7.92,3.35-16.33,5.05-24.99,5.05v-18.3c25.31,0,45.9-20.59,45.9-45.9S11.62,14.91-13.68,14.91V-2.72c-50.03-23.39-48.65-95.65,2.38-117.23,7.92-3.35,16.33-5.05,24.99-5.05v18.3Z"/><path d="M113.68,15.3c-25.31,0-45.9,20.59-45.9,45.9s20.59,45.9,45.9,45.9v17.63c49.45,23.15,49.24,95.4-2.38,117.23-7.92,3.35-16.33,5.05-24.99,5.05v-18.3c25.31,0,45.9-20.59,45.9-45.9s-20.59-45.9-45.9-45.9v-17.63C36.29,95.89,37.67,23.63,88.69,2.05c7.92-3.35,16.33-5.05,24.99-5.05V15.3Z"/><path d="M213.69,137.3c-25.31,0-45.9,20.59-45.9,45.9s20.59,45.9,45.9,45.9v17.63c49.45,23.15,49.24,95.4-2.38,117.23-7.92,3.35-16.33,5.05-24.99,5.05v-18.3c25.31,0,45.9-20.59,45.9-45.9s-20.59-45.9-45.9-45.9v-17.63c-50.03-23.39-48.65-95.65,2.38-117.23,7.92-3.35,16.33-5.05,24.99-5.05v18.3h0Z"/><path d="M13.68,137.3c-25.31,0-45.9,20.59-45.9,45.9s20.59,45.9,45.9,45.9v17.63c49.45,23.15,49.24,95.4-2.38,117.23-7.92,3.35-16.33,5.05-24.99,5.05v-18.3c25.31,0,45.9-20.59,45.9-45.9s-20.59-45.9-45.9-45.9v-17.63c-50.03-23.39-48.65-95.65,2.38-117.23,7.92-3.35,16.33-5.05,24.99-5.05v18.3Z"/><path d="M113.68,259.3c-25.31,0-45.9,20.59-45.9,45.9s20.59,45.9,45.9,45.9v17.63c49.45,23.15,49.24,95.4-2.38,117.23-7.92,3.35-16.33,5.05-24.99,5.05v-18.3c25.31,0,45.9-20.59,45.9-45.9s-20.59-45.9-45.9-45.9v-17.63c-50.03-23.39-48.65-95.65,2.38-117.23,7.92-3.35,16.33-5.05,24.99-5.05v18.3Z"/></g></g></pattern></defs><g id="Layer_1-2"><g><path class="cls-8" d="M50.17,.55s40.81,15.01,47.45,9.56c3.91-3.21,5.14,71.51-18.77,87.8-8.92,6.07-28.68,13.67-28.68,13.67,0,0-19.76-7.6-28.68-13.67C-2.43,81.61-1.2,6.9,2.71,10.11,9.36,15.56,50.17,.55,50.17,.55Z"/><g class="cls-16"><g><path class="cls-17" d="M86.81,74.28c.21,.31,.46,.59,.75,.86,.03,1.41-2.12,2.27-2.76-1.1,.18,.63,.37,1.31,.9,1.72,.34,.27,.81,.29,1.19,.12-.26-.07-.53-.15-.75-.32-.65-.48-1-1.41-1.17-2.39,.9-.34,1.84-.48,2.57-.14,.25,.11,.45,.31,.64,.51-.06-.43-.3-.85-.7-1.02-.61-.27-1.27-.1-1.88,.05,3.12-1.11,3.47,1.26,2.29,1.94-.36-.13-.73-.21-1.09-.25ZM50.13,8.11c.15-.35,.26-.71,.34-1.1,1.16-.73,2.95,.77,.47,3.03,.43-.48,.91-.99,.98-1.67,.06-.44-.17-.87-.5-1.14,.07,.27,.14,.55,.11,.83-.08,.83-.67,1.61-1.4,2.25-.73-.64-1.32-1.42-1.4-2.25-.03-.28,.04-.56,.11-.83-.33,.27-.55,.7-.5,1.14,.08,.68,.55,1.2,.98,1.67-2.48-2.26-.69-3.76,.47-3.03,.07,.39,.19,.76,.34,1.1h0ZM13.45,74.28c-.36,.04-.72,.12-1.09,.25-1.18-.68-.83-3.05,2.29-1.94-.61-.15-1.28-.32-1.88-.05-.4,.17-.64,.59-.7,1.02,.19-.2,.39-.4,.64-.51,.73-.34,1.67-.2,2.57,.14-.17,.98-.52,1.9-1.17,2.39-.22,.17-.49,.25-.75,.32,.39,.17,.85,.15,1.19-.12,.53-.41,.72-1.1,.9-1.72-.64,3.37-2.78,2.5-2.76,1.1,.29-.26,.54-.55,.75-.86Zm70.27-1.86c-.27,1.7-.21,3.25,.45,4.38,1.02,1.8,3.48,.65,3.85-1.34,.47,.23,.99,.48,1.62,.51-.34-.56-.81-.9-1.24-1.21,1.46-1.33,1.19-4.12-.81-4.14-1.27-.02-2.59,.69-3.87,1.79h0ZM50.13,11.83c1.55-.61,2.81-1.44,3.42-2.59,.99-1.82-1.2-3.46-3.03-2.8-.04-.54-.1-1.13-.39-1.72-.29,.59-.35,1.18-.39,1.72-1.83-.66-4.02,.98-3.03,2.8,.62,1.16,1.87,1.99,3.42,2.59h0ZM16.55,72.42c-1.28-1.1-2.6-1.81-3.87-1.79-2,.02-2.28,2.81-.81,4.14-.43,.31-.89,.65-1.24,1.21,.63-.03,1.15-.27,1.62-.51,.37,1.98,2.83,3.13,3.85,1.34,.65-1.13,.72-2.68,.45-4.38h0Z"/><path class="cls-17" d="M76.46,80.62c-2.85,.3-7.23,2.32-10.37,3.87,1.72-.55,9.18-4.27,12.31-1.59,.35,.29,.55,.71,.64,1.15,.33-.78,.06-1.75-1.9-2.2,3.08,.43,2.84,2.78,1.19,2.9-5.12-6.23-25.28,4.35-27.08,14.02-.87,4.83,3.97,5.1,4.81,2.73,.36-1.01-.73-1.84-1.51-1.3-.34,.21-.4,.77-.13,1.06,.08,.1,.2,.08,.31,.09-.9,1.13-2.42-.11-2.76-1.72-.83-3.86,4.74-8.55,8-10.69,1.95-1.22,3.61-.47,2.63,.61-.06-1.11-1.37-.48-1.11,.38,.29,.85,1.56,.71,1.99-.18,.56-1.07-.02-1.89-.92-1.89-.36-.03-.71,.08-1.06,.16,1.97-1.01,4.61-1.79,5.84,.11,.68,1.01-.56,1.7-1.26,1.1-.49,1-.19,1.61,.44,1.83,2.07,.76,3.86-2.52,1.52-4.07-1.29-.84-2.72-.77-4.13-.24,.23-.15,3.38-1.66,6.61-2.09,.51-.06,1.38,1.02-.47,1.41-.73,.17-1.84-.09-2.85,.02-.51,0-1.02,.06-1.53,.11-.03,.05,0,.15,.08,.08,4.91,.09,3.06,4.4,5.48,4.91-.84-.54-.72-.82-.51-1.85,.3-1.29-.14-2.24-1.22-2.82,1.54,.16,2.71-.73,2.71-1.57,2.35-.19,2.25,1.43,1.5,1.5,.16-.22,.16-.6-.13-.71-.39-.08-.74,.36-.68,.76,.02,.47,.54,.76,.95,.62,1.61-.56,1-2.75-1.72-2.46-.03-.03-.07-.08-.1-.1,1.69-.23,5.39,.52,5.89,3.09,.36,1.93-1.82,3.51-2.69,1.81,.18,.05,.36,.1,.54,.04,.34-.11,.6-.42,.73-.76,.34-.91-.54-1.35-1.04-1.27-1.18,.16-2.66,2.22-1.24,3.39,2.02,1.64,6.38-2.28,4.44-5.64,2.86-.66,3.56-5.18-2.18-4.6h0Z"/><path class="cls-17" d="M60.59,14.27c1.67,2.43,5.55,5.36,8.4,7.41-1.32-1.28-8.15-6.14-7.48-10.3,.07-.46,.32-.85,.64-1.15-.82,.1-1.48,.81-.88,2.81-1.18-2.99,.89-3.96,1.82-2.53-2.62,7.74,16.26,20.62,25.2,17.42,4.45-1.63,2.25-6.13-.13-5.7-1.02,.18-1.17,1.57-.33,2.02,.35,.2,.84-.02,.95-.42,.04-.12-.04-.22-.08-.32,1.39,.25,1.12,2.24-.05,3.35-2.79,2.67-9.48,0-12.89-1.87-1.99-1.15-2.2-3.02-.81-2.68-.9,.61,.28,1.48,.87,.81,.57-.68-.19-1.76-1.15-1.71-1.17,.03-1.56,.97-1.11,1.77,.16,.34,.43,.6,.66,.88-1.83-1.27-3.79-3.26-2.83-5.32,.5-1.12,1.7-.34,1.54,.59,1.07-.06,1.43-.64,1.31-1.31-.41-2.25-4.03-2.22-4.15,.66-.06,1.58,.72,2.84,1.87,3.85-.25-.13-3.07-2.22-5.04-4.91-.31-.43,.16-1.75,1.41-.28,.51,.58,.84,1.71,1.44,2.57,.25,.46,.56,.89,.86,1.32,.05,0,.13-.07,.03-.11-2.38-4.48,2.13-4.96,1.35-7.4-.03,1.03-.32,1.06-1.29,1.39-1.23,.38-1.79,1.25-1.73,2.51-.64-1.47-1.97-2.08-2.67-1.66-1.33-2.02,.07-2.75,.5-2.1-.27-.03-.58,.16-.53,.47,.13,.39,.67,.49,.97,.23,.38-.25,.36-.87,.04-1.17-1.27-1.18-2.79,.47-1.18,2.79,0,.04-.03,.11-.03,.14-1.03-1.41-2.26-5.12-.38-6.85,1.42-1.29,3.83-.12,2.85,1.52-.05-.18-.1-.38-.24-.51-.26-.25-.65-.34-.99-.28-.93,.15-.85,1.16-.54,1.58,.73,.99,3.18,1.29,3.44-.58,.35-2.64-5.09-4.61-6.91-1.18-1.98-2.25-6.08-.62-2.73,4.26h0Z"/><path class="cls-17" d="M13.35,61.76c1.18-2.72,1.69-7.68,1.96-11.28-.4,1.83-1.04,10.42-4.83,11.9-.41,.17-.86,.14-1.28,0,.49,.69,1.42,.93,2.78-.61-1.9,2.56-3.73,1.18-3.01-.38,7.74-1.5,9.02-24.98,1.89-31.44-3.58-3.2-6.22,1.03-4.67,2.97,.65,.83,1.89,.26,1.84-.71,0-.42-.44-.74-.82-.65-.12,.02-.17,.14-.23,.23-.49-1.38,1.31-2.13,2.81-1.63,3.62,1.18,4.75,8.55,4.89,12.56,.04,2.37-1.41,3.49-1.82,2.07,.96,.5,1.09-.99,.24-1.19-.85-.17-1.37,1.05-.85,1.89,.61,1.04,1.58,.92,2.03,.11,.2-.31,.29-.68,.4-1.04-.14,2.28-.81,5.05-3.01,5.21-1.18,.11-1.14-1.36-.28-1.68-.59-.94-1.25-.97-1.75-.52-1.67,1.49,.17,4.74,2.63,3.41,1.34-.74,2-2.07,2.27-3.61,.01,.29-.31,3.87-1.57,7-.2,.49-1.54,.73-.94-1.13,.23-.74,1-1.61,1.41-2.58,.26-.46,.46-.95,.67-1.44-.03-.05-.12-.08-.11,.03-2.53,4.39-5.19,.56-6.83,2.48,.87-.49,1.04-.24,1.8,.47,.93,.92,1.93,.99,2.96,.31-.9,1.31-.75,2.81-.05,3.23-1.01,2.21-2.32,1.31-1.99,.6,.1,.26,.42,.44,.66,.24,.26-.31,.07-.85-.29-.99-.4-.22-.91,.11-.99,.55-.35,1.73,1.78,2.28,2.91-.33,.03,0,.1-.03,.13-.04-.65,1.63-3.13,4.6-5.51,3.76-1.79-.64-2.01-3.39-.16-3.33-.13,.14-.26,.28-.3,.47-.08,.36,.04,.75,.26,1.04,.59,.76,1.39,.19,1.58-.31,.46-1.15-.52-3.51-2.2-2.81-2.37,1.01-1.29,6.9,2.48,6.82-.88,2.91,2.53,5.8,4.91,.33h0Z"/><path class="cls-17" d="M23.8,80.62c2.85,.3,7.23,2.32,10.37,3.87-1.72-.55-9.18-4.27-12.31-1.59-.35,.29-.55,.71-.64,1.15-.33-.78-.06-1.75,1.9-2.2-3.08,.43-2.84,2.78-1.19,2.9,5.12-6.23,25.28,4.35,27.08,14.02,.87,4.83-3.97,5.1-4.81,2.73-.36-1.01,.73-1.84,1.51-1.3,.34,.21,.4,.77,.13,1.06-.08,.1-.2,.08-.31,.09,.9,1.13,2.42-.11,2.76-1.72,.83-3.86-4.74-8.55-8-10.69-1.95-1.22-3.61-.47-2.63,.61,.06-1.11,1.37-.48,1.11,.38-.29,.85-1.56,.71-1.99-.18-.56-1.07,.02-1.89,.92-1.89,.36-.03,.71,.08,1.06,.16-1.97-1.01-4.61-1.79-5.84,.11-.68,1.01,.56,1.7,1.26,1.1,.49,1,.19,1.61-.44,1.83-2.07,.76-3.86-2.52-1.52-4.07,1.29-.84,2.72-.77,4.13-.24-.23-.15-3.38-1.66-6.61-2.09-.51-.06-1.38,1.02,.47,1.41,.73,.17,1.84-.09,2.85,.02,.51,0,1.02,.06,1.53,.11,.03,.05,0,.15-.08,.08-4.91,.09-3.06,4.4-5.48,4.91,.84-.54,.72-.82,.51-1.85-.3-1.29,.14-2.24,1.22-2.82-1.54,.16-2.71-.73-2.71-1.57-2.35-.19-2.25,1.43-1.5,1.5-.16-.22-.16-.6,.13-.71,.39-.08,.74,.36,.68,.76-.02,.47-.54,.76-.95,.62-1.61-.56-1-2.75,1.72-2.46,.03-.03,.07-.08,.1-.1-1.69-.23-5.39,.52-5.89,3.09-.36,1.93,1.82,3.51,2.69,1.81-.18,.05-.36,.1-.54,.04-.34-.11-.6-.42-.73-.76-.34-.91,.54-1.35,1.04-1.27,1.18,.16,2.66,2.22,1.24,3.39-2.02,1.64-6.38-2.28-4.44-5.64-2.86-.66-3.56-5.18,2.18-4.6h0Z"/><path class="cls-17" d="M86.92,61.76c-1.18-2.72-1.69-7.68-1.96-11.28,.4,1.83,1.04,10.42,4.83,11.9,.41,.17,.86,.14,1.28,0-.49,.69-1.42,.93-2.78-.61,1.9,2.56,3.73,1.18,3.01-.38-7.74-1.5-9.02-24.98-1.89-31.44,3.58-3.2,6.22,1.03,4.67,2.97-.65,.83-1.89,.26-1.84-.71,0-.42,.44-.74,.82-.65,.12,.02,.17,.14,.23,.23,.49-1.38-1.31-2.13-2.81-1.63-3.62,1.18-4.75,8.55-4.89,12.56-.04,2.37,1.41,3.49,1.82,2.07-.96,.5-1.09-.99-.24-1.19,.85-.17,1.37,1.05,.85,1.89-.61,1.04-1.58,.92-2.03,.11-.2-.31-.29-.68-.4-1.04,.14,2.28,.81,5.05,3.01,5.21,1.18,.11,1.14-1.36,.28-1.68,.59-.94,1.25-.97,1.75-.52,1.67,1.49-.17,4.74-2.63,3.41-1.34-.74-2-2.07-2.27-3.61-.01,.29,.31,3.87,1.57,7,.2,.49,1.54,.73,.94-1.13-.23-.74-1-1.61-1.41-2.58-.26-.46-.46-.95-.67-1.44,.03-.05,.12-.08,.11,.03,2.53,4.39,5.19,.56,6.83,2.48-.87-.49-1.04-.24-1.8,.47-.93,.92-1.93,.99-2.96,.31,.9,1.31,.75,2.81,.05,3.23,1.01,2.21,2.32,1.31,1.99,.6-.1,.26-.42,.44-.66,.24-.26-.31-.07-.85,.29-.99,.4-.22,.91,.11,.99,.55,.35,1.73-1.78,2.28-2.91-.33-.03,0-.1-.03-.13-.04,.65,1.63,3.13,4.6,5.51,3.76,1.79-.64,2.01-3.39,.16-3.33,.13,.14,.26,.28,.3,.47,.08,.36-.04,.75-.26,1.04-.59,.76-1.39,.19-1.58-.31-.46-1.15,.52-3.51,2.2-2.81,2.37,1.01,1.29,6.9-2.48,6.82,.88,2.91-2.53,5.8-4.91,.33h0Z"/><path class="cls-17" d="M39.68,14.27c-1.67,2.43-5.55,5.36-8.4,7.41,1.32-1.28,8.15-6.14,7.48-10.3-.07-.46-.32-.85-.64-1.15,.82,.1,1.48,.81,.88,2.81,1.18-2.99-.89-3.96-1.82-2.53,2.62,7.74-16.26,20.62-25.2,17.42-4.45-1.63-2.25-6.13,.13-5.7,1.02,.18,1.17,1.57,.33,2.02-.35,.2-.84-.02-.95-.42-.04-.12,.04-.22,.08-.32-1.39,.25-1.12,2.24,.05,3.35,2.79,2.67,9.48,0,12.89-1.87,1.99-1.15,2.2-3.02,.81-2.68,.9,.61-.28,1.48-.87,.81-.57-.68,.19-1.76,1.15-1.71,1.17,.03,1.56,.97,1.11,1.77-.16,.34-.43,.6-.66,.88,1.83-1.27,3.79-3.26,2.83-5.32-.5-1.12-1.7-.34-1.54,.59-1.07-.06-1.43-.64-1.31-1.31,.41-2.25,4.03-2.22,4.15,.66,.06,1.58-.72,2.84-1.87,3.85,.25-.13,3.07-2.22,5.04-4.91,.31-.43-.16-1.75-1.41-.28-.51,.58-.84,1.71-1.44,2.57-.25,.46-.56,.89-.86,1.32-.05,0-.13-.07-.03-.11,2.38-4.48-2.13-4.96-1.35-7.4,.03,1.03,.32,1.06,1.29,1.39,1.23,.38,1.79,1.25,1.73,2.51,.64-1.47,1.97-2.08,2.67-1.66,1.33-2.02-.07-2.75-.5-2.1,.27-.03,.58,.16,.53,.47-.13,.39-.67,.49-.97,.23-.38-.25-.36-.87-.04-1.17,1.27-1.18,2.79,.47,1.18,2.79,0,.04,.03,.11,.03,.14,1.03-1.41,2.26-5.12,.38-6.85-1.42-1.29-3.83-.12-2.85,1.52,.05-.18,.1-.38,.24-.51,.26-.25,.65-.34,.99-.28,.93,.15,.85,1.16,.54,1.58-.73,.99-3.18,1.29-3.44-.58-.35-2.64,5.09-4.61,6.91-1.18,1.98-2.25,6.08-.62,2.73,4.26h0Z"/><path class="cls-17" d="M53.39,99.05c-.39,.59-.4,1.23,.2,1.59,.05-.24,.08-.48,.21-.69,.84-1.43,3.66-.24,2.31,1.93-.79,1.29-2.57,1.92-4.07,.62,.58,.73,1.51,1.16,2.42,1.09,.34-.02,.67-.16,1.01-.11,.57,.11,.63,.54,.31,.77-.01-.11,.02-.26-.09-.33-.11-.13-.3-.04-.38,.07-.19,.19-.08,.55,.15,.65,.73,.31,1.47-1.15,.12-1.41,.56-.35,1.03-.86,1.29-1.48,1.06-2.56-2.26-4.49-3.5-2.7h0Z"/><path class="cls-17" d="M87.45,25.87c.68,.06,1.23-.25,1.23-.97-.22,.08-.44,.17-.68,.15-1.61-.04-2.04-3.18,.45-3.05,1.47,.06,2.88,1.36,2.55,3.36,.32-.89,.21-1.94-.3-2.72-.18-.3-.47-.53-.6-.86-.19-.57,.14-.84,.49-.67-.09,.07-.23,.11-.23,.24-.05,.16,.11,.29,.25,.31,.25,.08,.5-.2,.46-.46-.1-.81-1.7-.75-1.24,.6-.57-.33-1.23-.5-1.88-.42-2.66,.32-2.6,4.28-.49,4.51h0Z"/><path class="cls-17" d="M9.56,31.74c-.29-.64-.82-.98-1.42-.62,.17,.16,.36,.32,.46,.54,.77,1.47-1.63,3.43-2.76,1.12-.68-1.36-.31-3.27,1.52-3.98-.9,.16-1.72,.78-2.11,1.64-.16,.32-.2,.69-.42,.97-.38,.46-.76,.3-.8-.1,.1,.05,.2,.15,.32,.09,.16-.04,.19-.25,.13-.38-.06-.27-.42-.35-.62-.19-.62,.5,.22,1.9,1.12,.81,0,.68,.2,1.36,.59,1.91,1.6,2.24,4.86,.21,3.99-1.81h0Z"/><path class="cls-17" d="M46.88,99.05c.39,.59,.4,1.23-.2,1.59-.05-.24-.08-.48-.21-.69-.84-1.43-3.66-.24-2.31,1.93,.79,1.29,2.57,1.92,4.07,.62-.58,.73-1.51,1.16-2.42,1.09-.34-.02-.67-.16-1.01-.11-.57,.11-.63,.54-.31,.77,.01-.11-.02-.26,.09-.33,.11-.13,.3-.04,.38,.07,.19,.19,.08,.55-.15,.65-.73,.31-1.47-1.15-.12-1.41-.56-.35-1.03-.86-1.29-1.48-1.06-2.56,2.26-4.49,3.5-2.7h0Z"/><path class="cls-17" d="M90.7,31.74c.29-.64,.82-.98,1.42-.62-.17,.16-.36,.32-.46,.54-.77,1.47,1.63,3.43,2.76,1.12,.68-1.36,.31-3.27-1.52-3.98,.9,.16,1.72,.78,2.11,1.64,.16,.32,.2,.69,.42,.97,.38,.46,.76,.3,.8-.1-.1,.05-.2,.15-.32,.09-.16-.04-.19-.25-.13-.38,.06-.27,.42-.35,.62-.19,.62,.5-.22,1.9-1.12,.81,0,.68-.2,1.36-.59,1.91-1.6,2.24-4.86,.21-3.99-1.81h0Z"/><path class="cls-17" d="M12.82,25.87c-.68,.06-1.23-.25-1.23-.97,.22,.08,.44,.17,.68,.15,1.61-.04,2.04-3.18-.45-3.05-1.47,.06-2.88,1.36-2.55,3.36-.32-.89-.21-1.94,.3-2.72,.18-.3,.47-.53,.6-.86,.19-.57-.14-.84-.49-.67,.09,.07,.23,.11,.23,.24,.05,.16-.11,.29-.25,.31-.25,.08-.5-.2-.46-.46,.1-.81,1.7-.75,1.24,.6,.57-.33,1.23-.5,1.88-.42,2.66,.32,2.6,4.28,.49,4.51h0Z"/><path class="cls-17" d="M82.96,71.96c-.38,.79-.71,1.5-.81,1.82-1,2.57-3.33,4.71-5.44,5.45-1.1,.51-4.52,2.42-4.54,2.44,4.73-2.22,7.83-.75,7.92-2.85-.6,1.1-1.11,.55-2.4,.28,2.15-.51,4.01-2.5,4.46-4.65,.32,1.54,.71,1.79-.22,2.49,.35-.01,.68-.21,.86-.51,.47-.77,.31-1.98,.73-4.12,1.57-1.45,2.66-1.91,3.06-2.72,.16-.32,.16-.72,0-1.04-.12,1.19-.51,.96-1.96,1.44,1.57-1.49,2.29-4.16,1.64-6.35,.86,1.02,1.57,1.21,.96,2.3,1.7-1.12-1.08-3.18-1.59-8.56,0,.04,.11,4.08,.24,5.32,.44,2.28-.17,5.45-1.81,7.63-.21,.25-.64,.9-1.11,1.64h0Z"/><path class="cls-17" d="M17.31,71.96c-.47-.74-.89-1.39-1.11-1.64-1.64-2.19-2.25-5.36-1.81-7.63,.13-1.24,.24-5.28,.24-5.32-.52,5.38-3.29,7.44-1.59,8.56-.61-1.09,.1-1.28,.96-2.3-.65,2.19,.07,4.87,1.64,6.35-1.44-.48-1.84-.25-1.96-1.44-.16,.32-.17,.72,0,1.04,.4,.81,1.49,1.27,3.06,2.72,.42,2.15,.26,3.35,.73,4.12,.19,.31,.52,.5,.86,.51-.93-.7-.54-.95-.22-2.49,.45,2.16,2.31,4.15,4.46,4.65-1.28,.27-1.79,.82-2.4-.28,.08,2.1,3.19,.62,7.92,2.85-.03-.02-3.45-1.94-4.54-2.44-2.11-.74-4.44-2.88-5.44-5.45-.1-.32-.43-1.03-.81-1.82h0Z"/><path class="cls-17" d="M50.13,12.75c.85-.05,1.6-.11,1.92-.18,2.64-.38,5.58,.65,7.25,2.18,.97,.74,4.27,2.86,4.3,2.88-4.21-3.15-4.54-6.69-6.33-5.72,1.21,0,1.01,.73,1.43,2.02-1.5-1.69-4.08-2.37-6.1-1.7,1.12-1.06,1.13-1.53,2.18-1.04-.18-.31-.51-.51-.86-.52-.88-.04-1.8,.71-3.8,1.4-2-.69-2.92-1.45-3.8-1.4-.35,.01-.68,.22-.86,.52,1.05-.49,1.06-.02,2.18,1.04-2.02-.67-4.6,.01-6.1,1.7,.42-1.29,.22-2.02,1.43-2.02-1.79-.97-2.11,2.56-6.33,5.72,.03-.02,3.33-2.14,4.3-2.88,1.67-1.54,4.62-2.57,7.25-2.18,.32,.07,1.07,.13,1.92,.18h0Z"/><path class="cls-17" d="M50.13,103.96c.74,0,1.45-.16,2.05-.52-.75-.56-2.07-1.48-1.59-4.09,.63-3.55,3.96-7.4,6.57-9.83,8.16-7.33,15.13-5.25,23.7-15.68,.57-.7,1.11-1.42,1.61-2.18,.38-.83,.71-1.68,1-2.54,4.39-12.94-.83-18.18,1.19-29.21,.71-3.57,2.24-8.5,4.88-10.84,1.94-1.74,3.36-1,4.2-.61,0-.72-.23-1.44-.6-2.11-.38-.67-.86-1.22-1.46-1.6-.09,.96-.19,2.6-2.6,3.48-3.27,1.21-8.14,.12-11.46-1.02-10.18-3.69-11.93-11.02-24.89-13.53-.87-.17-1.74-.29-2.62-.37-.88,.08-1.75,.2-2.62,.37-12.96,2.51-14.71,9.84-24.89,13.53-3.32,1.14-8.19,2.22-11.46,1.02-2.41-.88-2.51-2.53-2.6-3.48-.6,.37-1.08,.93-1.46,1.6-.37,.68-.59,1.39-.6,2.11,.84-.39,2.26-1.13,4.2,.61,2.64,2.35,4.17,7.28,4.88,10.84,2.02,11.03-3.2,16.27,1.19,29.21,.29,.87,.63,1.71,1,2.54,.5,.75,1.04,1.48,1.61,2.18,8.57,10.43,15.54,8.35,23.7,15.68,2.61,2.43,5.94,6.27,6.57,9.83,.48,2.61-.84,3.53-1.59,4.09,.61,.35,1.31,.51,2.05,.52h0Zm31.37-32.88c-2.02,3.02-5.09,6.08-7.75,7.83-5.71,3.9-11.56,3.96-18.88,11.25-1.76,1.89-3.66,4.24-4.74,6.76-1.08-2.52-2.98-4.88-4.74-6.76-7.32-7.29-13.17-7.35-18.88-11.25-2.65-1.75-5.73-4.8-7.75-7.83-1.5-3.33-2.51-7.63-2.64-10.9-.38-7.1,2.49-12.41,.09-22.65-.69-2.53-1.7-5.42-3.26-7.66,2.64,.29,5.55-.25,8-.89,9.72-2.96,12.7-8.2,18.79-11.4,2.78-1.52,6.86-2.76,10.38-3.07,3.52,.31,7.6,1.56,10.38,3.07,6.1,3.2,9.07,8.45,18.79,11.4,2.45,.64,5.36,1.18,8,.89-1.56,2.23-2.57,5.13-3.26,7.66-2.4,10.25,.47,15.55,.09,22.65-.13,3.27-1.13,7.57-2.64,10.9h0Z"/><path class="cls-17" d="M52.25,99.21c.2,.27,.61,.13,.74-.14,.12-.2,.05-.51-.18-.59-.38-.15-.82,.38-.57,.73h0Z"/><path class="cls-17" d="M88.15,26.81c.13-.32-.2-.62-.49-.6-.23,0-.44,.21-.4,.45,.06,.42,.72,.55,.89,.14h0Z"/><path class="cls-17" d="M10,30.64c-.33,.04-.41,.49-.25,.74,.11,.21,.4,.3,.58,.14,.32-.27,.09-.93-.33-.88Z"/><path class="cls-17" d="M48.01,99.21c-.2,.27-.61,.13-.74-.14-.12-.2-.05-.51,.18-.59,.38-.15,.82,.38,.57,.73h0Z"/><path class="cls-17" d="M90.26,30.64c.33,.04,.41,.49,.25,.74-.11,.21-.4,.3-.58,.14-.32-.27-.09-.93,.33-.88Z"/><path class="cls-17" d="M12.12,26.81c-.13-.32,.2-.62,.49-.6,.23,0,.44,.21,.4,.45-.06,.42-.72,.55-.89,.14Z"/><path class="cls-17" d="M52.98,98c.08-.17,.01-.41-.17-.47-.33-.13-.7,.32-.49,.63,.18,.25,.58,.12,.66-.16Z"/><path class="cls-17" d="M86.78,26.76c-.18,.01-.35,.19-.31,.39,.05,.36,.61,.47,.77,.13,.12-.29-.19-.58-.46-.52h0Z"/><path class="cls-17" d="M10.64,31.9c.1,.16,.33,.21,.47,.08,.27-.23,.09-.79-.27-.75-.3,.04-.38,.46-.2,.67h0Z"/><path class="cls-17" d="M47.28,98c-.08-.17-.01-.41,.17-.47,.33-.13,.7,.32,.49,.63-.18,.25-.58,.12-.66-.16Z"/><path class="cls-17" d="M89.63,31.9c-.1,.16-.33,.21-.47,.08-.27-.23-.09-.79,.27-.75,.3,.04,.38,.46,.2,.67h0Z"/><path class="cls-17" d="M13.49,26.76c.18,.01,.35,.19,.31,.39-.05,.36-.61,.47-.77,.13-.12-.29,.19-.58,.46-.52Z"/><path class="cls-17" d="M53.21,97.1c.08-.15,.04-.38-.12-.44-.3-.15-.67,.27-.48,.55,.15,.24,.5,.12,.6-.11Z"/><path class="cls-17" d="M85.92,27.01c-.16,0-.33,.15-.31,.33,.02,.34,.56,.47,.7,.16,.13-.25-.15-.51-.39-.49h0Z"/><path class="cls-17" d="M11.27,32.55c.08,.14,.29,.23,.43,.11,.28-.19,.11-.73-.22-.71-.27,.01-.35,.4-.21,.6Z"/><path class="cls-17" d="M47.06,97.1c-.08-.15-.04-.38,.12-.44,.3-.15,.67,.27,.48,.55-.15,.24-.5,.12-.6-.11Z"/><path class="cls-17" d="M88.99,32.55c-.08,.14-.29,.23-.43,.11-.28-.19-.11-.73,.22-.71,.27,.01,.35,.4,.21,.6Z"/><path class="cls-17" d="M14.35,27.01c.16,0,.33,.15,.31,.33-.02,.34-.56,.47-.7,.16-.13-.25,.15-.51,.39-.49h0Z"/><path class="cls-17" d="M53,96.39c.19,.21,.52,.02,.57-.22,.05-.17-.08-.35-.24-.36-.27-.03-.52,.35-.33,.58Z"/><path class="cls-17" d="M85.43,27.55c.08-.27-.24-.48-.47-.4-.16,.04-.25,.24-.18,.4,.11,.26,.55,.3,.65,0h0Z"/><path class="cls-17" d="M11.97,32.72c-.27,.07-.28,.46-.1,.63,.11,.13,.33,.11,.42-.04,.16-.23-.03-.64-.32-.59Z"/><path class="cls-17" d="M47.27,96.39c-.19,.21-.52,.02-.57-.22-.05-.17,.08-.35,.24-.36,.27-.03,.52,.35,.33,.58Z"/><path class="cls-17" d="M88.3,32.72c.27,.07,.28,.46,.1,.63-.11,.13-.33,.11-.42-.04-.16-.23,.03-.64,.32-.59Z"/><path class="cls-17" d="M14.83,27.55c-.08-.27,.24-.48,.47-.4,.16,.04,.25,.24,.18,.4-.11,.26-.55,.3-.65,0Z"/><path class="cls-17" d="M53.72,95.02c-.24,0-.41,.35-.24,.54,.16,.18,.45,.04,.51-.17,.07-.18-.09-.4-.27-.36h0Z"/><path class="cls-17" d="M83.93,27.59c.13,.21,.5,.2,.56-.06,.07-.23-.19-.43-.4-.37-.18,.03-.29,.28-.17,.43h0Z"/><path class="cls-17" d="M12.75,34.05c.11-.22-.08-.55-.33-.48-.23,.05-.26,.39-.11,.55,.12,.15,.37,.12,.44-.07Z"/><path class="cls-17" d="M46.55,95.02c.24,0,.41,.35,.24,.54-.16,.18-.45,.04-.51-.17-.07-.18,.09-.4,.27-.36h0Z"/><path class="cls-17" d="M87.52,34.05c-.11-.22,.08-.55,.33-.48,.23,.05,.26,.39,.11,.55-.11,.15-.37,.12-.44-.07h0Z"/><path class="cls-17" d="M16.33,27.59c-.13,.21-.5,.2-.56-.06-.07-.23,.19-.43,.4-.37,.18,.03,.29,.28,.17,.43h0Z"/><path class="cls-17" d="M53.97,94.8c.14,.15,.38,.06,.46-.11,.09-.14,.01-.38-.16-.39-.24-.04-.47,.29-.3,.5Z"/><path class="cls-17" d="M83.63,27.47c.06-.2-.14-.37-.32-.36-.16,0-.32,.18-.24,.34,.09,.24,.48,.28,.56,.02h0Z"/><path class="cls-17" d="M12.8,34.39c-.2,.04-.24,.31-.14,.47,.08,.15,.31,.2,.41,.05,.15-.2,0-.57-.27-.52Z"/><path class="cls-17" d="M46.29,94.8c-.14,.15-.38,.06-.46-.11-.09-.14-.01-.38,.16-.39,.24-.04,.47,.29,.3,.5Z"/><path class="cls-17" d="M87.47,34.39c.2,.04,.24,.31,.14,.47-.08,.15-.31,.2-.41,.05-.15-.2,0-.57,.27-.52Z"/><path class="cls-17" d="M16.64,27.47c-.06-.2,.14-.37,.32-.36,.16,0,.32,.18,.24,.34-.09,.24-.48,.28-.56,.02h0Z"/><path class="cls-17" d="M54.5,94.09c.13,.2,.42,.07,.46-.13,.04-.12-.03-.27-.15-.28-.21-.06-.43,.22-.31,.42Z"/><path class="cls-17" d="M82.76,27.34c.1-.21-.15-.42-.34-.35-.12,.02-.21,.16-.16,.28,.06,.22,.4,.28,.51,.07Z"/><path class="cls-17" d="M13.13,35.23c-.23,.01-.27,.35-.12,.49,.08,.09,.23,.11,.31,0,.15-.16,.03-.5-.19-.49h0Z"/><path class="cls-17" d="M45.76,94.09c-.13,.2-.42,.07-.46-.13-.04-.12,.03-.27,.15-.28,.21-.06,.43,.22,.31,.42Z"/><path class="cls-17" d="M87.14,35.23c.23,.01,.27,.35,.12,.49-.08,.09-.23,.11-.31,0-.15-.16-.03-.5,.19-.49Z"/><path class="cls-17" d="M17.5,27.34c-.1-.21,.15-.42,.34-.35,.12,.02,.21,.16,.16,.28-.06,.22-.4,.28-.51,.07Z"/><path class="cls-17" d="M55.16,93.15c-.13,.05-.21,.25-.11,.36,.12,.11,.34,0,.35-.16,.04-.14-.12-.28-.25-.2Z"/><path class="cls-17" d="M81.65,27.22c.11,.1,.31,.06,.35-.08,.03-.17-.16-.31-.31-.24-.13,.04-.17,.25-.05,.33h0Z"/><path class="cls-17" d="M13.58,36.29c.03-.14-.1-.31-.25-.28-.16,.05-.17,.3-.05,.4,.1,.1,.29,.03,.29-.12Z"/><path class="cls-17" d="M45.11,93.15c.13,.05,.21,.25,.11,.36-.12,.11-.34,0-.35-.16-.04-.14,.12-.28,.25-.2Z"/><path class="cls-17" d="M86.68,36.29c-.03-.14,.1-.31,.25-.28,.16,.05,.17,.3,.05,.4-.1,.1-.29,.03-.29-.12h0Z"/><path class="cls-17" d="M18.61,27.22c-.11,.1-.31,.06-.35-.08-.03-.17,.16-.31,.31-.24,.13,.04,.17,.25,.05,.33h0Z"/><path class="cls-17" d="M55.95,92.33c-.09,.1,.04,.28,.15,.2,.1-.05,.1-.17,.07-.27-.08,0-.18-.01-.22,.07Z"/><path class="cls-17" d="M80.58,26.91c.13,.03,.21-.18,.09-.24-.1-.07-.19,0-.26,.07,.04,.06,.08,.16,.17,.17Z"/><path class="cls-17" d="M13.86,37.41c-.03-.13-.25-.1-.24,.04,0,.12,.09,.18,.19,.2,.03-.07,.1-.15,.05-.24Z"/><path class="cls-17" d="M44.31,92.33c.09,.1-.04,.28-.15,.2-.1-.05-.1-.17-.07-.27,.08,0,.18-.01,.22,.07Z"/><path class="cls-17" d="M86.4,37.41c.03-.13,.25-.1,.24,.04,0,.12-.09,.18-.19,.2-.03-.07-.1-.15-.05-.24Z"/><path class="cls-17" d="M19.68,26.91c-.13,.03-.21-.18-.09-.24,.1-.07,.19,0,.26,.07-.04,.06-.08,.16-.17,.17h0Z"/><path class="cls-17" d="M55.63,92.63c-.12,.03-.2,.21-.1,.31,.1,.12,.29,.02,.31-.12,.04-.12-.1-.23-.21-.19Z"/><path class="cls-17" d="M80.99,27.05c.09,.09,.28,.07,.31-.07,.05-.15-.13-.27-.26-.21-.12,.03-.14,.21-.05,.28Z"/><path class="cls-17" d="M13.77,36.97c.03-.12-.08-.29-.21-.24-.15,.03-.16,.25-.05,.34,.08,.1,.24,.03,.26-.09Z"/><path class="cls-17" d="M44.63,92.63c.12,.03,.2,.21,.1,.31-.1,.12-.29,.02-.31-.12-.04-.12,.1-.23,.21-.19Z"/><path class="cls-17" d="M86.49,36.97c-.03-.12,.08-.29,.21-.24,.15,.03,.16,.25,.05,.34-.08,.1-.24,.03-.26-.09Z"/><path class="cls-17" d="M19.28,27.05c-.09,.09-.28,.07-.31-.07-.05-.15,.13-.27,.26-.21,.12,.03,.14,.21,.05,.28h0Z"/></g><path class="cls-15" d="M97.27,9.65C90.62,15.12,49.75,.08,49.75,.08,49.75,.08,8.87,15.12,2.22,9.65-1.7,6.44-2.93,81.27,21.02,97.59c6.31,4.3,18.05,9.36,24.39,11.96h8.68c6.34-2.6,18.07-7.66,24.39-11.96,23.95-16.32,22.72-91.16,18.8-87.94Z"/></g><g><path class="cls-6" d="M73.49,56.97c.22,1.18,.75,2.52,1,3.32,.43,.79,.61,1.08,.98,1.91,.22,.94,1.24,2.01,1.67,2.64,.08,.35,0,.63-.1,.87-.12,.16-.26,.71-.35,1.08-.1,1.63-.1,1.79-.1,3.09-.22,.67-.55,.69-.92,.77l.02-.73c0,.16-.04,.43-.04,.73-.49,.16-.96,.14-1.44,.04,0-.16-.02-.33-.02-.49v.49c-.28,.1-.73,.1-1.04,.04-.85-1.83,1.36-2.58,1.67-2.22l.1-.37v-1.71c0-1.2-.04-1.71-.28-2.3-.22-.51-.49-1-.91-1.4-1.06-.96-4.6-3.44-5.57-5.27,1.83-4.98,4.94-10.21,4.15-14.18,1.5,2.4,1.36,9.48,1.2,13.67h0Z"/><path class="cls-13" d="M72.26,51.14c.26,6.87,.22,7.73,3.68,13.91,.71,.67-.49,4.74-.02,5.55,.59-.18,.65-.69,.65-1.38s-.06-1.57,.1-2.48c.02-.77,.65-1.36,.45-2.07l-2.64-6.24-.53-12.22-1.69,4.94m-.12-8.5l-4.33,14.48,1.36,1.77c.79-3.66,4.76-7.14,4.5-12.55-.69-1.42-.84-2.3-1.53-3.7m-25.69,12.43c.75,.71-.69,4.21-.16,6.92,.12,.94-1.4,1.48-1.81,1.71-.87-2.22-1.46-5.02-1.55-7.16l3.52-1.46"/><path class="cls-6" d="M47.65,55.51c-.31,3.46,0,7.55-.16,11.11-.06,1.32-.04,1.4-.1,2.01-.37,.85-.26,.65-.63,1.46-.24,.85-.12,.63-.61,1.12-1.48-.02-4.11,.49-4.21-.04-.12-1.02,.55-1.04,.73-1.24,.77-.45,1.57-.08,1.97-.85,.47-.55,.37-1.51,.33-2.28,.04-.71-.04-1-.14-1.59-.59-2.52-1.75-5.39-1.81-7.67-.61,.67,2.3-4.03,4.64-2.03h0Z"/><path class="cls-5" d="M45.82,38.16c.35-.43-11.55-3.32-7.51,17.17,0,.61-.12,1-.51,1.46-.85,1.22-2.16,2.89-3.64,4.56-.75,.83-1.1,1.79-1.93,2.58-.71,.81-.43,1.55-2.38,2.2-1.28,.59-3.4,.96-1.89,2.95,1.3,.26,1.91-.39,3.15-.85,1.12-.77,2.2,.08,2.32-1.4,.43-.98,2.56-2.05,3.52-2.73,1.89-1.38,3.88-2.6,6.02-4.68,1.38-.85,1.89-2.03,1.85-2.93,5.92-3.46,10.01,3.11,15.48-3.95,.2-.26,.47-.47,.47,.18-.81,3.5,3.21,8.26,2.85,11.84,0,.28-.08,.47-.22,.79-1.08,1.55-1.2,1.87-2.68,2.97-.71,.18-1.3-.12-2.4-.12-.77-.02-1.36,1.77-.85,1.99,.63,.28,.24-.77,.96-1.67-.14-.26-.53,1.4-.55,1.51,.06,.69,.94,.83,1.42,.51-.24-.35-.31-.57-.33-.92,.08-.35,.33-.59,.67-.63-.33-.08-.67,.37-.65,.63-.02,.53,.22,.79,.33,.96,.39,.14,1.73,.33,2.34-.12,1.73-1.34,3.58-2.68,5.13-4.31,.81-.35,1.06-1.14,.73-1.91,0-1.08-.53-2.34-.14-3.58,.77-5.21,4.52-10.05,5.04-14.52,.04-1.51,.02-2.85-.49-4.17-1.65-2.48-2.69-2.81-4.78-3.52-7.2-1.32-10.62,1.12-16.45,.83-3.13-.14-3.26-1.12-4.86-1.12h0Z"/><path class="cls-5" d="M75.5,60.27c1.04,1.08,1.4,2.16,1.71,2.42s.43,1.08,.31,1.36c-1.4-.71-1.75-2.22-2.01-3.78h0Z"/><path class="cls-5" d="M29.43,36.63c.18-.14-1.81,.12-2.32-2.5-1.02,0-4.25,2.38-4.47,3.32-.14,.96-.35,1.12-.89,2.01-.85,.85-1.93,1.99-1.83,2.18-.16,.71,.22,1.18,.59,1.38,.2,.85,.39,1.18,.89,1.79,1,.81,2.56,1.06,3.99-.57,.18-.39,.63,.35,.63,.81,2.54-2.18,3.38-8.12,3.42-8.42Z"/><path class="cls-12" d="M20.5,43.02c.2,.85,.39,1.18,.89,1.79,1,.81,2.56,1.06,3.99-.57,.18-.39,.63,.35,.63,.81-.39-3.27-3.84,1.67-5.51-2.03Z"/><path class="cls-12" d="M45.82,38.16c.35-.43-11.57-3.32-7.51,17.17,1.67,1.97,1.1-6.79,5.31-10.19,3.52-3.27,7.83-2.56,7.04-5.86-3.13-.14-3.23-1.12-4.84-1.12m26.65,7.95c.06-1.53-.08-2.83-.59-4.15-1.63-2.48-2.66-2.79-4.76-3.52-2.77-.2-4.54-.49-3.32,3.21,2.24,5.96,6.39,3.3,1.95,19.4,.14-1.59,1.34-.55,2.32-3.62,.57-1.14,1.59-3.76,1.85-4.35,.59-1.02,1.96-4.23,2.54-6.98m-27.66,10.37c5.94-3.48,10.01,3.11,15.48-3.95,.2-.26,.47-.47,.47,.18-.06-.26,.14-2.26,.41-2.75,1.12-6.2-8.44,7.38-15.82,.49-.83,.61,.45,4.03-.53,6.02m-16.86,12.57c1.3,.28,1.91-.39,3.17-.83,1.1-.77,2.2,.06,2.32-1.4,.43-1,2.54-2.05,3.5-2.75,1.91-1.36,3.91-2.6,6.04-4.66,1.38-.87,1.87-2.03,1.83-2.93-1.14,1.08-1.91,2.12-3.78,3.23-1.53,1.16-1.63,2.42-4.03,3.32-1.73,.94-3.05,2.66-4.54,3.7-1.83,.16-2.26,1.48-4.52,2.32m31.32,1.49c-.87-1.22-.71-.89,.02,.02,.39,.16,1.73,.35,2.34-.12,1.75-1.34,3.58-2.66,5.13-4.29,.81-.35,1.06-1.14,.71-1.91-4.19,5.96-8.95,4.05-8.2,6.31M29.43,36.63c.16-.14-1.81,.12-2.32-2.5-.12,.31-.14,.63-.14,.94,0,.33-1.95,.31-2.48,1.95,.81,.59,2.64-.73,2.6-.47-.06,.24-.26,.67-.49,.83-2.16,.89-.57,5.59-.59,7.67,2.52-2.18,3.36-8.12,3.42-8.42"/><path class="cls-4" d="M25.44,44.18c-.67,.81-1.83,1.79-3.68,.89-.12,.14-.08,.37-.08,.67,0,.16,.04,.41,.04,.57l.26,.53,.14-.14c.12,0,.22,.45,.35,.45l.22,.08,.35-.06c.1,0,.14,.04,.26,.04l.33-.14,.1-.31,.08-.1,.22-.04c0-.28,.12-.16,.24-.16,0,0-.04-.16,.14-.26s.18-.14,.28-.26c.08-.12,.02-.12,.1-.18,.08-.04,.22-.08,.47-.08l.26-.51,.1-.2,.26-.31c0-.16-.14-.31-.14-.31l-.33-.16Z"/><path class="cls-3" d="M65.72,60.78c0,2.2,.49,1.91,.49,3.15,.1,.71-.08,1.24-.65,1.69-.81,.81-.98,.98-1.14,1.24"/><path class="cls-7" d="M69.92,39.58c4.64,2.83,5.53,7.59,4.88,13.75,0,2.5,.41,6.69,1.28,8.77,.55,1.16,1.42,1.97,2.26,2.95,0,.31,.1,.83,0,1.14-.45-.22-.75-.81-.88-.81-.83-.73-3.27-4.31-3.72-7.3-.51-2.14,.18-2.14-.28-8.69-.1-2.5-.28-4.47-1.1-6.02-.06-.49-.49-2.03-2.44-3.78h0Z"/><path class="cls-3" d="M44.93,44.61c.81,3.44-.94,9.74-.08,11.82"/><path class="cls-13" d="M48.28,55.37c4.19,.04,7.91,2.66,12.39-3.19-6.16,4.76-8.1,2.66-12.39,3.19h0Z"/><path class="cls-1" d="M27.58,68.38c.02-.75,.49-1,1-1.28"/><path class="cls-1" d="M27.86,68.87c-.12-.57,.43-1.16,.89-1.46"/><path class="cls-13" d="M44.93,44.67c.69,3.76-.89,10.01-.04,11.76,1.63-1,3.52-1.1,5.08-1-6.88,.12-4.01-9.13-5.05-10.76h0Z"/><path class="cls-13" d="M60.49,52.09c.87-2.83,1.14-6.94,.77-8.42l.35,.49c.1,3.4,0,4.58-.69,7.32-.1,.28-.24,.47-.43,.61h0Z"/><path class="cls-9" d="M25.87,31.65c0-.16-.1-.65-.04-1.3,.73,.69,1.42,.96,2.42,1.14-.59,.04-1.26-.92-1.08-1.57,.22,.37,1.69,1.53,2.87,1.44,1.71-.35,1.53-1.44,1.48-1.73,.59,.85,.94,1.95,.85,2.64,.65-.22,1.59-.96,2.68,.18,1.53,.14,1.63,.51,2.28,.77,.53-.04,2.99,1.18,4.09,1.61,.02,.12-.24,.12-.61,.18,1.75,1.32,3.86,.33,5.37,3.6-.92-1.32-2.62-.33-3.48-.53,.04,.57-.08,2.52-.24,3.32-.14-.47-.41-1.42-.69-1.81,.35,.57,.53,4.52,1.38,5.29-.59-.35-.88-.45-1.53-1-.02,1.26-.45,2.03-.73,2.66-.08-.22-.26-.77-.41-1.16-.14,.06-.24,.31-.37,.35-.04,.28-.04,.63-.04,.73,.37,1.18,.04,3.3-1.4,5.06,.02-.35,.24-1.26,0-1.46-.75,2.83-.39,6.02-3.03,8.93,.2-.59,.57-2.3,.43-2.46-.08,.06-.53,1.51-.87,1.81-.18-.63-.79-5.23-1.04-6.31-.31,.55,.06,4.52,.69,5.43-.75-.57-2.87-3.46-2.99-4.82-.51,.47-.67,.83-1.48,1.57,.06-.73,.41-4.37,.26-4.72,.16-.96-.45,2.38-1.71,2.77,.12-.73,.73-5.11,.49-6.02-.08,.35-.79,1.83-.81,3.13-.61-.59-.71-2.71-.55-3.68-.45,.96-1.22,2.14-2.07,2.89,.89-2.36-1.06-9.64,1.61-11.57-.1-.37-.24-.85-.35-1.44-2.07,1.44-2.3,.67-2.46,1.34,0-.67,.31-.87,.85-1.28-.14-.04-.31-.04-.94,.04-.22-.14,.81-1.22,1.97-1.81-.96-.08-2.64,2.38-4.27,1.77,1.18-.83,3.23-2.81,4.01-2.79-.79-.18-1.79-.98-2.89-.75-.04-.31,1.55-.79,2.34-.45h0Z"/><path class="cls-5" d="M27.33,34.99c.02-.87,.75-1.22,.77-1.73,.14-.83,.96-.41,1.12,0,.45,.57,.14,.65,.55,1.12,.31,.94-.14,1.46-.37,2.16-.55,.67-1.81,.77-2.07-1.55Z"/><path class="cls-14" d="M23.21,39.28c-.14,.04-1.55,1.26-1.59,1.65,0,.04-.02,.02,.06,.02,.06-.37,1.06-1.2,1.59-1.65-.04,0,0,.02-.06-.02m.26-1.08c-.41,.1-.24,.83-.04,.87,.18-.12,.61-.51,.85-.65-.22-.06-.51-.12-.81-.22m4.52-3.17c.02-.18-.22-.39-.37-.55,.1,0,.69,.55,.67,.51,0-.06-.08-.18-.08-.22-.16-.24-.16-.59-.16-.96,.06,.2,.04,.73,.2,.87,.12-.12,.16-.83,.16-1.02,.12-.04-.02,.51,.08,.69,0-.31,.12-.83,.35-1.06-.02,.28-.28,.59-.08,.79,.08-.08,.18-.28,.24-.37,.14,.2-.2,.41-.14,.61,.26,0,.22-.2,.41-.2,0,.18-.59,.37-.43,.51,.06,.12,.55-.31,.71-.08-.57,.08-.83,.31-.61,.28h.28c.24,.02,.2,.22,.43,.31-.39,.06-.55-.24-.65-.18-.02,.1,.12,.37,.26,.49-.28-.04-.45-.55-.59-.39,.26,.37,.1,.61,.47,.79,.04,0,.26,.24,.26,.28-.31-.22-.61-.39-.73-.37,0,.2,.45,.31,.41,.53-.04-.04-.1-.08-.14-.12,0,.08,.04,.18,.04,.26-.49-.67-.73-.31-.65-.83v-.16c-.06,0-.47,.31-.04-.1-.18-.1-.31,.18-.49,.06,.08-.1,.18-.22,.18-.39m-7.02,6.87c-.49,.24-.63,.24-1.1-.14-.1,.39,.22,1.1,.61,1.26,0-.2,.16-.77,.49-1.12m3.72,1.08s.08,.04,.08,.08-.04,.08-.08,.08c-.06,0-.08-.04-.08-.08s.02-.08,.08-.08m-.67,.31c.06,0,.08,.04,.08,.08,0,.06-.02,.08-.08,.08-.04,0-.06-.02-.06-.08,0-.04,.02-.08,.06-.08m-.75,.26c.06,0,.08,.02,.08,.08,0,.04-.02,.06-.08,.06-.04,0-.06-.02-.06-.06,0-.06,.02-.08,.06-.08m-.85,.24c.06,0,.1,.02,.1,.08,0,.04-.04,.08-.1,.08-.04,0-.06-.04-.06-.08,0-.06,.02-.08,.06-.08m1.81,.47c.06,0,.1,.02,.1,.08,0,.04-.04,.06-.1,.06-.04,0-.06-.02-.06-.06,0-.06,.02-.08,.06-.08m-.71,.2c.06,0,.08,.04,.08,.08s-.02,.08-.08,.08c-.04,0-.08-.04-.08-.08s.04-.08,.08-.08m.89-.85c.06,0,.1,.02,.1,.08,0,.04-.04,.06-.1,.06-.04,0-.06-.02-.06-.06,0-.06,.02-.08,.06-.08m-.71,.26c.06,0,.08,.02,.08,.08,0,.04-.02,.06-.08,.06-.04,0-.08-.02-.08-.06,0-.06,.04-.08,.08-.08m-.65,.16s.08,.02,.08,.08c0,.04-.04,.08-.08,.08-.06,0-.08-.04-.08-.08,0-.06,.02-.08,.08-.08m.61-7.14c-.08,.16-.41,.49-.2,1.14-.26-.24,0-1.1,.2-1.14m.67,3.8c.71,.63,1.36,1.3,.96,2.64,.08,0,.06,0,.12-.04,.45-1.57-.63-2.48-1.04-2.62,.06,0-.12,.02-.04,.02m.41,4.66c.28-.22,.26-.57,.75-1.16-.04,0-.06,.02-.1,.02-.92,1.14-1.89,1.26-2.54,1.22-.39-.02-.81-.22-1.1-.35,.57,.63,2.34,.83,2.99,.26m53.64,20.52l-.28-.04c-.1-.02-.37-.2-.47-.37-.1,0-.08-.2-.2-.2,0,.47,.26,.85,.37,1.34l.35,.33c.1,.47,.53,.94,.53,1.42l.22,.33c0,.31,.12,.47,.12,.77l.33,.47c0,.49,.33,.98,.55,1.28h.67l.22-.31v-1.61l-.12-.14v-.63c-.2-.33-.87-1.59-.87-2.07l-1.46-1.46,.06,.9"/><path class="cls-2" d="M68.07,57.48c-1.1,3.01-2.09,2.09-2.3,3.4-.24,1.61,.79,2.5,.33,4.07,.61,.2,.12,1.48,.71,1.2,.89-.45,.98-1.44,.67-1.89,0-1.22-.37-1.89-.28-2.95,.12-1.26,.49-2.38,.87-3.82h0Z"/><path class="cls-3" d="M23.23,39.22c.31-.18,.81-.67,1.06-.77l-1.1-.33"/></g><g><path class="cls-11" d="M86.84,73.92c.21,.31,.46,.59,.75,.86,.03,1.41-2.12,2.27-2.76-1.1,.18,.63,.37,1.31,.9,1.72,.34,.27,.81,.29,1.19,.12-.26-.07-.53-.15-.75-.32-.65-.48-1-1.41-1.17-2.39,.9-.34,1.84-.48,2.57-.14,.25,.11,.45,.31,.64,.51-.06-.43-.3-.85-.7-1.02-.61-.27-1.27-.1-1.88,.05,3.12-1.11,3.47,1.26,2.29,1.94-.36-.13-.73-.21-1.09-.25ZM50.16,7.76c.15-.35,.26-.71,.34-1.1,1.16-.73,2.95,.77,.47,3.03,.43-.48,.91-.99,.98-1.67,.06-.44-.17-.87-.5-1.14,.07,.27,.14,.55,.11,.83-.08,.83-.67,1.61-1.4,2.25-.73-.64-1.32-1.42-1.4-2.25-.03-.28,.04-.56,.11-.83-.33,.27-.55,.7-.5,1.14,.08,.68,.55,1.2,.98,1.67-2.48-2.26-.69-3.76,.47-3.03,.07,.39,.19,.76,.34,1.1h0ZM13.48,73.92c-.36,.04-.72,.12-1.09,.25-1.18-.68-.83-3.05,2.29-1.94-.61-.15-1.28-.32-1.88-.05-.4,.17-.64,.59-.7,1.02,.19-.2,.39-.4,.64-.51,.73-.34,1.67-.2,2.57,.14-.17,.98-.52,1.9-1.17,2.39-.22,.17-.49,.25-.75,.32,.39,.17,.85,.15,1.19-.12,.53-.41,.72-1.1,.9-1.72-.64,3.37-2.78,2.5-2.76,1.1,.29-.26,.54-.55,.75-.86Zm70.27-1.86c-.27,1.7-.21,3.25,.45,4.38,1.02,1.8,3.48,.65,3.85-1.34,.47,.23,.99,.48,1.62,.51-.34-.56-.81-.9-1.24-1.21,1.46-1.33,1.19-4.12-.81-4.14-1.27-.02-2.59,.69-3.87,1.79h0ZM50.16,11.48c1.55-.61,2.81-1.44,3.42-2.59,.99-1.82-1.2-3.46-3.03-2.8-.04-.54-.1-1.13-.39-1.72-.29,.59-.35,1.18-.39,1.72-1.83-.66-4.02,.98-3.03,2.8,.62,1.16,1.87,1.99,3.42,2.59h0ZM16.57,72.06c-1.28-1.1-2.6-1.81-3.87-1.79-2,.02-2.28,2.81-.81,4.14-.43,.31-.89,.65-1.24,1.21,.63-.03,1.15-.27,1.62-.51,.37,1.98,2.83,3.13,3.85,1.34,.65-1.13,.72-2.68,.45-4.38h0Z"/><path class="cls-11" d="M76.49,80.27c-2.85,.3-7.23,2.32-10.37,3.87,1.72-.55,9.18-4.27,12.31-1.59,.35,.29,.55,.71,.64,1.15,.33-.78,.06-1.75-1.9-2.2,3.08,.43,2.84,2.78,1.19,2.9-5.12-6.23-25.28,4.35-27.08,14.02-.87,4.83,3.97,5.1,4.81,2.73,.36-1.01-.73-1.84-1.51-1.3-.34,.21-.4,.77-.13,1.06,.08,.1,.2,.08,.31,.09-.9,1.13-2.42-.11-2.76-1.72-.83-3.86,4.74-8.55,8-10.69,1.95-1.22,3.61-.47,2.63,.61-.06-1.11-1.37-.48-1.11,.38,.29,.85,1.56,.71,1.99-.18,.56-1.07-.02-1.89-.92-1.89-.36-.03-.71,.08-1.06,.16,1.97-1.01,4.61-1.79,5.84,.11,.68,1.01-.56,1.7-1.26,1.1-.49,1-.19,1.61,.44,1.83,2.07,.76,3.86-2.52,1.52-4.07-1.29-.84-2.72-.77-4.13-.24,.23-.15,3.38-1.66,6.61-2.09,.51-.06,1.38,1.02-.47,1.41-.73,.17-1.84-.09-2.85,.02-.51,0-1.02,.06-1.53,.11-.03,.05,0,.15,.08,.08,4.91,.09,3.06,4.4,5.48,4.91-.84-.54-.72-.82-.51-1.85,.3-1.29-.14-2.24-1.22-2.82,1.54,.16,2.71-.73,2.71-1.57,2.35-.19,2.25,1.43,1.5,1.5,.16-.22,.16-.6-.13-.71-.39-.08-.74,.36-.68,.76,.02,.47,.54,.76,.95,.62,1.61-.56,1-2.75-1.72-2.46-.03-.03-.07-.08-.1-.1,1.69-.23,5.39,.52,5.89,3.09,.36,1.93-1.82,3.51-2.69,1.81,.18,.05,.36,.1,.54,.04,.34-.11,.6-.42,.73-.76,.34-.91-.54-1.35-1.04-1.27-1.18,.16-2.66,2.22-1.24,3.39,2.02,1.64,6.38-2.28,4.44-5.64,2.86-.66,3.56-5.18-2.18-4.6h0Z"/><path class="cls-11" d="M60.62,13.92c1.67,2.43,5.55,5.36,8.4,7.41-1.32-1.28-8.15-6.14-7.48-10.3,.07-.46,.32-.85,.64-1.15-.82,.1-1.48,.81-.88,2.81-1.18-2.99,.89-3.96,1.82-2.53-2.62,7.74,16.26,20.62,25.2,17.42,4.45-1.63,2.25-6.13-.13-5.7-1.02,.18-1.17,1.57-.33,2.02,.35,.2,.84-.02,.95-.42,.04-.12-.04-.22-.08-.32,1.39,.25,1.12,2.24-.05,3.35-2.79,2.67-9.48,0-12.89-1.87-1.99-1.15-2.2-3.02-.81-2.68-.9,.61,.28,1.48,.87,.81,.57-.68-.19-1.76-1.15-1.71-1.17,.03-1.56,.97-1.11,1.77,.16,.34,.43,.6,.66,.88-1.83-1.27-3.79-3.26-2.83-5.32,.5-1.12,1.7-.34,1.54,.59,1.07-.06,1.43-.64,1.31-1.31-.41-2.25-4.03-2.22-4.15,.66-.06,1.58,.72,2.84,1.87,3.85-.25-.13-3.07-2.22-5.04-4.91-.31-.43,.16-1.75,1.41-.28,.51,.58,.84,1.71,1.44,2.57,.25,.46,.56,.89,.86,1.32,.05,0,.13-.07,.03-.11-2.38-4.48,2.13-4.96,1.35-7.4-.03,1.03-.32,1.06-1.29,1.39-1.23,.38-1.79,1.25-1.73,2.51-.64-1.47-1.97-2.08-2.67-1.66-1.33-2.02,.07-2.75,.5-2.1-.27-.03-.58,.16-.53,.47,.13,.39,.67,.49,.97,.23,.38-.25,.36-.87,.04-1.17-1.27-1.18-2.79,.47-1.18,2.79,0,.04-.03,.11-.03,.14-1.03-1.41-2.26-5.12-.38-6.85,1.42-1.29,3.83-.12,2.85,1.52-.05-.18-.1-.38-.24-.51-.26-.25-.65-.34-.99-.28-.93,.15-.85,1.16-.54,1.58,.73,.99,3.18,1.29,3.44-.58,.35-2.64-5.09-4.61-6.91-1.18-1.98-2.25-6.08-.62-2.73,4.26h0Z"/><path class="cls-11" d="M13.37,61.41c1.18-2.72,1.69-7.68,1.96-11.28-.4,1.83-1.04,10.42-4.83,11.9-.41,.17-.86,.14-1.28,0,.49,.69,1.42,.93,2.78-.61-1.9,2.56-3.73,1.18-3.01-.38,7.74-1.5,9.02-24.98,1.89-31.44-3.58-3.2-6.22,1.03-4.67,2.97,.65,.83,1.89,.26,1.84-.71,0-.42-.44-.74-.82-.65-.12,.02-.17,.14-.23,.23-.49-1.38,1.31-2.13,2.81-1.63,3.62,1.18,4.75,8.55,4.89,12.56,.04,2.37-1.41,3.49-1.82,2.07,.96,.5,1.09-.99,.24-1.19-.85-.17-1.37,1.05-.85,1.89,.61,1.04,1.58,.92,2.03,.11,.2-.31,.29-.68,.4-1.04-.14,2.28-.81,5.05-3.01,5.21-1.18,.11-1.14-1.36-.28-1.68-.59-.94-1.25-.97-1.75-.52-1.67,1.49,.17,4.74,2.63,3.41,1.34-.74,2-2.07,2.27-3.61,.01,.29-.31,3.87-1.57,7-.2,.49-1.54,.73-.94-1.13,.23-.74,1-1.61,1.41-2.58,.26-.46,.46-.95,.67-1.44-.03-.05-.12-.08-.11,.03-2.53,4.39-5.19,.56-6.83,2.48,.87-.49,1.04-.24,1.8,.47,.93,.92,1.93,.99,2.96,.31-.9,1.31-.75,2.81-.05,3.23-1.01,2.21-2.32,1.31-1.99,.6,.1,.26,.42,.44,.66,.24,.26-.31,.07-.85-.29-.99-.4-.22-.91,.11-.99,.55-.35,1.73,1.78,2.28,2.91-.33,.03,0,.1-.03,.13-.04-.65,1.63-3.13,4.6-5.51,3.76-1.79-.64-2.01-3.39-.16-3.33-.13,.14-.26,.28-.3,.47-.08,.36,.04,.75,.26,1.04,.59,.76,1.39,.19,1.58-.31,.46-1.15-.52-3.51-2.2-2.81-2.37,1.01-1.29,6.9,2.48,6.82-.88,2.91,2.53,5.8,4.91,.33h0Z"/><path class="cls-11" d="M23.83,80.27c2.85,.3,7.23,2.32,10.37,3.87-1.72-.55-9.18-4.27-12.31-1.59-.35,.29-.55,.71-.64,1.15-.33-.78-.06-1.75,1.9-2.2-3.08,.43-2.84,2.78-1.19,2.9,5.12-6.23,25.28,4.35,27.08,14.02,.87,4.83-3.97,5.1-4.81,2.73-.36-1.01,.73-1.84,1.51-1.3,.34,.21,.4,.77,.13,1.06-.08,.1-.2,.08-.31,.09,.9,1.13,2.42-.11,2.76-1.72,.83-3.86-4.74-8.55-8-10.69-1.95-1.22-3.61-.47-2.63,.61,.06-1.11,1.37-.48,1.11,.38-.29,.85-1.56,.71-1.99-.18-.56-1.07,.02-1.89,.92-1.89,.36-.03,.71,.08,1.06,.16-1.97-1.01-4.61-1.79-5.84,.11-.68,1.01,.56,1.7,1.26,1.1,.49,1,.19,1.61-.44,1.83-2.07,.76-3.86-2.52-1.52-4.07,1.29-.84,2.72-.77,4.13-.24-.23-.15-3.38-1.66-6.61-2.09-.51-.06-1.38,1.02,.47,1.41,.73,.17,1.84-.09,2.85,.02,.51,0,1.02,.06,1.53,.11,.03,.05,0,.15-.08,.08-4.91,.09-3.06,4.4-5.48,4.91,.84-.54,.72-.82,.51-1.85-.3-1.29,.14-2.24,1.22-2.82-1.54,.16-2.71-.73-2.71-1.57-2.35-.19-2.25,1.43-1.5,1.5-.16-.22-.16-.6,.13-.71,.39-.08,.74,.36,.68,.76-.02,.47-.54,.76-.95,.62-1.61-.56-1-2.75,1.72-2.46,.03-.03,.07-.08,.1-.1-1.69-.23-5.39,.52-5.89,3.09-.36,1.93,1.82,3.51,2.69,1.81-.18,.05-.36,.1-.54,.04-.34-.11-.6-.42-.73-.76-.34-.91,.54-1.35,1.04-1.27,1.18,.16,2.66,2.22,1.24,3.39-2.02,1.64-6.38-2.28-4.44-5.64-2.86-.66-3.56-5.18,2.18-4.6h0Z"/><path class="cls-11" d="M86.95,61.41c-1.18-2.72-1.69-7.68-1.96-11.28,.4,1.83,1.04,10.42,4.83,11.9,.41,.17,.86,.14,1.28,0-.49,.69-1.42,.93-2.78-.61,1.9,2.56,3.73,1.18,3.01-.38-7.74-1.5-9.02-24.98-1.89-31.44,3.58-3.2,6.22,1.03,4.67,2.97-.65,.83-1.89,.26-1.84-.71,0-.42,.44-.74,.82-.65,.12,.02,.17,.14,.23,.23,.49-1.38-1.31-2.13-2.81-1.63-3.62,1.18-4.75,8.55-4.89,12.56-.04,2.37,1.41,3.49,1.82,2.07-.96,.5-1.09-.99-.24-1.19,.85-.17,1.37,1.05,.85,1.89-.61,1.04-1.58,.92-2.03,.11-.2-.31-.29-.68-.4-1.04,.14,2.28,.81,5.05,3.01,5.21,1.18,.11,1.14-1.36,.28-1.68,.59-.94,1.25-.97,1.75-.52,1.67,1.49-.17,4.74-2.63,3.41-1.34-.74-2-2.07-2.27-3.61-.01,.29,.31,3.87,1.57,7,.2,.49,1.54,.73,.94-1.13-.23-.74-1-1.61-1.41-2.58-.26-.46-.46-.95-.67-1.44,.03-.05,.12-.08,.11,.03,2.53,4.39,5.19,.56,6.83,2.48-.87-.49-1.04-.24-1.8,.47-.93,.92-1.93,.99-2.96,.31,.9,1.31,.75,2.81,.05,3.23,1.01,2.21,2.32,1.31,1.99,.6-.1,.26-.42,.44-.66,.24-.26-.31-.07-.85,.29-.99,.4-.22,.91,.11,.99,.55,.35,1.73-1.78,2.28-2.91-.33-.03,0-.1-.03-.13-.04,.65,1.63,3.13,4.6,5.51,3.76,1.79-.64,2.01-3.39,.16-3.33,.13,.14,.26,.28,.3,.47,.08,.36-.04,.75-.26,1.04-.59,.76-1.39,.19-1.58-.31-.46-1.15,.52-3.51,2.2-2.81,2.37,1.01,1.29,6.9-2.48,6.82,.88,2.91-2.53,5.8-4.91,.33h0Z"/><path class="cls-11" d="M39.7,13.92c-1.67,2.43-5.55,5.36-8.4,7.41,1.32-1.28,8.15-6.14,7.48-10.3-.07-.46-.32-.85-.64-1.15,.82,.1,1.48,.81,.88,2.81,1.18-2.99-.89-3.96-1.82-2.53,2.62,7.74-16.26,20.62-25.2,17.42-4.45-1.63-2.25-6.13,.13-5.7,1.02,.18,1.17,1.57,.33,2.02-.35,.2-.84-.02-.95-.42-.04-.12,.04-.22,.08-.32-1.39,.25-1.12,2.24,.05,3.35,2.79,2.67,9.48,0,12.89-1.87,1.99-1.15,2.2-3.02,.81-2.68,.9,.61-.28,1.48-.87,.81-.57-.68,.19-1.76,1.15-1.71,1.17,.03,1.56,.97,1.11,1.77-.16,.34-.43,.6-.66,.88,1.83-1.27,3.79-3.26,2.83-5.32-.5-1.12-1.7-.34-1.54,.59-1.07-.06-1.43-.64-1.31-1.31,.41-2.25,4.03-2.22,4.15,.66,.06,1.58-.72,2.84-1.87,3.85,.25-.13,3.07-2.22,5.04-4.91,.31-.43-.16-1.75-1.41-.28-.51,.58-.84,1.71-1.44,2.57-.25,.46-.56,.89-.86,1.32-.05,0-.13-.07-.03-.11,2.38-4.48-2.13-4.96-1.35-7.4,.03,1.03,.32,1.06,1.29,1.39,1.23,.38,1.79,1.25,1.73,2.51,.64-1.47,1.97-2.08,2.67-1.66,1.33-2.02-.07-2.75-.5-2.1,.27-.03,.58,.16,.53,.47-.13,.39-.67,.49-.97,.23-.38-.25-.36-.87-.04-1.17,1.27-1.18,2.79,.47,1.18,2.79,0,.04,.03,.11,.03,.14,1.03-1.41,2.26-5.12,.38-6.85-1.42-1.29-3.83-.12-2.85,1.52,.05-.18,.1-.38,.24-.51,.26-.25,.65-.34,.99-.28,.93,.15,.85,1.16,.54,1.58-.73,.99-3.18,1.29-3.44-.58-.35-2.64,5.09-4.61,6.91-1.18,1.98-2.25,6.08-.62,2.73,4.26h0Z"/><path class="cls-11" d="M53.41,98.7c-.39,.59-.4,1.23,.2,1.59,.05-.24,.08-.48,.21-.69,.84-1.43,3.66-.24,2.31,1.93-.79,1.29-2.57,1.92-4.07,.62,.58,.73,1.51,1.16,2.42,1.09,.34-.02,.67-.16,1.01-.11,.57,.11,.63,.54,.31,.77-.01-.11,.02-.26-.09-.33-.11-.13-.3-.04-.38,.07-.19,.19-.08,.55,.15,.65,.73,.31,1.47-1.15,.12-1.41,.56-.35,1.03-.86,1.29-1.48,1.06-2.56-2.26-4.49-3.5-2.7h0Z"/><path class="cls-11" d="M87.48,25.52c.68,.06,1.23-.25,1.23-.97-.22,.08-.44,.17-.68,.15-1.61-.04-2.04-3.18,.45-3.05,1.47,.06,2.88,1.36,2.55,3.36,.32-.89,.21-1.94-.3-2.72-.18-.3-.47-.53-.6-.86-.19-.57,.14-.84,.49-.67-.09,.07-.23,.11-.23,.24-.05,.16,.11,.29,.25,.31,.25,.08,.5-.2,.46-.46-.1-.81-1.7-.75-1.24,.6-.57-.33-1.23-.5-1.88-.42-2.66,.32-2.6,4.28-.49,4.51h0Z"/><path class="cls-11" d="M9.59,31.38c-.29-.64-.82-.98-1.42-.62,.17,.16,.36,.32,.46,.54,.77,1.47-1.63,3.43-2.76,1.12-.68-1.36-.31-3.27,1.52-3.98-.9,.16-1.72,.78-2.11,1.64-.16,.32-.2,.69-.42,.97-.38,.46-.76,.3-.8-.1,.1,.05,.2,.15,.32,.09,.16-.04,.19-.25,.13-.38-.06-.27-.42-.35-.62-.19-.62,.5,.22,1.9,1.12,.81,0,.68,.2,1.36,.59,1.91,1.6,2.24,4.86,.21,3.99-1.81h0Z"/><path class="cls-11" d="M46.91,98.7c.39,.59,.4,1.23-.2,1.59-.05-.24-.08-.48-.21-.69-.84-1.43-3.66-.24-2.31,1.93,.79,1.29,2.57,1.92,4.07,.62-.58,.73-1.51,1.16-2.42,1.09-.34-.02-.67-.16-1.01-.11-.57,.11-.63,.54-.31,.77,.01-.11-.02-.26,.09-.33,.11-.13,.3-.04,.38,.07,.19,.19,.08,.55-.15,.65-.73,.31-1.47-1.15-.12-1.41-.56-.35-1.03-.86-1.29-1.48-1.06-2.56,2.26-4.49,3.5-2.7h0Z"/><path class="cls-11" d="M90.73,31.38c.29-.64,.82-.98,1.42-.62-.17,.16-.36,.32-.46,.54-.77,1.47,1.63,3.43,2.76,1.12,.68-1.36,.31-3.27-1.52-3.98,.9,.16,1.72,.78,2.11,1.64,.16,.32,.2,.69,.42,.97,.38,.46,.76,.3,.8-.1-.1,.05-.2,.15-.32,.09-.16-.04-.19-.25-.13-.38,.06-.27,.42-.35,.62-.19,.62,.5-.22,1.9-1.12,.81,0,.68-.2,1.36-.59,1.91-1.6,2.24-4.86,.21-3.99-1.81h0Z"/><path class="cls-11" d="M12.84,25.52c-.68,.06-1.23-.25-1.23-.97,.22,.08,.44,.17,.68,.15,1.61-.04,2.04-3.18-.45-3.05-1.47,.06-2.88,1.36-2.55,3.36-.32-.89-.21-1.94,.3-2.72,.18-.3,.47-.53,.6-.86,.19-.57-.14-.84-.49-.67,.09,.07,.23,.11,.23,.24,.05,.16-.11,.29-.25,.31-.25,.08-.5-.2-.46-.46,.1-.81,1.7-.75,1.24,.6,.57-.33,1.23-.5,1.88-.42,2.66,.32,2.6,4.28,.49,4.51h0Z"/><path class="cls-11" d="M82.98,71.6c-.38,.79-.71,1.5-.81,1.82-1,2.57-3.33,4.71-5.44,5.45-1.1,.51-4.52,2.42-4.54,2.44,4.73-2.22,7.83-.75,7.92-2.85-.6,1.1-1.11,.55-2.4,.28,2.15-.51,4.01-2.5,4.46-4.65,.32,1.54,.71,1.79-.22,2.49,.35-.01,.68-.21,.86-.51,.47-.77,.31-1.98,.73-4.12,1.57-1.45,2.66-1.91,3.06-2.72,.16-.32,.16-.72,0-1.04-.12,1.19-.51,.96-1.96,1.44,1.57-1.49,2.29-4.16,1.64-6.35,.86,1.02,1.57,1.21,.96,2.3,1.7-1.12-1.08-3.18-1.59-8.56,0,.04,.11,4.08,.24,5.32,.44,2.28-.17,5.45-1.81,7.63-.21,.25-.64,.9-1.11,1.64h0Z"/><path class="cls-11" d="M17.34,71.6c-.47-.74-.89-1.39-1.11-1.64-1.64-2.19-2.25-5.36-1.81-7.63,.13-1.24,.24-5.28,.24-5.32-.52,5.38-3.29,7.44-1.59,8.56-.61-1.09,.1-1.28,.96-2.3-.65,2.19,.07,4.87,1.64,6.35-1.44-.48-1.84-.25-1.96-1.44-.16,.32-.17,.72,0,1.04,.4,.81,1.49,1.27,3.06,2.72,.42,2.15,.26,3.35,.73,4.12,.19,.31,.52,.5,.86,.51-.93-.7-.54-.95-.22-2.49,.45,2.16,2.31,4.15,4.46,4.65-1.28,.27-1.79,.82-2.4-.28,.08,2.1,3.19,.62,7.92,2.85-.03-.02-3.45-1.94-4.54-2.44-2.11-.74-4.44-2.88-5.44-5.45-.1-.32-.43-1.03-.81-1.82h0Z"/><path class="cls-11" d="M50.16,12.39c.85-.05,1.6-.11,1.92-.18,2.64-.38,5.58,.65,7.25,2.18,.97,.74,4.27,2.86,4.3,2.88-4.21-3.15-4.54-6.69-6.33-5.72,1.21,0,1.01,.73,1.43,2.02-1.5-1.69-4.08-2.37-6.1-1.7,1.12-1.06,1.13-1.53,2.18-1.04-.18-.31-.51-.51-.86-.52-.88-.04-1.8,.71-3.8,1.4-2-.69-2.92-1.45-3.8-1.4-.35,.01-.68,.22-.86,.52,1.05-.49,1.06-.02,2.18,1.04-2.02-.67-4.6,.01-6.1,1.7,.42-1.29,.22-2.02,1.43-2.02-1.79-.97-2.11,2.56-6.33,5.72,.03-.02,3.33-2.14,4.3-2.88,1.67-1.54,4.62-2.57,7.25-2.18,.32,.07,1.07,.13,1.92,.18h0Z"/><path class="cls-11" d="M50.16,103.6c.74,0,1.45-.16,2.05-.52-.75-.56-2.07-1.48-1.59-4.09,.63-3.55,3.96-7.4,6.57-9.83,8.16-7.33,15.13-5.25,23.7-15.68,.57-.7,1.11-1.42,1.61-2.18,.38-.83,.71-1.68,1-2.54,4.39-12.94-.83-18.18,1.19-29.21,.71-3.57,2.24-8.5,4.88-10.84,1.94-1.74,3.36-1,4.2-.61,0-.72-.23-1.44-.6-2.11-.38-.67-.86-1.22-1.46-1.6-.09,.96-.19,2.6-2.6,3.48-3.27,1.21-8.14,.12-11.46-1.02-10.18-3.69-11.93-11.02-24.89-13.53-.87-.17-1.74-.29-2.62-.37-.88,.08-1.75,.2-2.62,.37-12.96,2.51-14.71,9.84-24.89,13.53-3.32,1.14-8.19,2.22-11.46,1.02-2.41-.88-2.51-2.53-2.6-3.48-.6,.37-1.08,.93-1.46,1.6-.37,.68-.59,1.39-.6,2.11,.84-.39,2.26-1.13,4.2,.61,2.64,2.35,4.17,7.28,4.88,10.84,2.02,11.03-3.2,16.27,1.19,29.21,.29,.87,.63,1.71,1,2.54,.5,.75,1.04,1.48,1.61,2.18,8.57,10.43,15.54,8.35,23.7,15.68,2.61,2.43,5.94,6.27,6.57,9.83,.48,2.61-.84,3.53-1.59,4.09,.61,.35,1.31,.51,2.05,.52h0Zm31.37-32.88c-2.02,3.02-5.09,6.08-7.75,7.83-5.71,3.9-11.56,3.96-18.88,11.25-1.76,1.89-3.66,4.24-4.74,6.76-1.08-2.52-2.98-4.88-4.74-6.76-7.32-7.29-13.17-7.35-18.88-11.25-2.65-1.75-5.73-4.8-7.75-7.83-1.5-3.33-2.51-7.63-2.64-10.9-.38-7.1,2.49-12.41,.09-22.65-.69-2.53-1.7-5.42-3.26-7.66,2.64,.29,5.55-.25,8-.89,9.72-2.96,12.7-8.2,18.79-11.4,2.78-1.52,6.86-2.76,10.38-3.07,3.52,.31,7.6,1.56,10.38,3.07,6.1,3.2,9.07,8.45,18.79,11.4,2.45,.64,5.36,1.18,8,.89-1.56,2.23-2.57,5.13-3.26,7.66-2.4,10.25,.47,15.55,.09,22.65-.13,3.27-1.13,7.57-2.64,10.9h0Z"/><path class="cls-11" d="M52.28,98.85c.2,.27,.61,.13,.74-.14,.12-.2,.05-.51-.18-.59-.38-.15-.82,.38-.57,.73h0Z"/><path class="cls-11" d="M88.17,26.46c.13-.32-.2-.62-.49-.6-.23,0-.44,.21-.4,.45,.06,.42,.72,.55,.89,.14h0Z"/><path class="cls-11" d="M10.03,30.28c-.33,.04-.41,.49-.25,.74,.11,.21,.4,.3,.58,.14,.32-.27,.09-.93-.33-.88Z"/><path class="cls-11" d="M48.04,98.85c-.2,.27-.61,.13-.74-.14-.12-.2-.05-.51,.18-.59,.38-.15,.82,.38,.57,.73h0Z"/><path class="cls-11" d="M90.29,30.28c.33,.04,.41,.49,.25,.74-.11,.21-.4,.3-.58,.14-.32-.27-.09-.93,.33-.88Z"/><path class="cls-11" d="M12.15,26.46c-.13-.32,.2-.62,.49-.6,.23,0,.44,.21,.4,.45-.06,.42-.72,.55-.89,.14Z"/><path class="cls-11" d="M53.01,97.65c.08-.17,.01-.41-.17-.47-.33-.13-.7,.32-.49,.63,.18,.25,.58,.12,.66-.16Z"/><path class="cls-11" d="M86.81,26.4c-.18,.01-.35,.19-.31,.39,.05,.36,.61,.47,.77,.13,.12-.29-.19-.58-.46-.52h0Z"/><path class="cls-11" d="M10.66,31.55c.1,.16,.33,.21,.47,.08,.27-.23,.09-.79-.27-.75-.3,.04-.38,.46-.2,.67h0Z"/><path class="cls-11" d="M47.31,97.65c-.08-.17-.01-.41,.17-.47,.33-.13,.7,.32,.49,.63-.18,.25-.58,.12-.66-.16Z"/><path class="cls-11" d="M89.66,31.55c-.1,.16-.33,.21-.47,.08-.27-.23-.09-.79,.27-.75,.3,.04,.38,.46,.2,.67h0Z"/><path class="cls-11" d="M13.52,26.4c.18,.01,.35,.19,.31,.39-.05,.36-.61,.47-.77,.13-.12-.29,.19-.58,.46-.52Z"/><path class="cls-11" d="M53.24,96.75c.08-.15,.04-.38-.12-.44-.3-.15-.67,.27-.48,.55,.15,.24,.5,.12,.6-.11Z"/><path class="cls-11" d="M85.95,26.65c-.16,0-.33,.15-.31,.33,.02,.34,.56,.47,.7,.16,.13-.25-.15-.51-.39-.49h0Z"/><path class="cls-11" d="M11.3,32.2c.08,.14,.29,.23,.43,.11,.28-.19,.11-.73-.22-.71-.27,.01-.35,.4-.21,.6Z"/><path class="cls-11" d="M47.09,96.75c-.08-.15-.04-.38,.12-.44,.3-.15,.67,.27,.48,.55-.15,.24-.5,.12-.6-.11Z"/><path class="cls-11" d="M89.02,32.2c-.08,.14-.29,.23-.43,.11-.28-.19-.11-.73,.22-.71,.27,.01,.35,.4,.21,.6Z"/><path class="cls-11" d="M14.38,26.65c.16,0,.33,.15,.31,.33-.02,.34-.56,.47-.7,.16-.13-.25,.15-.51,.39-.49h0Z"/><path class="cls-11" d="M53.03,96.03c.19,.21,.52,.02,.57-.22,.05-.17-.08-.35-.24-.36-.27-.03-.52,.35-.33,.58Z"/><path class="cls-11" d="M85.46,27.2c.08-.27-.24-.48-.47-.4-.16,.04-.25,.24-.18,.4,.11,.26,.55,.3,.65,0h0Z"/><path class="cls-11" d="M12,32.36c-.27,.07-.28,.46-.1,.63,.11,.13,.33,.11,.42-.04,.16-.23-.03-.64-.32-.59Z"/><path class="cls-11" d="M47.3,96.03c-.19,.21-.52,.02-.57-.22-.05-.17,.08-.35,.24-.36,.27-.03,.52,.35,.33,.58Z"/><path class="cls-11" d="M88.32,32.36c.27,.07,.28,.46,.1,.63-.11,.13-.33,.11-.42-.04-.16-.23,.03-.64,.32-.59Z"/><path class="cls-11" d="M14.86,27.2c-.08-.27,.24-.48,.47-.4,.16,.04,.25,.24,.18,.4-.11,.26-.55,.3-.65,0Z"/><path class="cls-11" d="M53.74,94.67c-.24,0-.41,.35-.24,.54,.16,.18,.45,.04,.51-.17,.07-.18-.09-.4-.27-.36h0Z"/><path class="cls-11" d="M83.96,27.23c.13,.21,.5,.2,.56-.06,.07-.23-.19-.43-.4-.37-.18,.03-.29,.28-.17,.43h0Z"/><path class="cls-11" d="M12.78,33.7c.11-.22-.08-.55-.33-.48-.23,.05-.26,.39-.11,.55,.12,.15,.37,.12,.44-.07Z"/><path class="cls-11" d="M46.58,94.67c.24,0,.41,.35,.24,.54-.16,.18-.45,.04-.51-.17-.07-.18,.09-.4,.27-.36h0Z"/><path class="cls-11" d="M87.54,33.7c-.11-.22,.08-.55,.33-.48,.23,.05,.26,.39,.11,.55-.11,.15-.37,.12-.44-.07h0Z"/><path class="cls-11" d="M16.36,27.23c-.13,.21-.5,.2-.56-.06-.07-.23,.19-.43,.4-.37,.18,.03,.29,.28,.17,.43h0Z"/><path class="cls-11" d="M54,94.45c.14,.15,.38,.06,.46-.11,.09-.14,.01-.38-.16-.39-.24-.04-.47,.29-.3,.5Z"/><path class="cls-11" d="M83.66,27.11c.06-.2-.14-.37-.32-.36-.16,0-.32,.18-.24,.34,.09,.24,.48,.28,.56,.02h0Z"/><path class="cls-11" d="M12.83,34.04c-.2,.04-.24,.31-.14,.47,.08,.15,.31,.2,.41,.05,.15-.2,0-.57-.27-.52Z"/><path class="cls-11" d="M46.32,94.45c-.14,.15-.38,.06-.46-.11-.09-.14-.01-.38,.16-.39,.24-.04,.47,.29,.3,.5Z"/><path class="cls-11" d="M87.5,34.04c.2,.04,.24,.31,.14,.47-.08,.15-.31,.2-.41,.05-.15-.2,0-.57,.27-.52Z"/><path class="cls-11" d="M16.67,27.11c-.06-.2,.14-.37,.32-.36,.16,0,.32,.18,.24,.34-.09,.24-.48,.28-.56,.02h0Z"/><path class="cls-11" d="M54.53,93.74c.13,.2,.42,.07,.46-.13,.04-.12-.03-.27-.15-.28-.21-.06-.43,.22-.31,.42Z"/><path class="cls-11" d="M82.79,26.99c.1-.21-.15-.42-.34-.35-.12,.02-.21,.16-.16,.28,.06,.22,.4,.28,.51,.07Z"/><path class="cls-11" d="M13.16,34.87c-.23,.01-.27,.35-.12,.49,.08,.09,.23,.11,.31,0,.15-.16,.03-.5-.19-.49h0Z"/><path class="cls-11" d="M45.79,93.74c-.13,.2-.42,.07-.46-.13-.04-.12,.03-.27,.15-.28,.21-.06,.43,.22,.31,.42Z"/><path class="cls-11" d="M87.17,34.87c.23,.01,.27,.35,.12,.49-.08,.09-.23,.11-.31,0-.15-.16-.03-.5,.19-.49Z"/><path class="cls-11" d="M17.53,26.99c-.1-.21,.15-.42,.34-.35,.12,.02,.21,.16,.16,.28-.06,.22-.4,.28-.51,.07Z"/><path class="cls-11" d="M55.19,92.79c-.13,.05-.21,.25-.11,.36,.12,.11,.34,0,.35-.16,.04-.14-.12-.28-.25-.2Z"/><path class="cls-11" d="M81.68,26.87c.11,.1,.31,.06,.35-.08,.03-.17-.16-.31-.31-.24-.13,.04-.17,.25-.05,.33h0Z"/><path class="cls-11" d="M13.61,35.94c.03-.14-.1-.31-.25-.28-.16,.05-.17,.3-.05,.4,.1,.1,.29,.03,.29-.12Z"/><path class="cls-11" d="M45.13,92.79c.13,.05,.21,.25,.11,.36-.12,.11-.34,0-.35-.16-.04-.14,.12-.28,.25-.2Z"/><path class="cls-11" d="M86.71,35.94c-.03-.14,.1-.31,.25-.28,.16,.05,.17,.3,.05,.4-.1,.1-.29,.03-.29-.12h0Z"/><path class="cls-11" d="M18.64,26.87c-.11,.1-.31,.06-.35-.08-.03-.17,.16-.31,.31-.24,.13,.04,.17,.25,.05,.33h0Z"/><path class="cls-11" d="M55.98,91.98c-.09,.1,.04,.28,.15,.2,.1-.05,.1-.17,.07-.27-.08,0-.18-.01-.22,.07Z"/><path class="cls-11" d="M80.61,26.56c.13,.03,.21-.18,.09-.24-.1-.07-.19,0-.26,.07,.04,.06,.08,.16,.17,.17Z"/><path class="cls-11" d="M13.89,37.06c-.03-.13-.25-.1-.24,.04,0,.12,.09,.18,.19,.2,.03-.07,.1-.15,.05-.24Z"/><path class="cls-11" d="M44.34,91.98c.09,.1-.04,.28-.15,.2-.1-.05-.1-.17-.07-.27,.08,0,.18-.01,.22,.07Z"/><path class="cls-11" d="M86.43,37.06c.03-.13,.25-.1,.24,.04,0,.12-.09,.18-.19,.2-.03-.07-.1-.15-.05-.24Z"/><path class="cls-11" d="M19.71,26.56c-.13,.03-.21-.18-.09-.24,.1-.07,.19,0,.26,.07-.04,.06-.08,.16-.17,.17h0Z"/><path class="cls-11" d="M55.66,92.28c-.12,.03-.2,.21-.1,.31,.1,.12,.29,.02,.31-.12,.04-.12-.1-.23-.21-.19Z"/><path class="cls-11" d="M81.02,26.7c.09,.09,.28,.07,.31-.07,.05-.15-.13-.27-.26-.21-.12,.03-.14,.21-.05,.28Z"/><path class="cls-11" d="M13.8,36.62c.03-.12-.08-.29-.21-.24-.15,.03-.16,.25-.05,.34,.08,.1,.24,.03,.26-.09Z"/><path class="cls-11" d="M44.66,92.28c.12,.03,.2,.21,.1,.31-.1,.12-.29,.02-.31-.12-.04-.12,.1-.23,.21-.19Z"/><path class="cls-11" d="M86.52,36.62c-.03-.12,.08-.29,.21-.24,.15,.03,.16,.25,.05,.34-.08,.1-.24,.03-.26-.09Z"/><path class="cls-11" d="M19.3,26.7c-.09,.09-.28,.07-.31-.07-.05-.15,.13-.27,.26-.21,.12,.03,.14,.21,.05,.28h0Z"/></g></g></g></svg>