<?xml version="1.0" encoding="UTF-8"?><svg id="Layer_2" xmlns="http://www.w3.org/2000/svg" xmlns:xlink="http://www.w3.org/1999/xlink" viewBox="0 0 100.49 112.31"><defs><style>.cls-1{fill:url(#linear-gradient-2);}.cls-2,.cls-3{fill:#fff;}.cls-4{fill:#aaa7a7;}.cls-4,.cls-5,.cls-6,.cls-7,.cls-8,.cls-3,.cls-9,.cls-10{stroke:#000;}.cls-4,.cls-5,.cls-6,.cls-7,.cls-3,.cls-9,.cls-11,.cls-10,.cls-12,.cls-13,.cls-14{stroke-linecap:round;stroke-linejoin:round;}.cls-4,.cls-5,.cls-6,.cls-9,.cls-11,.cls-14{stroke-width:.16px;}.cls-5,.cls-15,.cls-11{fill:none;}.cls-16{fill:#2f2c2c;}.cls-17{fill:url(#linear-gradient-6);}.cls-18{fill:url(#New_Pattern);}.cls-19{fill:#303030;}.cls-20{fill:url(#linear-gradient-11);}.cls-21{fill:#1b1b1b;}.cls-22{fill:url(#linear-gradient-10);}.cls-6{fill:url(#radial-gradient-2);}.cls-23{filter:url(#AI_Alpha_1);opacity:.28;}.cls-24{fill:#edede8;}.cls-7{fill:url(#linear-gradient);stroke-width:.1px;}.cls-25{fill:url(#linear-gradient-5);}.cls-8{fill:#e8cc56;stroke-miterlimit:10;stroke-width:1.04px;}.cls-3,.cls-10,.cls-12,.cls-13{stroke-width:.07px;}.cls-9,.cls-13{fill:#2e2e2e;}.cls-26{fill:url(#linear-gradient-7);}.cls-11{stroke:#030000;}.cls-27{fill:url(#linear-gradient-9);}.cls-10{fill:url(#radial-gradient-3);}.cls-28{fill:url(#linear-gradient-3);}.cls-12{fill:#fafafa;}.cls-12,.cls-13{stroke:#101010;}.cls-14{fill:url(#radial-gradient);stroke:#7d7d7d;}.cls-29{fill:url(#linear-gradient-4);}.cls-30{fill:url(#linear-gradient-8);}</style><filter id="AI_Alpha_1" x="0%" y="0%" width="100%" height="100%"><feTurbulence baseFrequency="0.05" numOctaves="2" result="turb"/><feComposite in="SourceGraphic" in2="turb" operator="in"/></filter><pattern id="New_Pattern" x="0" y="0" width="200" height="244" patternTransform="translate(-7479.05 -8656.19) scale(.07 -.07)" patternUnits="userSpaceOnUse" viewBox="0 0 200 244"><g><rect class="cls-15" width="200" height="244"/><g><rect class="cls-15" width="200" height="244"/><path d="M113.68-228.7c-25.31,0-45.9,20.59-45.9,45.9s20.59,45.9,45.9,45.9v17.63c49.45,23.15,49.24,95.4-2.38,117.23-7.92,3.35-16.33,5.05-24.99,5.05V-15.3c25.31,0,45.9-20.59,45.9-45.9s-20.59-45.9-45.9-45.9v-17.63c-50.03-23.39-48.65-95.65,2.38-117.23,7.92-3.35,16.33-5.05,24.99-5.05v18.3Z"/><path d="M213.69-106.7c-25.31,0-45.9,20.59-45.9,45.9s20.59,45.9,45.9,45.9V2.72c49.45,23.15,49.24,95.4-2.38,117.23-7.92,3.35-16.33,5.05-24.99,5.05v-18.3c25.31,0,45.9-20.59,45.9-45.9s-20.59-45.9-45.9-45.9V-2.72c-50.03-23.39-48.65-95.65,2.38-117.23,7.92-3.35,16.33-5.05,24.99-5.05v18.3h0Z"/><path d="M13.68-106.7c-25.31,0-45.9,20.59-45.9,45.9S-11.62-14.91,13.68-14.91V2.72c49.45,23.15,49.24,95.4-2.38,117.23-7.92,3.35-16.33,5.05-24.99,5.05v-18.3c25.31,0,45.9-20.59,45.9-45.9S11.62,14.91-13.68,14.91V-2.72c-50.03-23.39-48.65-95.65,2.38-117.23,7.92-3.35,16.33-5.05,24.99-5.05v18.3Z"/><path d="M113.68,15.3c-25.31,0-45.9,20.59-45.9,45.9s20.59,45.9,45.9,45.9v17.63c49.45,23.15,49.24,95.4-2.38,117.23-7.92,3.35-16.33,5.05-24.99,5.05v-18.3c25.31,0,45.9-20.59,45.9-45.9s-20.59-45.9-45.9-45.9v-17.63C36.29,95.89,37.67,23.63,88.69,2.05c7.92-3.35,16.33-5.05,24.99-5.05V15.3Z"/><path d="M213.69,137.3c-25.31,0-45.9,20.59-45.9,45.9s20.59,45.9,45.9,45.9v17.63c49.45,23.15,49.24,95.4-2.38,117.23-7.92,3.35-16.33,5.05-24.99,5.05v-18.3c25.31,0,45.9-20.59,45.9-45.9s-20.59-45.9-45.9-45.9v-17.63c-50.03-23.39-48.65-95.65,2.38-117.23,7.92-3.35,16.33-5.05,24.99-5.05v18.3h0Z"/><path d="M13.68,137.3c-25.31,0-45.9,20.59-45.9,45.9s20.59,45.9,45.9,45.9v17.63c49.45,23.15,49.24,95.4-2.38,117.23-7.92,3.35-16.33,5.05-24.99,5.05v-18.3c25.31,0,45.9-20.59,45.9-45.9s-20.59-45.9-45.9-45.9v-17.63c-50.03-23.39-48.65-95.65,2.38-117.23,7.92-3.35,16.33-5.05,24.99-5.05v18.3Z"/><path d="M113.68,259.3c-25.31,0-45.9,20.59-45.9,45.9s20.59,45.9,45.9,45.9v17.63c49.45,23.15,49.24,95.4-2.38,117.23-7.92,3.35-16.33,5.05-24.99,5.05v-18.3c25.31,0,45.9-20.59,45.9-45.9s-20.59-45.9-45.9-45.9v-17.63c-50.03-23.39-48.65-95.65,2.38-117.23,7.92-3.35,16.33-5.05,24.99-5.05v18.3Z"/></g></g></pattern><linearGradient id="linear-gradient" x1="76.9" y1="-164.71" x2="77.99" y2="-166.89" gradientTransform="translate(-38.58 -94.12) scale(.88 -.88)" gradientUnits="userSpaceOnUse"><stop offset="0" stop-color="#fff"/><stop offset="1" stop-color="#040000"/></linearGradient><radialGradient id="radial-gradient" cx="-18.92" cy="-112.98" fx="-18.92" fy="-112.98" r=".86" gradientTransform="translate(50.85 -6.18) rotate(13.93) scale(.49 -.6)" gradientUnits="userSpaceOnUse"><stop offset="0" stop-color="#fff"/><stop offset="1" stop-color="#040000"/></radialGradient><radialGradient id="radial-gradient-2" cx="-121.78" cy="-469.77" fx="-121.78" fy="-469.77" r="1.75" gradientTransform="translate(367.42 399.75) rotate(121.68) scale(.88 -1)" xlink:href="#radial-gradient"/><radialGradient id="radial-gradient-3" cx="88.81" cy="-157.27" fx="88.81" fy="-157.27" r=".33" gradientTransform="translate(-71.39 -58.93) rotate(-7.14) scale(.88 -.8)" xlink:href="#radial-gradient"/><linearGradient id="linear-gradient-2" x1="92.35" y1="-177.41" x2="92.25" y2="-177.25" gradientTransform="translate(-38.58 -94.12) scale(.88 -.88)" gradientUnits="userSpaceOnUse"><stop offset="0" stop-color="#393939"/><stop offset="1" stop-color="#fff8f8"/></linearGradient><linearGradient id="linear-gradient-3" x1="91.72" y1="-177.08" x2="91.65" y2="-176.97" gradientTransform="translate(-38.58 -94.12) scale(.88 -.88)" gradientUnits="userSpaceOnUse"><stop offset="0" stop-color="#c7c1c1"/><stop offset="1" stop-color="#fff8f8"/></linearGradient><linearGradient id="linear-gradient-4" x1="91.49" y1="-176.47" x2="91.39" y2="-176.31" xlink:href="#linear-gradient-3"/><linearGradient id="linear-gradient-5" x1="184.54" y1="-107.33" x2="184.44" y2="-107.16" gradientTransform="translate(-142.55 41.53) rotate(-23.72) scale(.88 -.88)" xlink:href="#linear-gradient-3"/><linearGradient id="linear-gradient-6" x1="77.14" y1="-175.25" x2="77.12" y2="-175.02" xlink:href="#linear-gradient-3"/><linearGradient id="linear-gradient-7" x1="76.37" y1="-174.71" x2="76.28" y2="-174.58" xlink:href="#linear-gradient-3"/><linearGradient id="linear-gradient-8" x1="76.1" y1="-174.44" x2="74.86" y2="-174.9" xlink:href="#linear-gradient-3"/><linearGradient id="linear-gradient-9" x1="-25.82" y1="-99.35" x2="-25.92" y2="-99.18" gradientTransform="translate(58.87 -30.24) rotate(-16.59) scale(.88 -.88)" xlink:href="#linear-gradient-3"/><linearGradient id="linear-gradient-10" x1="-30.58" y1="-122.19" x2="-30.69" y2="-121.94" gradientTransform="translate(62.57 -51.35) rotate(-13.31) scale(.88 -.88)" xlink:href="#linear-gradient-3"/><linearGradient id="linear-gradient-11" x1="-10.05" y1="-113.83" x2="-11.29" y2="-114.4" gradientTransform="translate(42.95 -40.42) rotate(-15.35) scale(.88 -.88)" gradientUnits="userSpaceOnUse"><stop offset="0" stop-color="#484848"/><stop offset="1" stop-color="#fff8f8"/></linearGradient></defs><g id="Layer_1-2"><g><path class="cls-8" d="M50.24,.55s40.87,15.04,47.53,9.57c3.91-3.22,5.15,71.62-18.8,87.94-8.93,6.08-28.73,13.69-28.73,13.69,0,0-19.79-7.61-28.73-13.69C-2.43,81.74-1.2,6.91,2.72,10.12,9.37,15.59,50.24,.55,50.24,.55Z"/><g class="cls-23"><g><path class="cls-24" d="M86.9,75.03c.21,.31,.46,.59,.75,.86,.03,1.41-2.12,2.27-2.76-1.1,.18,.63,.37,1.31,.9,1.72,.34,.27,.81,.29,1.19,.12-.26-.07-.53-.15-.75-.32-.65-.48-1-1.41-1.17-2.39,.9-.34,1.84-.48,2.57-.14,.25,.11,.45,.31,.64,.51-.06-.43-.3-.85-.7-1.02-.61-.27-1.27-.1-1.88,.05,3.12-1.11,3.47,1.26,2.29,1.94-.36-.13-.73-.21-1.09-.25ZM50.21,8.87c.15-.35,.26-.71,.34-1.1,1.16-.73,2.95,.77,.47,3.03,.43-.48,.91-.99,.98-1.67,.06-.44-.17-.87-.5-1.14,.07,.27,.14,.55,.11,.83-.08,.83-.67,1.61-1.4,2.25-.73-.64-1.32-1.42-1.4-2.25-.03-.28,.04-.56,.11-.83-.33,.27-.55,.7-.5,1.14,.08,.68,.55,1.2,.98,1.67-2.48-2.26-.69-3.76,.47-3.03,.07,.39,.19,.76,.34,1.1h0ZM13.53,75.03c-.36,.04-.72,.12-1.09,.25-1.18-.68-.83-3.05,2.29-1.94-.61-.15-1.28-.32-1.88-.05-.4,.17-.64,.59-.7,1.02,.19-.2,.39-.4,.64-.51,.73-.34,1.67-.2,2.57,.14-.17,.98-.52,1.9-1.17,2.39-.22,.17-.49,.25-.75,.32,.39,.17,.85,.15,1.19-.12,.53-.41,.72-1.1,.9-1.72-.64,3.37-2.78,2.5-2.76,1.1,.29-.26,.54-.55,.75-.86Zm70.27-1.86c-.27,1.7-.21,3.25,.45,4.38,1.02,1.8,3.48,.65,3.85-1.34,.47,.23,.99,.48,1.62,.51-.34-.56-.81-.9-1.24-1.21,1.46-1.33,1.19-4.12-.81-4.14-1.27-.02-2.59,.69-3.87,1.79h0ZM50.22,12.59c1.55-.61,2.81-1.44,3.42-2.59,.99-1.82-1.2-3.46-3.03-2.8-.04-.54-.1-1.13-.39-1.72-.29,.59-.35,1.18-.39,1.72-1.83-.66-4.02,.98-3.03,2.8,.62,1.16,1.87,1.99,3.42,2.59h0ZM16.63,73.17c-1.28-1.1-2.6-1.81-3.87-1.79-2,.02-2.28,2.81-.81,4.14-.43,.31-.89,.65-1.24,1.21,.63-.03,1.15-.27,1.62-.51,.37,1.98,2.83,3.13,3.85,1.34,.65-1.13,.72-2.68,.45-4.38h0Z"/><path class="cls-24" d="M76.55,81.38c-2.85,.3-7.23,2.32-10.37,3.87,1.72-.55,9.18-4.27,12.31-1.59,.35,.29,.55,.71,.64,1.15,.33-.78,.06-1.75-1.9-2.2,3.08,.43,2.84,2.78,1.19,2.9-5.12-6.23-25.28,4.35-27.08,14.02-.87,4.83,3.97,5.1,4.81,2.73,.36-1.01-.73-1.84-1.51-1.3-.34,.21-.4,.77-.13,1.06,.08,.1,.2,.08,.31,.09-.9,1.13-2.42-.11-2.76-1.72-.83-3.86,4.74-8.55,8-10.69,1.95-1.22,3.61-.47,2.63,.61-.06-1.11-1.37-.48-1.11,.38,.29,.85,1.56,.71,1.99-.18,.56-1.07-.02-1.89-.92-1.89-.36-.03-.71,.08-1.06,.16,1.97-1.01,4.61-1.79,5.84,.11,.68,1.01-.56,1.7-1.26,1.1-.49,1-.19,1.61,.44,1.83,2.07,.76,3.86-2.52,1.52-4.07-1.29-.84-2.72-.77-4.13-.24,.23-.15,3.38-1.66,6.61-2.09,.51-.06,1.38,1.02-.47,1.41-.73,.17-1.84-.09-2.85,.02-.51,0-1.02,.06-1.53,.11-.03,.05,0,.15,.08,.08,4.91,.09,3.06,4.4,5.48,4.91-.84-.54-.72-.82-.51-1.85,.3-1.29-.14-2.24-1.22-2.82,1.54,.16,2.71-.73,2.71-1.57,2.35-.19,2.25,1.43,1.5,1.5,.16-.22,.16-.6-.13-.71-.39-.08-.74,.36-.68,.76,.02,.47,.54,.76,.95,.62,1.61-.56,1-2.75-1.72-2.46-.03-.03-.07-.08-.1-.1,1.69-.23,5.39,.52,5.89,3.09,.36,1.93-1.82,3.51-2.69,1.81,.18,.05,.36,.1,.54,.04,.34-.11,.6-.42,.73-.76,.34-.91-.54-1.35-1.04-1.27-1.18,.16-2.66,2.22-1.24,3.39,2.02,1.64,6.38-2.28,4.44-5.64,2.86-.66,3.56-5.18-2.18-4.6h0Z"/><path class="cls-24" d="M60.67,15.02c1.67,2.43,5.55,5.36,8.4,7.41-1.32-1.28-8.15-6.14-7.48-10.3,.07-.46,.32-.85,.64-1.15-.82,.1-1.48,.81-.88,2.81-1.18-2.99,.89-3.96,1.82-2.53-2.62,7.74,16.26,20.62,25.2,17.42,4.45-1.63,2.25-6.13-.13-5.7-1.02,.18-1.17,1.57-.33,2.02,.35,.2,.84-.02,.95-.42,.04-.12-.04-.22-.08-.32,1.39,.25,1.12,2.24-.05,3.35-2.79,2.67-9.48,0-12.89-1.87-1.99-1.15-2.2-3.02-.81-2.68-.9,.61,.28,1.48,.87,.81,.57-.68-.19-1.76-1.15-1.71-1.17,.03-1.56,.97-1.11,1.77,.16,.34,.43,.6,.66,.88-1.83-1.27-3.79-3.26-2.83-5.32,.5-1.12,1.7-.34,1.54,.59,1.07-.06,1.43-.64,1.31-1.31-.41-2.25-4.03-2.22-4.15,.66-.06,1.58,.72,2.84,1.87,3.85-.25-.13-3.07-2.22-5.04-4.91-.31-.43,.16-1.75,1.41-.28,.51,.58,.84,1.71,1.44,2.57,.25,.46,.56,.89,.86,1.32,.05,0,.13-.07,.03-.11-2.38-4.48,2.13-4.96,1.35-7.4-.03,1.03-.32,1.06-1.29,1.39-1.23,.38-1.79,1.25-1.73,2.51-.64-1.47-1.97-2.08-2.67-1.66-1.33-2.02,.07-2.75,.5-2.1-.27-.03-.58,.16-.53,.47,.13,.39,.67,.49,.97,.23,.38-.25,.36-.87,.04-1.17-1.27-1.18-2.79,.47-1.18,2.79,0,.04-.03,.11-.03,.14-1.03-1.41-2.26-5.12-.38-6.85,1.42-1.29,3.83-.12,2.85,1.52-.05-.18-.1-.38-.24-.51-.26-.25-.65-.34-.99-.28-.93,.15-.85,1.16-.54,1.58,.73,.99,3.18,1.29,3.44-.58,.35-2.64-5.09-4.61-6.91-1.18-1.98-2.25-6.08-.62-2.73,4.26h0Z"/><path class="cls-24" d="M13.43,62.52c1.18-2.72,1.69-7.68,1.96-11.28-.4,1.83-1.04,10.42-4.83,11.9-.41,.17-.86,.14-1.28,0,.49,.69,1.42,.93,2.78-.61-1.9,2.56-3.73,1.18-3.01-.38,7.74-1.5,9.02-24.98,1.89-31.44-3.58-3.2-6.22,1.03-4.67,2.97,.65,.83,1.89,.26,1.84-.71,0-.42-.44-.74-.82-.65-.12,.02-.17,.14-.23,.23-.49-1.38,1.31-2.13,2.81-1.63,3.62,1.18,4.75,8.55,4.89,12.56,.04,2.37-1.41,3.49-1.82,2.07,.96,.5,1.09-.99,.24-1.19-.85-.17-1.37,1.05-.85,1.89,.61,1.04,1.58,.92,2.03,.11,.2-.31,.29-.68,.4-1.04-.14,2.28-.81,5.05-3.01,5.21-1.18,.11-1.14-1.36-.28-1.68-.59-.94-1.25-.97-1.75-.52-1.67,1.49,.17,4.74,2.63,3.41,1.34-.74,2-2.07,2.27-3.61,.01,.29-.31,3.87-1.57,7-.2,.49-1.54,.73-.94-1.13,.23-.74,1-1.61,1.41-2.58,.26-.46,.46-.95,.67-1.44-.03-.05-.12-.08-.11,.03-2.53,4.39-5.19,.56-6.83,2.48,.87-.49,1.04-.24,1.8,.47,.93,.92,1.93,.99,2.96,.31-.9,1.31-.75,2.81-.05,3.23-1.01,2.21-2.32,1.31-1.99,.6,.1,.26,.42,.44,.66,.24,.26-.31,.07-.85-.29-.99-.4-.22-.91,.11-.99,.55-.35,1.73,1.78,2.28,2.91-.33,.03,0,.1-.03,.13-.04-.65,1.63-3.13,4.6-5.51,3.76-1.79-.64-2.01-3.39-.16-3.33-.13,.14-.26,.28-.3,.47-.08,.36,.04,.75,.26,1.04,.59,.76,1.39,.19,1.58-.31,.46-1.15-.52-3.51-2.2-2.81-2.37,1.01-1.29,6.9,2.48,6.82-.88,2.91,2.53,5.8,4.91,.33h0Z"/><path class="cls-24" d="M23.89,81.38c2.85,.3,7.23,2.32,10.37,3.87-1.72-.55-9.18-4.27-12.31-1.59-.35,.29-.55,.71-.64,1.15-.33-.78-.06-1.75,1.9-2.2-3.08,.43-2.84,2.78-1.19,2.9,5.12-6.23,25.28,4.35,27.08,14.02,.87,4.83-3.97,5.1-4.81,2.73-.36-1.01,.73-1.84,1.51-1.3,.34,.21,.4,.77,.13,1.06-.08,.1-.2,.08-.31,.09,.9,1.13,2.42-.11,2.76-1.72,.83-3.86-4.74-8.55-8-10.69-1.95-1.22-3.61-.47-2.63,.61,.06-1.11,1.37-.48,1.11,.38-.29,.85-1.56,.71-1.99-.18-.56-1.07,.02-1.89,.92-1.89,.36-.03,.71,.08,1.06,.16-1.97-1.01-4.61-1.79-5.84,.11-.68,1.01,.56,1.7,1.26,1.1,.49,1,.19,1.61-.44,1.83-2.07,.76-3.86-2.52-1.52-4.07,1.29-.84,2.72-.77,4.13-.24-.23-.15-3.38-1.66-6.61-2.09-.51-.06-1.38,1.02,.47,1.41,.73,.17,1.84-.09,2.85,.02,.51,0,1.02,.06,1.53,.11,.03,.05,0,.15-.08,.08-4.91,.09-3.06,4.4-5.48,4.91,.84-.54,.72-.82,.51-1.85-.3-1.29,.14-2.24,1.22-2.82-1.54,.16-2.71-.73-2.71-1.57-2.35-.19-2.25,1.43-1.5,1.5-.16-.22-.16-.6,.13-.71,.39-.08,.74,.36,.68,.76-.02,.47-.54,.76-.95,.62-1.61-.56-1-2.75,1.72-2.46,.03-.03,.07-.08,.1-.1-1.69-.23-5.39,.52-5.89,3.09-.36,1.93,1.82,3.51,2.69,1.81-.18,.05-.36,.1-.54,.04-.34-.11-.6-.42-.73-.76-.34-.91,.54-1.35,1.04-1.27,1.18,.16,2.66,2.22,1.24,3.39-2.02,1.64-6.38-2.28-4.44-5.64-2.86-.66-3.56-5.18,2.18-4.6h0Z"/><path class="cls-24" d="M87.01,62.52c-1.18-2.72-1.69-7.68-1.96-11.28,.4,1.83,1.04,10.42,4.83,11.9,.41,.17,.86,.14,1.28,0-.49,.69-1.42,.93-2.78-.61,1.9,2.56,3.73,1.18,3.01-.38-7.74-1.5-9.02-24.98-1.89-31.44,3.58-3.2,6.22,1.03,4.67,2.97-.65,.83-1.89,.26-1.84-.71,0-.42,.44-.74,.82-.65,.12,.02,.17,.14,.23,.23,.49-1.38-1.31-2.13-2.81-1.63-3.62,1.18-4.75,8.55-4.89,12.56-.04,2.37,1.41,3.49,1.82,2.07-.96,.5-1.09-.99-.24-1.19,.85-.17,1.37,1.05,.85,1.89-.61,1.04-1.58,.92-2.03,.11-.2-.31-.29-.68-.4-1.04,.14,2.28,.81,5.05,3.01,5.21,1.18,.11,1.14-1.36,.28-1.68,.59-.94,1.25-.97,1.75-.52,1.67,1.49-.17,4.74-2.63,3.41-1.34-.74-2-2.07-2.27-3.61-.01,.29,.31,3.87,1.57,7,.2,.49,1.54,.73,.94-1.13-.23-.74-1-1.61-1.41-2.58-.26-.46-.46-.95-.67-1.44,.03-.05,.12-.08,.11,.03,2.53,4.39,5.19,.56,6.83,2.48-.87-.49-1.04-.24-1.8,.47-.93,.92-1.93,.99-2.96,.31,.9,1.31,.75,2.81,.05,3.23,1.01,2.21,2.32,1.31,1.99,.6-.1,.26-.42,.44-.66,.24-.26-.31-.07-.85,.29-.99,.4-.22,.91,.11,.99,.55,.35,1.73-1.78,2.28-2.91-.33-.03,0-.1-.03-.13-.04,.65,1.63,3.13,4.6,5.51,3.76,1.79-.64,2.01-3.39,.16-3.33,.13,.14,.26,.28,.3,.47,.08,.36-.04,.75-.26,1.04-.59,.76-1.39,.19-1.58-.31-.46-1.15,.52-3.51,2.2-2.81,2.37,1.01,1.29,6.9-2.48,6.82,.88,2.91-2.53,5.8-4.91,.33h0Z"/><path class="cls-24" d="M39.76,15.02c-1.67,2.43-5.55,5.36-8.4,7.41,1.32-1.28,8.15-6.14,7.48-10.3-.07-.46-.32-.85-.64-1.15,.82,.1,1.48,.81,.88,2.81,1.18-2.99-.89-3.96-1.82-2.53,2.62,7.74-16.26,20.62-25.2,17.42-4.45-1.63-2.25-6.13,.13-5.7,1.02,.18,1.17,1.57,.33,2.02-.35,.2-.84-.02-.95-.42-.04-.12,.04-.22,.08-.32-1.39,.25-1.12,2.24,.05,3.35,2.79,2.67,9.48,0,12.89-1.87,1.99-1.15,2.2-3.02,.81-2.68,.9,.61-.28,1.48-.87,.81-.57-.68,.19-1.76,1.15-1.71,1.17,.03,1.56,.97,1.11,1.77-.16,.34-.43,.6-.66,.88,1.83-1.27,3.79-3.26,2.83-5.32-.5-1.12-1.7-.34-1.54,.59-1.07-.06-1.43-.64-1.31-1.31,.41-2.25,4.03-2.22,4.15,.66,.06,1.58-.72,2.84-1.87,3.85,.25-.13,3.07-2.22,5.04-4.91,.31-.43-.16-1.75-1.41-.28-.51,.58-.84,1.71-1.44,2.57-.25,.46-.56,.89-.86,1.32-.05,0-.13-.07-.03-.11,2.38-4.48-2.13-4.96-1.35-7.4,.03,1.03,.32,1.06,1.29,1.39,1.23,.38,1.79,1.25,1.73,2.51,.64-1.47,1.97-2.08,2.67-1.66,1.33-2.02-.07-2.75-.5-2.1,.27-.03,.58,.16,.53,.47-.13,.39-.67,.49-.97,.23-.38-.25-.36-.87-.04-1.17,1.27-1.18,2.79,.47,1.18,2.79,0,.04,.03,.11,.03,.14,1.03-1.41,2.26-5.12,.38-6.85-1.42-1.29-3.83-.12-2.85,1.52,.05-.18,.1-.38,.24-.51,.26-.25,.65-.34,.99-.28,.93,.15,.85,1.16,.54,1.58-.73,.99-3.18,1.29-3.44-.58-.35-2.64,5.09-4.61,6.91-1.18,1.98-2.25,6.08-.62,2.73,4.26h0Z"/><path class="cls-24" d="M53.47,99.8c-.39,.59-.4,1.23,.2,1.59,.05-.24,.08-.48,.21-.69,.84-1.43,3.66-.24,2.31,1.93-.79,1.29-2.57,1.92-4.07,.62,.58,.73,1.51,1.16,2.42,1.09,.34-.02,.67-.16,1.01-.11,.57,.11,.63,.54,.31,.77-.01-.11,.02-.26-.09-.33-.11-.13-.3-.04-.38,.07-.19,.19-.08,.55,.15,.65,.73,.31,1.47-1.15,.12-1.41,.56-.35,1.03-.86,1.29-1.48,1.06-2.56-2.26-4.49-3.5-2.7h0Z"/><path class="cls-24" d="M87.53,26.63c.68,.06,1.23-.25,1.23-.97-.22,.08-.44,.17-.68,.15-1.61-.04-2.04-3.18,.45-3.05,1.47,.06,2.88,1.36,2.55,3.36,.32-.89,.21-1.94-.3-2.72-.18-.3-.47-.53-.6-.86-.19-.57,.14-.84,.49-.67-.09,.07-.23,.11-.23,.24-.05,.16,.11,.29,.25,.31,.25,.08,.5-.2,.46-.46-.1-.81-1.7-.75-1.24,.6-.57-.33-1.23-.5-1.88-.42-2.66,.32-2.6,4.28-.49,4.51h0Z"/><path class="cls-24" d="M9.65,32.49c-.29-.64-.82-.98-1.42-.62,.17,.16,.36,.32,.46,.54,.77,1.47-1.63,3.43-2.76,1.12-.68-1.36-.31-3.27,1.52-3.98-.9,.16-1.72,.78-2.11,1.64-.16,.32-.2,.69-.42,.97-.38,.46-.76,.3-.8-.1,.1,.05,.2,.15,.32,.09,.16-.04,.19-.25,.13-.38-.06-.27-.42-.35-.62-.19-.62,.5,.22,1.9,1.12,.81,0,.68,.2,1.36,.59,1.91,1.6,2.24,4.86,.21,3.99-1.81h0Z"/><path class="cls-24" d="M46.96,99.8c.39,.59,.4,1.23-.2,1.59-.05-.24-.08-.48-.21-.69-.84-1.43-3.66-.24-2.31,1.93,.79,1.29,2.57,1.92,4.07,.62-.58,.73-1.51,1.16-2.42,1.09-.34-.02-.67-.16-1.01-.11-.57,.11-.63,.54-.31,.77,.01-.11-.02-.26,.09-.33,.11-.13,.3-.04,.38,.07,.19,.19,.08,.55-.15,.65-.73,.31-1.47-1.15-.12-1.41-.56-.35-1.03-.86-1.29-1.48-1.06-2.56,2.26-4.49,3.5-2.7h0Z"/><path class="cls-24" d="M90.79,32.49c.29-.64,.82-.98,1.42-.62-.17,.16-.36,.32-.46,.54-.77,1.47,1.63,3.43,2.76,1.12,.68-1.36,.31-3.27-1.52-3.98,.9,.16,1.72,.78,2.11,1.64,.16,.32,.2,.69,.42,.97,.38,.46,.76,.3,.8-.1-.1,.05-.2,.15-.32,.09-.16-.04-.19-.25-.13-.38,.06-.27,.42-.35,.62-.19,.62,.5-.22,1.9-1.12,.81,0,.68-.2,1.36-.59,1.91-1.6,2.24-4.86,.21-3.99-1.81h0Z"/><path class="cls-24" d="M12.9,26.63c-.68,.06-1.23-.25-1.23-.97,.22,.08,.44,.17,.68,.15,1.61-.04,2.04-3.18-.45-3.05-1.47,.06-2.88,1.36-2.55,3.36-.32-.89-.21-1.94,.3-2.72,.18-.3,.47-.53,.6-.86,.19-.57-.14-.84-.49-.67,.09,.07,.23,.11,.23,.24,.05,.16-.11,.29-.25,.31-.25,.08-.5-.2-.46-.46,.1-.81,1.7-.75,1.24,.6,.57-.33,1.23-.5,1.88-.42,2.66,.32,2.6,4.28,.49,4.51h0Z"/><path class="cls-24" d="M83.04,72.71c-.38,.79-.71,1.5-.81,1.82-1,2.57-3.33,4.71-5.44,5.45-1.1,.51-4.52,2.42-4.54,2.44,4.73-2.22,7.83-.75,7.92-2.85-.6,1.1-1.11,.55-2.4,.28,2.15-.51,4.01-2.5,4.46-4.65,.32,1.54,.71,1.79-.22,2.49,.35-.01,.68-.21,.86-.51,.47-.77,.31-1.98,.73-4.12,1.57-1.45,2.66-1.91,3.06-2.72,.16-.32,.16-.72,0-1.04-.12,1.19-.51,.96-1.96,1.44,1.57-1.49,2.29-4.16,1.64-6.35,.86,1.02,1.57,1.21,.96,2.3,1.7-1.12-1.08-3.18-1.59-8.56,0,.04,.11,4.08,.24,5.32,.44,2.28-.17,5.45-1.81,7.63-.21,.25-.64,.9-1.11,1.64h0Z"/><path class="cls-24" d="M17.39,72.71c-.47-.74-.89-1.39-1.11-1.64-1.64-2.19-2.25-5.36-1.81-7.63,.13-1.24,.24-5.28,.24-5.32-.52,5.38-3.29,7.44-1.59,8.56-.61-1.09,.1-1.28,.96-2.3-.65,2.19,.07,4.87,1.64,6.35-1.44-.48-1.84-.25-1.96-1.44-.16,.32-.17,.72,0,1.04,.4,.81,1.49,1.27,3.06,2.72,.42,2.15,.26,3.35,.73,4.12,.19,.31,.52,.5,.86,.51-.93-.7-.54-.95-.22-2.49,.45,2.16,2.31,4.15,4.46,4.65-1.28,.27-1.79,.82-2.4-.28,.08,2.1,3.19,.62,7.92,2.85-.03-.02-3.45-1.94-4.54-2.44-2.11-.74-4.44-2.88-5.44-5.45-.1-.32-.43-1.03-.81-1.82h0Z"/><path class="cls-24" d="M50.22,13.5c.85-.05,1.6-.11,1.92-.18,2.64-.38,5.58,.65,7.25,2.18,.97,.74,4.27,2.86,4.3,2.88-4.21-3.15-4.54-6.69-6.33-5.72,1.21,0,1.01,.73,1.43,2.02-1.5-1.69-4.08-2.37-6.1-1.7,1.12-1.06,1.13-1.53,2.18-1.04-.18-.31-.51-.51-.86-.52-.88-.04-1.8,.71-3.8,1.4-2-.69-2.92-1.45-3.8-1.4-.35,.01-.68,.22-.86,.52,1.05-.49,1.06-.02,2.18,1.04-2.02-.67-4.6,.01-6.1,1.7,.42-1.29,.22-2.02,1.43-2.02-1.79-.97-2.11,2.56-6.33,5.72,.03-.02,3.33-2.14,4.3-2.88,1.67-1.54,4.62-2.57,7.25-2.18,.32,.07,1.07,.13,1.92,.18h0Z"/><path class="cls-24" d="M50.22,104.71c.74,0,1.45-.16,2.05-.52-.75-.56-2.07-1.48-1.59-4.09,.63-3.55,3.96-7.4,6.57-9.83,8.16-7.33,15.13-5.25,23.7-15.68,.57-.7,1.11-1.42,1.61-2.18,.38-.83,.71-1.68,1-2.54,4.39-12.94-.83-18.18,1.19-29.21,.71-3.57,2.24-8.5,4.88-10.84,1.94-1.74,3.36-1,4.2-.61,0-.72-.23-1.44-.6-2.11-.38-.67-.86-1.22-1.46-1.6-.09,.96-.19,2.6-2.6,3.48-3.27,1.21-8.14,.12-11.46-1.02-10.18-3.69-11.93-11.02-24.89-13.53-.87-.17-1.74-.29-2.62-.37-.88,.08-1.75,.2-2.62,.37-12.96,2.51-14.71,9.84-24.89,13.53-3.32,1.14-8.19,2.22-11.46,1.02-2.41-.88-2.51-2.53-2.6-3.48-.6,.37-1.08,.93-1.46,1.6-.37,.68-.59,1.39-.6,2.11,.84-.39,2.26-1.13,4.2,.61,2.64,2.35,4.17,7.28,4.88,10.84,2.02,11.03-3.2,16.27,1.19,29.21,.29,.87,.63,1.71,1,2.54,.5,.75,1.04,1.48,1.61,2.18,8.57,10.43,15.54,8.35,23.7,15.68,2.61,2.43,5.94,6.27,6.57,9.83,.48,2.61-.84,3.53-1.59,4.09,.61,.35,1.31,.51,2.05,.52h0Zm31.37-32.88c-2.02,3.02-5.09,6.08-7.75,7.83-5.71,3.9-11.56,3.96-18.88,11.25-1.76,1.89-3.66,4.24-4.74,6.76-1.08-2.52-2.98-4.88-4.74-6.76-7.32-7.29-13.17-7.35-18.88-11.25-2.65-1.75-5.73-4.8-7.75-7.83-1.5-3.33-2.51-7.63-2.64-10.9-.38-7.1,2.49-12.41,.09-22.65-.69-2.53-1.7-5.42-3.26-7.66,2.64,.29,5.55-.25,8-.89,9.72-2.96,12.7-8.2,18.79-11.4,2.78-1.52,6.86-2.76,10.38-3.07,3.52,.31,7.6,1.56,10.38,3.07,6.1,3.2,9.07,8.45,18.79,11.4,2.45,.64,5.36,1.18,8,.89-1.56,2.23-2.57,5.13-3.26,7.66-2.4,10.25,.47,15.55,.09,22.65-.13,3.27-1.13,7.57-2.64,10.9h0Z"/><path class="cls-24" d="M52.34,99.96c.2,.27,.61,.13,.74-.14,.12-.2,.05-.51-.18-.59-.38-.15-.82,.38-.57,.73h0Z"/><path class="cls-24" d="M88.23,27.57c.13-.32-.2-.62-.49-.6-.23,0-.44,.21-.4,.45,.06,.42,.72,.55,.89,.14h0Z"/><path class="cls-24" d="M10.08,31.39c-.33,.04-.41,.49-.25,.74,.11,.21,.4,.3,.58,.14,.32-.27,.09-.93-.33-.88Z"/><path class="cls-24" d="M48.1,99.96c-.2,.27-.61,.13-.74-.14-.12-.2-.05-.51,.18-.59,.38-.15,.82,.38,.57,.73h0Z"/><path class="cls-24" d="M90.35,31.39c.33,.04,.41,.49,.25,.74-.11,.21-.4,.3-.58,.14-.32-.27-.09-.93,.33-.88Z"/><path class="cls-24" d="M12.2,27.57c-.13-.32,.2-.62,.49-.6,.23,0,.44,.21,.4,.45-.06,.42-.72,.55-.89,.14Z"/><path class="cls-24" d="M53.07,98.76c.08-.17,.01-.41-.17-.47-.33-.13-.7,.32-.49,.63,.18,.25,.58,.12,.66-.16Z"/><path class="cls-24" d="M86.86,27.51c-.18,.01-.35,.19-.31,.39,.05,.36,.61,.47,.77,.13,.12-.29-.19-.58-.46-.52h0Z"/><path class="cls-24" d="M10.72,32.66c.1,.16,.33,.21,.47,.08,.27-.23,.09-.79-.27-.75-.3,.04-.38,.46-.2,.67h0Z"/><path class="cls-24" d="M47.36,98.76c-.08-.17-.01-.41,.17-.47,.33-.13,.7,.32,.49,.63-.18,.25-.58,.12-.66-.16Z"/><path class="cls-24" d="M89.71,32.66c-.1,.16-.33,.21-.47,.08-.27-.23-.09-.79,.27-.75,.3,.04,.38,.46,.2,.67h0Z"/><path class="cls-24" d="M13.57,27.51c.18,.01,.35,.19,.31,.39-.05,.36-.61,.47-.77,.13-.12-.29,.19-.58,.46-.52Z"/><path class="cls-24" d="M53.29,97.86c.08-.15,.04-.38-.12-.44-.3-.15-.67,.27-.48,.55,.15,.24,.5,.12,.6-.11Z"/><path class="cls-24" d="M86,27.76c-.16,0-.33,.15-.31,.33,.02,.34,.56,.47,.7,.16,.13-.25-.15-.51-.39-.49h0Z"/><path class="cls-24" d="M11.36,33.31c.08,.14,.29,.23,.43,.11,.28-.19,.11-.73-.22-.71-.27,.01-.35,.4-.21,.6Z"/><path class="cls-24" d="M47.14,97.86c-.08-.15-.04-.38,.12-.44,.3-.15,.67,.27,.48,.55-.15,.24-.5,.12-.6-.11Z"/><path class="cls-24" d="M89.08,33.31c-.08,.14-.29,.23-.43,.11-.28-.19-.11-.73,.22-.71,.27,.01,.35,.4,.21,.6Z"/><path class="cls-24" d="M14.43,27.76c.16,0,.33,.15,.31,.33-.02,.34-.56,.47-.7,.16-.13-.25,.15-.51,.39-.49h0Z"/><path class="cls-24" d="M53.08,97.14c.19,.21,.52,.02,.57-.22,.05-.17-.08-.35-.24-.36-.27-.03-.52,.35-.33,.58Z"/><path class="cls-24" d="M85.52,28.3c.08-.27-.24-.48-.47-.4-.16,.04-.25,.24-.18,.4,.11,.26,.55,.3,.65,0h0Z"/><path class="cls-24" d="M12.05,33.47c-.27,.07-.28,.46-.1,.63,.11,.13,.33,.11,.42-.04,.16-.23-.03-.64-.32-.59Z"/><path class="cls-24" d="M47.35,97.14c-.19,.21-.52,.02-.57-.22-.05-.17,.08-.35,.24-.36,.27-.03,.52,.35,.33,.58Z"/><path class="cls-24" d="M88.38,33.47c.27,.07,.28,.46,.1,.63-.11,.13-.33,.11-.42-.04-.16-.23,.03-.64,.32-.59Z"/><path class="cls-24" d="M14.92,28.3c-.08-.27,.24-.48,.47-.4,.16,.04,.25,.24,.18,.4-.11,.26-.55,.3-.65,0Z"/><path class="cls-24" d="M53.8,95.77c-.24,0-.41,.35-.24,.54,.16,.18,.45,.04,.51-.17,.07-.18-.09-.4-.27-.36h0Z"/><path class="cls-24" d="M84.02,28.34c.13,.21,.5,.2,.56-.06,.07-.23-.19-.43-.4-.37-.18,.03-.29,.28-.17,.43h0Z"/><path class="cls-24" d="M12.83,34.81c.11-.22-.08-.55-.33-.48-.23,.05-.26,.39-.11,.55,.12,.15,.37,.12,.44-.07Z"/><path class="cls-24" d="M46.63,95.77c.24,0,.41,.35,.24,.54-.16,.18-.45,.04-.51-.17-.07-.18,.09-.4,.27-.36h0Z"/><path class="cls-24" d="M87.6,34.81c-.11-.22,.08-.55,.33-.48,.23,.05,.26,.39,.11,.55-.11,.15-.37,.12-.44-.07h0Z"/><path class="cls-24" d="M16.42,28.34c-.13,.21-.5,.2-.56-.06-.07-.23,.19-.43,.4-.37,.18,.03,.29,.28,.17,.43h0Z"/><path class="cls-24" d="M54.06,95.56c.14,.15,.38,.06,.46-.11,.09-.14,.01-.38-.16-.39-.24-.04-.47,.29-.3,.5Z"/><path class="cls-24" d="M83.71,28.22c.06-.2-.14-.37-.32-.36-.16,0-.32,.18-.24,.34,.09,.24,.48,.28,.56,.02h0Z"/><path class="cls-24" d="M12.88,35.14c-.2,.04-.24,.31-.14,.47,.08,.15,.31,.2,.41,.05,.15-.2,0-.57-.27-.52Z"/><path class="cls-24" d="M46.38,95.56c-.14,.15-.38,.06-.46-.11-.09-.14-.01-.38,.16-.39,.24-.04,.47,.29,.3,.5Z"/><path class="cls-24" d="M87.55,35.14c.2,.04,.24,.31,.14,.47-.08,.15-.31,.2-.41,.05-.15-.2,0-.57,.27-.52Z"/><path class="cls-24" d="M16.72,28.22c-.06-.2,.14-.37,.32-.36,.16,0,.32,.18,.24,.34-.09,.24-.48,.28-.56,.02h0Z"/><path class="cls-24" d="M54.59,94.84c.13,.2,.42,.07,.46-.13,.04-.12-.03-.27-.15-.28-.21-.06-.43,.22-.31,.42Z"/><path class="cls-24" d="M82.85,28.1c.1-.21-.15-.42-.34-.35-.12,.02-.21,.16-.16,.28,.06,.22,.4,.28,.51,.07Z"/><path class="cls-24" d="M13.21,35.98c-.23,.01-.27,.35-.12,.49,.08,.09,.23,.11,.31,0,.15-.16,.03-.5-.19-.49h0Z"/><path class="cls-24" d="M45.85,94.84c-.13,.2-.42,.07-.46-.13-.04-.12,.03-.27,.15-.28,.21-.06,.43,.22,.31,.42Z"/><path class="cls-24" d="M87.22,35.98c.23,.01,.27,.35,.12,.49-.08,.09-.23,.11-.31,0-.15-.16-.03-.5,.19-.49Z"/><path class="cls-24" d="M17.58,28.1c-.1-.21,.15-.42,.34-.35,.12,.02,.21,.16,.16,.28-.06,.22-.4,.28-.51,.07Z"/><path class="cls-24" d="M55.24,93.9c-.13,.05-.21,.25-.11,.36,.12,.11,.34,0,.35-.16,.04-.14-.12-.28-.25-.2Z"/><path class="cls-24" d="M81.74,27.98c.11,.1,.31,.06,.35-.08,.03-.17-.16-.31-.31-.24-.13,.04-.17,.25-.05,.33h0Z"/><path class="cls-24" d="M13.67,37.05c.03-.14-.1-.31-.25-.28-.16,.05-.17,.3-.05,.4,.1,.1,.29,.03,.29-.12Z"/><path class="cls-24" d="M45.19,93.9c.13,.05,.21,.25,.11,.36-.12,.11-.34,0-.35-.16-.04-.14,.12-.28,.25-.2Z"/><path class="cls-24" d="M86.77,37.05c-.03-.14,.1-.31,.25-.28,.16,.05,.17,.3,.05,.4-.1,.1-.29,.03-.29-.12h0Z"/><path class="cls-24" d="M18.7,27.98c-.11,.1-.31,.06-.35-.08-.03-.17,.16-.31,.31-.24,.13,.04,.17,.25,.05,.33h0Z"/><path class="cls-24" d="M56.04,93.09c-.09,.1,.04,.28,.15,.2,.1-.05,.1-.17,.07-.27-.08,0-.18-.01-.22,.07Z"/><path class="cls-24" d="M80.66,27.67c.13,.03,.21-.18,.09-.24-.1-.07-.19,0-.26,.07,.04,.06,.08,.16,.17,.17Z"/><path class="cls-24" d="M13.95,38.17c-.03-.13-.25-.1-.24,.04,0,.12,.09,.18,.19,.2,.03-.07,.1-.15,.05-.24Z"/><path class="cls-24" d="M44.4,93.09c.09,.1-.04,.28-.15,.2-.1-.05-.1-.17-.07-.27,.08,0,.18-.01,.22,.07Z"/><path class="cls-24" d="M86.48,38.17c.03-.13,.25-.1,.24,.04,0,.12-.09,.18-.19,.2-.03-.07-.1-.15-.05-.24Z"/><path class="cls-24" d="M19.77,27.67c-.13,.03-.21-.18-.09-.24,.1-.07,.19,0,.26,.07-.04,.06-.08,.16-.17,.17h0Z"/><path class="cls-24" d="M55.72,93.39c-.12,.03-.2,.21-.1,.31,.1,.12,.29,.02,.31-.12,.04-.12-.1-.23-.21-.19Z"/><path class="cls-24" d="M81.07,27.81c.09,.09,.28,.07,.31-.07,.05-.15-.13-.27-.26-.21-.12,.03-.14,.21-.05,.28Z"/><path class="cls-24" d="M13.86,37.73c.03-.12-.08-.29-.21-.24-.15,.03-.16,.25-.05,.34,.08,.1,.24,.03,.26-.09Z"/><path class="cls-24" d="M44.72,93.39c.12,.03,.2,.21,.1,.31-.1,.12-.29,.02-.31-.12-.04-.12,.1-.23,.21-.19Z"/><path class="cls-24" d="M86.57,37.73c-.03-.12,.08-.29,.21-.24,.15,.03,.16,.25,.05,.34-.08,.1-.24,.03-.26-.09Z"/><path class="cls-24" d="M19.36,27.81c-.09,.09-.28,.07-.31-.07-.05-.15,.13-.27,.26-.21,.12,.03,.14,.21,.05,.28h0Z"/></g><path class="cls-18" d="M97.36,10.41C90.7,15.87,49.83,.83,49.83,.83,49.83,.83,8.96,15.87,2.3,10.41-1.61,7.19-2.85,82.02,21.1,98.35c6.31,4.3,18.05,9.36,24.39,11.96h8.68c6.34-2.6,18.07-7.66,24.39-11.96,23.95-16.32,22.72-91.16,18.8-87.94Z"/></g><g><path d="M87.11,76.74c.21,.31,.46,.59,.75,.86,.03,1.41-2.12,2.27-2.76-1.1,.18,.63,.37,1.31,.9,1.72,.34,.27,.81,.29,1.19,.12-.26-.07-.53-.15-.75-.32-.65-.48-1-1.41-1.17-2.39,.9-.34,1.84-.48,2.57-.14,.25,.11,.45,.31,.64,.51-.06-.43-.3-.85-.7-1.02-.61-.27-1.27-.1-1.88,.05,3.12-1.11,3.47,1.26,2.29,1.94-.36-.13-.73-.21-1.09-.25ZM50.43,10.58c.15-.35,.26-.71,.34-1.1,1.16-.73,2.95,.77,.47,3.03,.43-.48,.91-.99,.98-1.67,.06-.44-.17-.87-.5-1.14,.07,.27,.14,.55,.11,.83-.08,.83-.67,1.61-1.4,2.25-.73-.64-1.32-1.42-1.4-2.25-.03-.28,.04-.56,.11-.83-.33,.27-.55,.7-.5,1.14,.08,.68,.55,1.2,.98,1.67-2.48-2.26-.69-3.76,.47-3.03,.07,.39,.19,.76,.34,1.1h0ZM13.75,76.74c-.36,.04-.72,.12-1.09,.25-1.18-.68-.83-3.05,2.29-1.94-.61-.15-1.28-.32-1.88-.05-.4,.17-.64,.59-.7,1.02,.19-.2,.39-.4,.64-.51,.73-.34,1.67-.2,2.57,.14-.17,.98-.52,1.9-1.17,2.39-.22,.17-.49,.25-.75,.32,.39,.17,.85,.15,1.19-.12,.53-.41,.72-1.1,.9-1.72-.64,3.37-2.78,2.5-2.76,1.1,.29-.26,.54-.55,.75-.86Zm70.27-1.86c-.27,1.7-.21,3.25,.45,4.38,1.02,1.8,3.48,.65,3.85-1.34,.47,.23,.99,.48,1.62,.51-.34-.56-.81-.9-1.24-1.21,1.46-1.33,1.19-4.12-.81-4.14-1.27-.02-2.59,.69-3.87,1.79h0ZM50.43,14.3c1.55-.61,2.81-1.44,3.42-2.59,.99-1.82-1.2-3.46-3.03-2.8-.04-.54-.1-1.13-.39-1.72-.29,.59-.35,1.18-.39,1.72-1.83-.66-4.02,.98-3.03,2.8,.62,1.16,1.87,1.99,3.42,2.59h0ZM16.84,74.88c-1.28-1.1-2.6-1.81-3.87-1.79-2,.02-2.28,2.81-.81,4.14-.43,.31-.89,.65-1.24,1.21,.63-.03,1.15-.27,1.62-.51,.37,1.98,2.83,3.13,3.85,1.34,.65-1.13,.72-2.68,.45-4.38h0Z"/><path d="M76.76,83.09c-2.85,.3-7.23,2.32-10.37,3.87,1.72-.55,9.18-4.27,12.31-1.59,.35,.29,.55,.71,.64,1.15,.33-.78,.06-1.75-1.9-2.2,3.08,.43,2.84,2.78,1.19,2.9-5.12-6.23-25.28,4.35-27.08,14.02-.87,4.83,3.97,5.1,4.81,2.73,.36-1.01-.73-1.84-1.51-1.3-.34,.21-.4,.77-.13,1.06,.08,.1,.2,.08,.31,.09-.9,1.13-2.42-.11-2.76-1.72-.83-3.86,4.74-8.55,8-10.69,1.95-1.22,3.61-.47,2.63,.61-.06-1.11-1.37-.48-1.11,.38,.29,.85,1.56,.71,1.99-.18,.56-1.07-.02-1.89-.92-1.89-.36-.03-.71,.08-1.06,.16,1.97-1.01,4.61-1.79,5.84,.11,.68,1.01-.56,1.7-1.26,1.1-.49,1-.19,1.61,.44,1.83,2.07,.76,3.86-2.52,1.52-4.07-1.29-.84-2.72-.77-4.13-.24,.23-.15,3.38-1.66,6.61-2.09,.51-.06,1.38,1.02-.47,1.41-.73,.17-1.84-.09-2.85,.02-.51,0-1.02,.06-1.53,.11-.03,.05,0,.15,.08,.08,4.91,.09,3.06,4.4,5.48,4.91-.84-.54-.72-.82-.51-1.85,.3-1.29-.14-2.24-1.22-2.82,1.54,.16,2.71-.73,2.71-1.57,2.35-.19,2.25,1.43,1.5,1.5,.16-.22,.16-.6-.13-.71-.39-.08-.74,.36-.68,.76,.02,.47,.54,.76,.95,.62,1.61-.56,1-2.75-1.72-2.46-.03-.03-.07-.08-.1-.1,1.69-.23,5.39,.52,5.89,3.09,.36,1.93-1.82,3.51-2.69,1.81,.18,.05,.36,.1,.54,.04,.34-.11,.6-.42,.73-.76,.34-.91-.54-1.35-1.04-1.27-1.18,.16-2.66,2.22-1.24,3.39,2.02,1.64,6.38-2.28,4.44-5.64,2.86-.66,3.56-5.18-2.18-4.6h0Z"/><path d="M60.89,16.73c1.67,2.43,5.55,5.36,8.4,7.41-1.32-1.28-8.15-6.14-7.48-10.3,.07-.46,.32-.85,.64-1.15-.82,.1-1.48,.81-.88,2.81-1.18-2.99,.89-3.96,1.82-2.53-2.62,7.74,16.26,20.62,25.2,17.42,4.45-1.63,2.25-6.13-.13-5.7-1.02,.18-1.17,1.57-.33,2.02,.35,.2,.84-.02,.95-.42,.04-.12-.04-.22-.08-.32,1.39,.25,1.12,2.24-.05,3.35-2.79,2.67-9.48,0-12.89-1.87-1.99-1.15-2.2-3.02-.81-2.68-.9,.61,.28,1.48,.87,.81,.57-.68-.19-1.76-1.15-1.71-1.17,.03-1.56,.97-1.11,1.77,.16,.34,.43,.6,.66,.88-1.83-1.27-3.79-3.26-2.83-5.32,.5-1.12,1.7-.34,1.54,.59,1.07-.06,1.43-.64,1.31-1.31-.41-2.25-4.03-2.22-4.15,.66-.06,1.58,.72,2.84,1.87,3.85-.25-.13-3.07-2.22-5.04-4.91-.31-.43,.16-1.75,1.41-.28,.51,.58,.84,1.71,1.44,2.57,.25,.46,.56,.89,.86,1.32,.05,0,.13-.07,.03-.11-2.38-4.48,2.13-4.96,1.35-7.4-.03,1.03-.32,1.06-1.29,1.39-1.23,.38-1.79,1.25-1.73,2.51-.64-1.47-1.97-2.08-2.67-1.66-1.33-2.02,.07-2.75,.5-2.1-.27-.03-.58,.16-.53,.47,.13,.39,.67,.49,.97,.23,.38-.25,.36-.87,.04-1.17-1.27-1.18-2.79,.47-1.18,2.79,0,.04-.03,.11-.03,.14-1.03-1.41-2.26-5.12-.38-6.85,1.42-1.29,3.83-.12,2.85,1.52-.05-.18-.1-.38-.24-.51-.26-.25-.65-.34-.99-.28-.93,.15-.85,1.16-.54,1.58,.73,.99,3.18,1.29,3.44-.58,.35-2.64-5.09-4.61-6.91-1.18-1.98-2.25-6.08-.62-2.73,4.26h0Z"/><path d="M13.64,64.23c1.18-2.72,1.69-7.68,1.96-11.28-.4,1.83-1.04,10.42-4.83,11.9-.41,.17-.86,.14-1.28,0,.49,.69,1.42,.93,2.78-.61-1.9,2.56-3.73,1.18-3.01-.38,7.74-1.5,9.02-24.98,1.89-31.44-3.58-3.2-6.22,1.03-4.67,2.97,.65,.83,1.89,.26,1.84-.71,0-.42-.44-.74-.82-.65-.12,.02-.17,.14-.23,.23-.49-1.38,1.31-2.13,2.81-1.63,3.62,1.18,4.75,8.55,4.89,12.56,.04,2.37-1.41,3.49-1.82,2.07,.96,.5,1.09-.99,.24-1.19-.85-.17-1.37,1.05-.85,1.89,.61,1.04,1.58,.92,2.03,.11,.2-.31,.29-.68,.4-1.04-.14,2.28-.81,5.05-3.01,5.21-1.18,.11-1.14-1.36-.28-1.68-.59-.94-1.25-.97-1.75-.52-1.67,1.49,.17,4.74,2.63,3.41,1.34-.74,2-2.07,2.27-3.61,.01,.29-.31,3.87-1.57,7-.2,.49-1.54,.73-.94-1.13,.23-.74,1-1.61,1.41-2.58,.26-.46,.46-.95,.67-1.44-.03-.05-.12-.08-.11,.03-2.53,4.39-5.19,.56-6.83,2.48,.87-.49,1.04-.24,1.8,.47,.93,.92,1.93,.99,2.96,.31-.9,1.31-.75,2.81-.05,3.23-1.01,2.21-2.32,1.31-1.99,.6,.1,.26,.42,.44,.66,.24,.26-.31,.07-.85-.29-.99-.4-.22-.91,.11-.99,.55-.35,1.73,1.78,2.28,2.91-.33,.03,0,.1-.03,.13-.04-.65,1.63-3.13,4.6-5.51,3.76-1.79-.64-2.01-3.39-.16-3.33-.13,.14-.26,.28-.3,.47-.08,.36,.04,.75,.26,1.04,.59,.76,1.39,.19,1.58-.31,.46-1.15-.52-3.51-2.2-2.81-2.37,1.01-1.29,6.9,2.48,6.82-.88,2.91,2.53,5.8,4.91,.33h0Z"/><path d="M24.1,83.09c2.85,.3,7.23,2.32,10.37,3.87-1.72-.55-9.18-4.27-12.31-1.59-.35,.29-.55,.71-.64,1.15-.33-.78-.06-1.75,1.9-2.2-3.08,.43-2.84,2.78-1.19,2.9,5.12-6.23,25.28,4.35,27.08,14.02,.87,4.83-3.97,5.1-4.81,2.73-.36-1.01,.73-1.84,1.51-1.3,.34,.21,.4,.77,.13,1.06-.08,.1-.2,.08-.31,.09,.9,1.13,2.42-.11,2.76-1.72,.83-3.86-4.74-8.55-8-10.69-1.95-1.22-3.61-.47-2.63,.61,.06-1.11,1.37-.48,1.11,.38-.29,.85-1.56,.71-1.99-.18-.56-1.07,.02-1.89,.92-1.89,.36-.03,.71,.08,1.06,.16-1.97-1.01-4.61-1.79-5.84,.11-.68,1.01,.56,1.7,1.26,1.1,.49,1,.19,1.61-.44,1.83-2.07,.76-3.86-2.52-1.52-4.07,1.29-.84,2.72-.77,4.13-.24-.23-.15-3.38-1.66-6.61-2.09-.51-.06-1.38,1.02,.47,1.41,.73,.17,1.84-.09,2.85,.02,.51,0,1.02,.06,1.53,.11,.03,.05,0,.15-.08,.08-4.91,.09-3.06,4.4-5.48,4.91,.84-.54,.72-.82,.51-1.85-.3-1.29,.14-2.24,1.22-2.82-1.54,.16-2.71-.73-2.71-1.57-2.35-.19-2.25,1.43-1.5,1.5-.16-.22-.16-.6,.13-.71,.39-.08,.74,.36,.68,.76-.02,.47-.54,.76-.95,.62-1.61-.56-1-2.75,1.72-2.46,.03-.03,.07-.08,.1-.1-1.69-.23-5.39,.52-5.89,3.09-.36,1.93,1.82,3.51,2.69,1.81-.18,.05-.36,.1-.54,.04-.34-.11-.6-.42-.73-.76-.34-.91,.54-1.35,1.04-1.27,1.18,.16,2.66,2.22,1.24,3.39-2.02,1.64-6.38-2.28-4.44-5.64-2.86-.66-3.56-5.18,2.18-4.6h0Z"/><path d="M87.22,64.23c-1.18-2.72-1.69-7.68-1.96-11.28,.4,1.83,1.04,10.42,4.83,11.9,.41,.17,.86,.14,1.28,0-.49,.69-1.42,.93-2.78-.61,1.9,2.56,3.73,1.18,3.01-.38-7.74-1.5-9.02-24.98-1.89-31.44,3.58-3.2,6.22,1.03,4.67,2.97-.65,.83-1.89,.26-1.84-.71,0-.42,.44-.74,.82-.65,.12,.02,.17,.14,.23,.23,.49-1.38-1.31-2.13-2.81-1.63-3.62,1.18-4.75,8.55-4.89,12.56-.04,2.37,1.41,3.49,1.82,2.07-.96,.5-1.09-.99-.24-1.19,.85-.17,1.37,1.05,.85,1.89-.61,1.04-1.58,.92-2.03,.11-.2-.31-.29-.68-.4-1.04,.14,2.28,.81,5.05,3.01,5.21,1.18,.11,1.14-1.36,.28-1.68,.59-.94,1.25-.97,1.75-.52,1.67,1.49-.17,4.74-2.63,3.41-1.34-.74-2-2.07-2.27-3.61-.01,.29,.31,3.87,1.57,7,.2,.49,1.54,.73,.94-1.13-.23-.74-1-1.61-1.41-2.58-.26-.46-.46-.95-.67-1.44,.03-.05,.12-.08,.11,.03,2.53,4.39,5.19,.56,6.83,2.48-.87-.49-1.04-.24-1.8,.47-.93,.92-1.93,.99-2.96,.31,.9,1.31,.75,2.81,.05,3.23,1.01,2.21,2.32,1.31,1.99,.6-.1,.26-.42,.44-.66,.24-.26-.31-.07-.85,.29-.99,.4-.22,.91,.11,.99,.55,.35,1.73-1.78,2.28-2.91-.33-.03,0-.1-.03-.13-.04,.65,1.63,3.13,4.6,5.51,3.76,1.79-.64,2.01-3.39,.16-3.33,.13,.14,.26,.28,.3,.47,.08,.36-.04,.75-.26,1.04-.59,.76-1.39,.19-1.58-.31-.46-1.15,.52-3.51,2.2-2.81,2.37,1.01,1.29,6.9-2.48,6.82,.88,2.91-2.53,5.8-4.91,.33h0Z"/><path d="M39.97,16.73c-1.67,2.43-5.55,5.36-8.4,7.41,1.32-1.28,8.15-6.14,7.48-10.3-.07-.46-.32-.85-.64-1.15,.82,.1,1.48,.81,.88,2.81,1.18-2.99-.89-3.96-1.82-2.53,2.62,7.74-16.26,20.62-25.2,17.42-4.45-1.63-2.25-6.13,.13-5.7,1.02,.18,1.17,1.57,.33,2.02-.35,.2-.84-.02-.95-.42-.04-.12,.04-.22,.08-.32-1.39,.25-1.12,2.24,.05,3.35,2.79,2.67,9.48,0,12.89-1.87,1.99-1.15,2.2-3.02,.81-2.68,.9,.61-.28,1.48-.87,.81-.57-.68,.19-1.76,1.15-1.71,1.17,.03,1.56,.97,1.11,1.77-.16,.34-.43,.6-.66,.88,1.83-1.27,3.79-3.26,2.83-5.32-.5-1.12-1.7-.34-1.54,.59-1.07-.06-1.43-.64-1.31-1.31,.41-2.25,4.03-2.22,4.15,.66,.06,1.58-.72,2.84-1.87,3.85,.25-.13,3.07-2.22,5.04-4.91,.31-.43-.16-1.75-1.41-.28-.51,.58-.84,1.71-1.44,2.57-.25,.46-.56,.89-.86,1.32-.05,0-.13-.07-.03-.11,2.38-4.48-2.13-4.96-1.35-7.4,.03,1.03,.32,1.06,1.29,1.39,1.23,.38,1.79,1.25,1.73,2.51,.64-1.47,1.97-2.08,2.67-1.66,1.33-2.02-.07-2.75-.5-2.1,.27-.03,.58,.16,.53,.47-.13,.39-.67,.49-.97,.23-.38-.25-.36-.87-.04-1.17,1.27-1.18,2.79,.47,1.18,2.79,0,.04,.03,.11,.03,.14,1.03-1.41,2.26-5.12,.38-6.85-1.42-1.29-3.83-.12-2.85,1.52,.05-.18,.1-.38,.24-.51,.26-.25,.65-.34,.99-.28,.93,.15,.85,1.16,.54,1.58-.73,.99-3.18,1.29-3.44-.58-.35-2.64,5.09-4.61,6.91-1.18,1.98-2.25,6.08-.62,2.73,4.26h0Z"/><path d="M53.68,101.51c-.39,.59-.4,1.23,.2,1.59,.05-.24,.08-.48,.21-.69,.84-1.43,3.66-.24,2.31,1.93-.79,1.29-2.57,1.92-4.07,.62,.58,.73,1.51,1.16,2.42,1.09,.34-.02,.67-.16,1.01-.11,.57,.11,.63,.54,.31,.77-.01-.11,.02-.26-.09-.33-.11-.13-.3-.04-.38,.07-.19,.19-.08,.55,.15,.65,.73,.31,1.47-1.15,.12-1.41,.56-.35,1.03-.86,1.29-1.48,1.06-2.56-2.26-4.49-3.5-2.7h0Z"/><path d="M87.75,28.34c.68,.06,1.23-.25,1.23-.97-.22,.08-.44,.17-.68,.15-1.61-.04-2.04-3.18,.45-3.05,1.47,.06,2.88,1.36,2.55,3.36,.32-.89,.21-1.94-.3-2.72-.18-.3-.47-.53-.6-.86-.19-.57,.14-.84,.49-.67-.09,.07-.23,.11-.23,.24-.05,.16,.11,.29,.25,.31,.25,.08,.5-.2,.46-.46-.1-.81-1.7-.75-1.24,.6-.57-.33-1.23-.5-1.88-.42-2.66,.32-2.6,4.28-.49,4.51h0Z"/><path d="M9.86,34.2c-.29-.64-.82-.98-1.42-.62,.17,.16,.36,.32,.46,.54,.77,1.47-1.63,3.43-2.76,1.12-.68-1.36-.31-3.27,1.52-3.98-.9,.16-1.72,.78-2.11,1.64-.16,.32-.2,.69-.42,.97-.38,.46-.76,.3-.8-.1,.1,.05,.2,.15,.32,.09,.16-.04,.19-.25,.13-.38-.06-.27-.42-.35-.62-.19-.62,.5,.22,1.9,1.12,.81,0,.68,.2,1.36,.59,1.91,1.6,2.24,4.86,.21,3.99-1.81h0Z"/><path d="M47.18,101.51c.39,.59,.4,1.23-.2,1.59-.05-.24-.08-.48-.21-.69-.84-1.43-3.66-.24-2.31,1.93,.79,1.29,2.57,1.92,4.07,.62-.58,.73-1.51,1.16-2.42,1.09-.34-.02-.67-.16-1.01-.11-.57,.11-.63,.54-.31,.77,.01-.11-.02-.26,.09-.33,.11-.13,.3-.04,.38,.07,.19,.19,.08,.55-.15,.65-.73,.31-1.47-1.15-.12-1.41-.56-.35-1.03-.86-1.29-1.48-1.06-2.56,2.26-4.49,3.5-2.7h0Z"/><path d="M91,34.2c.29-.64,.82-.98,1.42-.62-.17,.16-.36,.32-.46,.54-.77,1.47,1.63,3.43,2.76,1.12,.68-1.36,.31-3.27-1.52-3.98,.9,.16,1.72,.78,2.11,1.64,.16,.32,.2,.69,.42,.97,.38,.46,.76,.3,.8-.1-.1,.05-.2,.15-.32,.09-.16-.04-.19-.25-.13-.38,.06-.27,.42-.35,.62-.19,.62,.5-.22,1.9-1.12,.81,0,.68-.2,1.36-.59,1.91-1.6,2.24-4.86,.21-3.99-1.81h0Z"/><path d="M13.11,28.34c-.68,.06-1.23-.25-1.23-.97,.22,.08,.44,.17,.68,.15,1.61-.04,2.04-3.18-.45-3.05-1.47,.06-2.88,1.36-2.55,3.36-.32-.89-.21-1.94,.3-2.72,.18-.3,.47-.53,.6-.86,.19-.57-.14-.84-.49-.67,.09,.07,.23,.11,.23,.24,.05,.16-.11,.29-.25,.31-.25,.08-.5-.2-.46-.46,.1-.81,1.7-.75,1.24,.6,.57-.33,1.23-.5,1.88-.42,2.66,.32,2.6,4.28,.49,4.51h0Z"/><path d="M83.25,74.42c-.38,.79-.71,1.5-.81,1.82-1,2.57-3.33,4.71-5.44,5.45-1.1,.51-4.52,2.42-4.54,2.44,4.73-2.22,7.83-.75,7.92-2.85-.6,1.1-1.11,.55-2.4,.28,2.15-.51,4.01-2.5,4.46-4.65,.32,1.54,.71,1.79-.22,2.49,.35-.01,.68-.21,.86-.51,.47-.77,.31-1.98,.73-4.12,1.57-1.45,2.66-1.91,3.06-2.72,.16-.32,.16-.72,0-1.04-.12,1.19-.51,.96-1.96,1.44,1.57-1.49,2.29-4.16,1.64-6.35,.86,1.02,1.57,1.21,.96,2.3,1.7-1.12-1.08-3.18-1.59-8.56,0,.04,.11,4.08,.24,5.32,.44,2.28-.17,5.45-1.81,7.63-.21,.25-.64,.9-1.11,1.64h0Z"/><path d="M17.6,74.42c-.47-.74-.89-1.39-1.11-1.64-1.64-2.19-2.25-5.36-1.81-7.63,.13-1.24,.24-5.28,.24-5.32-.52,5.38-3.29,7.44-1.59,8.56-.61-1.09,.1-1.28,.96-2.3-.65,2.19,.07,4.87,1.64,6.35-1.44-.48-1.84-.25-1.96-1.44-.16,.32-.17,.72,0,1.04,.4,.81,1.49,1.27,3.06,2.72,.42,2.15,.26,3.35,.73,4.12,.19,.31,.52,.5,.86,.51-.93-.7-.54-.95-.22-2.49,.45,2.16,2.31,4.15,4.46,4.65-1.28,.27-1.79,.82-2.4-.28,.08,2.1,3.19,.62,7.92,2.85-.03-.02-3.45-1.94-4.54-2.44-2.11-.74-4.44-2.88-5.44-5.45-.1-.32-.43-1.03-.81-1.82h0Z"/><path d="M50.43,15.21c.85-.05,1.6-.11,1.92-.18,2.64-.38,5.58,.65,7.25,2.18,.97,.74,4.27,2.86,4.3,2.88-4.21-3.15-4.54-6.69-6.33-5.72,1.21,0,1.01,.73,1.43,2.02-1.5-1.69-4.08-2.37-6.1-1.7,1.12-1.06,1.13-1.53,2.18-1.04-.18-.31-.51-.51-.86-.52-.88-.04-1.8,.71-3.8,1.4-2-.69-2.92-1.45-3.8-1.4-.35,.01-.68,.22-.86,.52,1.05-.49,1.06-.02,2.18,1.04-2.02-.67-4.6,.01-6.1,1.7,.42-1.29,.22-2.02,1.43-2.02-1.79-.97-2.11,2.56-6.33,5.72,.03-.02,3.33-2.14,4.3-2.88,1.67-1.54,4.62-2.57,7.25-2.18,.32,.07,1.07,.13,1.92,.18h0Z"/><path d="M50.43,106.42c.74,0,1.45-.16,2.05-.52-.75-.56-2.07-1.48-1.59-4.09,.63-3.55,3.96-7.4,6.57-9.83,8.16-7.33,15.13-5.25,23.7-15.68,.57-.7,1.11-1.42,1.61-2.18,.38-.83,.71-1.68,1-2.54,4.39-12.94-.83-18.18,1.19-29.21,.71-3.57,2.24-8.5,4.88-10.84,1.94-1.74,3.36-1,4.2-.61,0-.72-.23-1.44-.6-2.11-.38-.67-.86-1.22-1.46-1.6-.09,.96-.19,2.6-2.6,3.48-3.27,1.21-8.14,.12-11.46-1.02-10.18-3.69-11.93-11.02-24.89-13.53-.87-.17-1.74-.29-2.62-.37-.88,.08-1.75,.2-2.62,.37-12.96,2.51-14.71,9.84-24.89,13.53-3.32,1.14-8.19,2.22-11.46,1.02-2.41-.88-2.51-2.53-2.6-3.48-.6,.37-1.08,.93-1.46,1.6-.37,.68-.59,1.39-.6,2.11,.84-.39,2.26-1.13,4.2,.61,2.64,2.35,4.17,7.28,4.88,10.84,2.02,11.03-3.2,16.27,1.19,29.21,.29,.87,.63,1.71,1,2.54,.5,.75,1.04,1.48,1.61,2.18,8.57,10.43,15.54,8.35,23.7,15.68,2.61,2.43,5.94,6.27,6.57,9.83,.48,2.61-.84,3.53-1.59,4.09,.61,.35,1.31,.51,2.05,.52h0Zm31.37-32.88c-2.02,3.02-5.09,6.08-7.75,7.83-5.71,3.9-11.56,3.96-18.88,11.25-1.76,1.89-3.66,4.24-4.74,6.76-1.08-2.52-2.98-4.88-4.74-6.76-7.32-7.29-13.17-7.35-18.88-11.25-2.65-1.75-5.73-4.8-7.75-7.83-1.5-3.33-2.51-7.63-2.64-10.9-.38-7.1,2.49-12.41,.09-22.65-.69-2.53-1.7-5.42-3.26-7.66,2.64,.29,5.55-.25,8-.89,9.72-2.96,12.7-8.2,18.79-11.4,2.78-1.52,6.86-2.76,10.38-3.07,3.52,.31,7.6,1.56,10.38,3.07,6.1,3.2,9.07,8.45,18.79,11.4,2.45,.64,5.36,1.18,8,.89-1.56,2.23-2.57,5.13-3.26,7.66-2.4,10.25,.47,15.55,.09,22.65-.13,3.27-1.13,7.57-2.64,10.9h0Z"/><path d="M52.55,101.67c.2,.27,.61,.13,.74-.14,.12-.2,.05-.51-.18-.59-.38-.15-.82,.38-.57,.73h0Z"/><path d="M88.44,29.28c.13-.32-.2-.62-.49-.6-.23,0-.44,.21-.4,.45,.06,.42,.72,.55,.89,.14h0Z"/><path d="M10.3,33.1c-.33,.04-.41,.49-.25,.74,.11,.21,.4,.3,.58,.14,.32-.27,.09-.93-.33-.88Z"/><path d="M48.31,101.67c-.2,.27-.61,.13-.74-.14-.12-.2-.05-.51,.18-.59,.38-.15,.82,.38,.57,.73h0Z"/><path d="M90.56,33.1c.33,.04,.41,.49,.25,.74-.11,.21-.4,.3-.58,.14-.32-.27-.09-.93,.33-.88Z"/><path d="M12.42,29.28c-.13-.32,.2-.62,.49-.6,.23,0,.44,.21,.4,.45-.06,.42-.72,.55-.89,.14Z"/><path d="M53.28,100.46c.08-.17,.01-.41-.17-.47-.33-.13-.7,.32-.49,.63,.18,.25,.58,.12,.66-.16Z"/><path d="M87.07,29.22c-.18,.01-.35,.19-.31,.39,.05,.36,.61,.47,.77,.13,.12-.29-.19-.58-.46-.52h0Z"/><path d="M10.93,34.37c.1,.16,.33,.21,.47,.08,.27-.23,.09-.79-.27-.75-.3,.04-.38,.46-.2,.67h0Z"/><path d="M47.58,100.46c-.08-.17-.01-.41,.17-.47,.33-.13,.7,.32,.49,.63-.18,.25-.58,.12-.66-.16Z"/><path d="M89.92,34.37c-.1,.16-.33,.21-.47,.08-.27-.23-.09-.79,.27-.75,.3,.04,.38,.46,.2,.67h0Z"/><path d="M13.78,29.22c.18,.01,.35,.19,.31,.39-.05,.36-.61,.47-.77,.13-.12-.29,.19-.58,.46-.52Z"/><path d="M53.5,99.57c.08-.15,.04-.38-.12-.44-.3-.15-.67,.27-.48,.55,.15,.24,.5,.12,.6-.11Z"/><path d="M86.22,29.47c-.16,0-.33,.15-.31,.33,.02,.34,.56,.47,.7,.16,.13-.25-.15-.51-.39-.49h0Z"/><path d="M11.57,35.02c.08,.14,.29,.23,.43,.11,.28-.19,.11-.73-.22-.71-.27,.01-.35,.4-.21,.6Z"/><path d="M47.35,99.57c-.08-.15-.04-.38,.12-.44,.3-.15,.67,.27,.48,.55-.15,.24-.5,.12-.6-.11Z"/><path d="M89.29,35.02c-.08,.14-.29,.23-.43,.11-.28-.19-.11-.73,.22-.71,.27,.01,.35,.4,.21,.6Z"/><path d="M14.64,29.47c.16,0,.33,.15,.31,.33-.02,.34-.56,.47-.7,.16-.13-.25,.15-.51,.39-.49h0Z"/><path d="M53.29,98.85c.19,.21,.52,.02,.57-.22,.05-.17-.08-.35-.24-.36-.27-.03-.52,.35-.33,.58Z"/><path d="M85.73,30.01c.08-.27-.24-.48-.47-.4-.16,.04-.25,.24-.18,.4,.11,.26,.55,.3,.65,0h0Z"/><path d="M12.26,35.18c-.27,.07-.28,.46-.1,.63,.11,.13,.33,.11,.42-.04,.16-.23-.03-.64-.32-.59Z"/><path d="M47.56,98.85c-.19,.21-.52,.02-.57-.22-.05-.17,.08-.35,.24-.36,.27-.03,.52,.35,.33,.58Z"/><path d="M88.59,35.18c.27,.07,.28,.46,.1,.63-.11,.13-.33,.11-.42-.04-.16-.23,.03-.64,.32-.59Z"/><path d="M15.13,30.01c-.08-.27,.24-.48,.47-.4,.16,.04,.25,.24,.18,.4-.11,.26-.55,.3-.65,0Z"/><path d="M54.01,97.48c-.24,0-.41,.35-.24,.54,.16,.18,.45,.04,.51-.17,.07-.18-.09-.4-.27-.36h0Z"/><path d="M84.23,30.05c.13,.21,.5,.2,.56-.06,.07-.23-.19-.43-.4-.37-.18,.03-.29,.28-.17,.43h0Z"/><path d="M13.04,36.52c.11-.22-.08-.55-.33-.48-.23,.05-.26,.39-.11,.55,.12,.15,.37,.12,.44-.07Z"/><path d="M46.85,97.48c.24,0,.41,.35,.24,.54-.16,.18-.45,.04-.51-.17-.07-.18,.09-.4,.27-.36h0Z"/><path d="M87.81,36.52c-.11-.22,.08-.55,.33-.48,.23,.05,.26,.39,.11,.55-.11,.15-.37,.12-.44-.07h0Z"/><path d="M16.63,30.05c-.13,.21-.5,.2-.56-.06-.07-.23,.19-.43,.4-.37,.18,.03,.29,.28,.17,.43h0Z"/><path d="M54.27,97.27c.14,.15,.38,.06,.46-.11,.09-.14,.01-.38-.16-.39-.24-.04-.47,.29-.3,.5Z"/><path d="M83.92,29.93c.06-.2-.14-.37-.32-.36-.16,0-.32,.18-.24,.34,.09,.24,.48,.28,.56,.02h0Z"/><path d="M13.1,36.85c-.2,.04-.24,.31-.14,.47,.08,.15,.31,.2,.41,.05,.15-.2,0-.57-.27-.52Z"/><path d="M46.59,97.27c-.14,.15-.38,.06-.46-.11-.09-.14-.01-.38,.16-.39,.24-.04,.47,.29,.3,.5Z"/><path d="M87.76,36.85c.2,.04,.24,.31,.14,.47-.08,.15-.31,.2-.41,.05-.15-.2,0-.57,.27-.52Z"/><path d="M16.94,29.93c-.06-.2,.14-.37,.32-.36,.16,0,.32,.18,.24,.34-.09,.24-.48,.28-.56,.02h0Z"/><path d="M54.8,96.55c.13,.2,.42,.07,.46-.13,.04-.12-.03-.27-.15-.28-.21-.06-.43,.22-.31,.42Z"/><path d="M83.06,29.81c.1-.21-.15-.42-.34-.35-.12,.02-.21,.16-.16,.28,.06,.22,.4,.28,.51,.07Z"/><path d="M13.43,37.69c-.23,.01-.27,.35-.12,.49,.08,.09,.23,.11,.31,0,.15-.16,.03-.5-.19-.49h0Z"/><path d="M46.06,96.55c-.13,.2-.42,.07-.46-.13-.04-.12,.03-.27,.15-.28,.21-.06,.43,.22,.31,.42Z"/><path d="M87.43,37.69c.23,.01,.27,.35,.12,.49-.08,.09-.23,.11-.31,0-.15-.16-.03-.5,.19-.49Z"/><path d="M17.8,29.81c-.1-.21,.15-.42,.34-.35,.12,.02,.21,.16,.16,.28-.06,.22-.4,.28-.51,.07Z"/><path d="M55.46,95.61c-.13,.05-.21,.25-.11,.36,.12,.11,.34,0,.35-.16,.04-.14-.12-.28-.25-.2Z"/><path d="M81.95,29.69c.11,.1,.31,.06,.35-.08,.03-.17-.16-.31-.31-.24-.13,.04-.17,.25-.05,.33h0Z"/><path d="M13.88,38.75c.03-.14-.1-.31-.25-.28-.16,.05-.17,.3-.05,.4,.1,.1,.29,.03,.29-.12Z"/><path d="M45.4,95.61c.13,.05,.21,.25,.11,.36-.12,.11-.34,0-.35-.16-.04-.14,.12-.28,.25-.2Z"/><path d="M86.98,38.75c-.03-.14,.1-.31,.25-.28,.16,.05,.17,.3,.05,.4-.1,.1-.29,.03-.29-.12h0Z"/><path d="M18.91,29.69c-.11,.1-.31,.06-.35-.08-.03-.17,.16-.31,.31-.24,.13,.04,.17,.25,.05,.33h0Z"/><path d="M56.25,94.8c-.09,.1,.04,.28,.15,.2,.1-.05,.1-.17,.07-.27-.08,0-.18-.01-.22,.07Z"/><path d="M80.88,29.38c.13,.03,.21-.18,.09-.24-.1-.07-.19,0-.26,.07,.04,.06,.08,.16,.17,.17Z"/><path d="M14.16,39.88c-.03-.13-.25-.1-.24,.04,0,.12,.09,.18,.19,.2,.03-.07,.1-.15,.05-.24Z"/><path d="M44.61,94.8c.09,.1-.04,.28-.15,.2-.1-.05-.1-.17-.07-.27,.08,0,.18-.01,.22,.07Z"/><path d="M86.7,39.88c.03-.13,.25-.1,.24,.04,0,.12-.09,.18-.19,.2-.03-.07-.1-.15-.05-.24Z"/><path d="M19.98,29.38c-.13,.03-.21-.18-.09-.24,.1-.07,.19,0,.26,.07-.04,.06-.08,.16-.17,.17h0Z"/><path d="M55.93,95.1c-.12,.03-.2,.21-.1,.31,.1,.12,.29,.02,.31-.12,.04-.12-.1-.23-.21-.19Z"/><path d="M81.28,29.52c.09,.09,.28,.07,.31-.07,.05-.15-.13-.27-.26-.21-.12,.03-.14,.21-.05,.28Z"/><path d="M14.07,39.44c.03-.12-.08-.29-.21-.24-.15,.03-.16,.25-.05,.34,.08,.1,.24,.03,.26-.09Z"/><path d="M44.93,95.1c.12,.03,.2,.21,.1,.31-.1,.12-.29,.02-.31-.12-.04-.12,.1-.23,.21-.19Z"/><path d="M86.79,39.44c-.03-.12,.08-.29,.21-.24,.15,.03,.16,.25,.05,.34-.08,.1-.24,.03-.26-.09Z"/><path d="M19.57,29.52c-.09,.09-.28,.07-.31-.07-.05-.15,.13-.27,.26-.21,.12,.03,.14,.21,.05,.28h0Z"/></g><g><path class="cls-4" d="M21.15,60.34l.39-1.05,.2-.92-.13-2.3-.46-.07,.72-.59c.12-1.21,.63-2.87,.2-3.41l.66-.33c-.56,.04-.42-1-.46-1.78-.02-.05,.21-.33,1.12-.26,.27,.07,.52,.08,.85,.33,1-1.02,1.97-2.06,3.15-3.02,.49-.59,1.1-1.1,1.84-1.51,.9-.71,1.41-1.38,2.81-2.14,1.53-1.62,1.97-1.35,2.9-1.93,1.16-.69,2.06-1.62,4.4-1.25,3.77,.09,7.68-.25,11.63-.78,1.97-.23,9.11-1.6,11.29,0,1.31,.42,2.63,.17,5.43,2.23,.79,.68,1.95,.99,2.95,1.44h-.46l.33,.26-.33,.26c.81,.68,1.57,.98,2.43,2.1,.22,.63,1.58,1.89,.57,1.85-.06,.43,.79,1.29,1.27,2.02-.15,.84,.98,1.8,2.03,2.76,.96,1.23,2.6,2.39,2.89,3.68,.46,.5,.97,.87,1.31,1.77,.39,.25,.99,.48,.98,.79-.37,.63-.96,.63-1.64,.39-.32,.09-.65-.12-.98-.26-.42,.24-.9,.05-1.38-.13-.57-.39-1.14-.5-1.71-.46-.38-.11-.78-.29-1.25-.85-1-1.3-1.79-2.69-2.99-3.44-.15,.75-1.62,4-3.67,4.52-1.01,.12-1.92,.43-2.93,1.16-.11,.15,.03,.31-1.44,.46-.41,.12-.78,.53-1.25,.26-.21,.19-.09,.08-.83,.52,.07-.1-.27,.11-.72-.33-.35,.33-.72,.43-1.07,.34-.24-.18-.12-.35,0-.53-.26,.38-.6,.3-.92,.33,.23-.65,.11-1.27,1.44-2.03,.17-.51,.81-.77,2.03-.72-1.75-.91-2.75-1.11-2.95-1.9-1.36,.73-3.76,.18-5.65,.26-2.59-.24-4.74-.72-4.64-1.45-.17,1.25,.29,2.69-.48,3.88,.01,.58,.25,1.39-.07,1.64-.31,.36-.75,.65-.59,1.25-.63,.41-1.2,.62-1.71,.66-.35,.43-.84,.38-1.31,.39-.32,.28-.25,.55-.98,.85-.34-.01-.04-.49,.03-.79,2.85-2.36,.07,.19-.75-.06-.63,.08-1.01,.62-1.44,.79-.06-.21,.08-.45,.33-.72-.11-.07-.47,.18-.85,.46-.08-.34,.19-.5,.33-.72-.24,.12-.48,.24-.59,0,.06-.16,.48-.98,1.51-1.31-.25-.51,.86-.34,1.51-.39,.28-.4,.57-.27,.85-.2,.11-1.23,0-1.36-.07-1.71-.22-.2-.44-.75-.66-1.44-.49-.78-.94-1.34-1.31-1.44-.29,.18-.42,.05-.59,0-.24-.13-.48-.18-.72-.13-.63-.68-1.27-.69-1.9-.98-.84-.22-1.27,1.36-1.9,2.03-.64,.13-.91,.93-1.84,1.44-.09,.66-.53,.94-1.18,.98,.15,.53-.05,.83-.39,1.05-.09,.47-1.12,.32-1.71,.46-.55-.2-1.23-.17-2.03,.07-.57-.4-1.35,.08-2.03,.13l-.07-.33h-.33c-.66,.4-.44-.01-.33-.33-.15,.26-.6,.53-.98,.79,.24-.57,.48-1.14,1.38-1.71,.37-.63,.98-.56,1.58-.53,.26-.17,.67,0,1.05,.13,.62-.33,1.1,.06,1.77-1.14,.39-.42,.55-1.17,.79-2.41-.53-.33-6.75,3.92-5.81,2.88-.37,.65-.24,1.13-1.8,1.06,1.55-.28-.46,2.19-2.06,2.37l.02-.6c-.16-.49-.34-.62-.53-.53-.7,.43-1.4,.16-2.1-.13h0Z"/><path class="cls-21" d="M33.49,55.28c-.17,.84-.26,1.73-.75,2.4-.39,.76-1.13,1.04-1.85,1.13-.8-.3-.88-.17-1.09-.12-.51-.03-1.04-.24-1.5,.52-.49,.26-.97,.76-1.42,1.66-.07,.19,.45-.24,.95-.65-.24,.57,.08,.4,.38,.28,0-.08,.13-.09,.31-.05,.01,.09,0,.17,.1,.35,.83-.22,1.68-.45,2.07-.15,.65-.21,1.32-.31,2.03-.06,.63-.09,1.41,0,1.73-.46,.31-.24,.48-.57,.36-1.09,.74,.03,1.04-.4,1.18-.97,.62-.29,1.1-1.06,1.8-1.44,.44-.33,.76-1.56,1.58-2.08-2.03,.23-4.29-.83-5.89,.73h0Z"/><path class="cls-5" d="M33.45,55.21c2.69-1.72,3.47-.28,6.08-.65"/><path class="cls-16" d="M21.7,59.19c.78-.46,1.53-.18,1.92,.54,.64,0,1-.26,1.06-.26,.32,.02,.53,.22,.37,1.23-.04,.11-.25,.37-.46,.61,.54-.35,.91-.21,1.85-1.64,.11-.69-.39-.35-.62-.46-.2-.32-.23-.67,.05-1.08,.69-.54,1.35-1.15,1.67-2.41,.29-.33,.56-.53,.89-1.18,.47-.47,.89-.9,1.02-1.2,.54,.22,1.09,.49,1.59-.79,.23,.1,.58-.07,1.2-.75,1.12-.35,2.26-.6,3.46-.56-.92-.41-2.57-1.38-3.58-.64-.15-.89-1.22-.27-1.87-.34,.84-1.23-.49-.22-.85-.21,.12-.41,.54-1.13-.64-.57l-1.62-2.15c-1.02,.61-1.88,1.75-2.82,2.64-.5-.32-.64-.22-.9-.26-.48-.02-1.04-.15-1.02,.54-.07,.56-.08,1.1,.33,1.49l-.61,.25c.46,.53,.11,2.05-.15,3.46-.3,.13-.39,.37-.69,.54,.15,0,.34-.09,.41,.07,.11,.63,.17,1.2,.13,2.33-.12,.42-.21,.79-.11,.82h0Z"/><path class="cls-7" d="M28.05,51.23c.9-.73,2.57-.05,1.79,2.02,.41,0,.92-1.04,.84-1.6-.42-.86-.12-.95-1.42-1.3-.87,.15-1.18,.68-1.21,.88h0Z"/><path class="cls-3" d="M25.84,59.19c-.14-.19-.25-.41-.02-1.02,.69-.49,1.33-1.13,1.72-2.48,.33-.31,.65-.64,.86-1.14,.35-.35,.78-.72,1.07-1.24,.9,.29,1.34-.03,1.55-.74,.4-.16,.8-.26,1.14-.72,1.14-.55,2.36-.69,3.62-.56,3.72,.56,2.87,2.76,2.62,2.55-1.84-.43-3.08,.83-4.57,.02-.79,0-1.44,1.71-3.9,3.13-1.28,.92-2.45,1.5-2.26,1.17-.57,1.53-1.46,.85-1.83,1.02h0Z"/><path class="cls-2" d="M21.5,59.49c.19-.32,.39-.44,.58-.51,.05-.27,.16-.57,.39-.91,.29-.67,.47-1.45,.51-2.37-.01-1,.24-1.98,.91-2.92,.26-.92,.43-1.78,1.65-3.18,.36-.63,.56-.59,.81-.77,.06-.4,.38-.7,.74-.97,.48-.33,.68-.62,.95-.93,2.17-1.83,2.15-.86,1.37,1.07l-.88,1.69c-1.05,.93-1.93,1.97-2.18,3.39l-.65,1.93c-.09,.73-.39,1.37-.97,1.86-.11,.62-.31,1.23-1,1.83-.02,.33-.03,.65-.16,1.04,.59,.12,1.88-1.09,1.42,1.02-.26,.66-.74,.57-1.11,.84v-.67c-.21-.48-.38-.56-.53-.49-.58,.43-1.34,.27-2.16-.09l.32-.86Z"/><path class="cls-14" d="M25.05,57.26c0-.19,.14-.37,.26-.56,.17-.19,.24-.61,.56-.6,.69-.03,.39,.51,.53,.7-.17,.27-.24,.58-.77,.67l-.39,.02c-.27,1.33-.15,.34-.19-.23h0Z"/><path class="cls-2" d="M22.73,51.76c-.02-.09,.44-.74,.44-.74-.55,.05-.33-.47-.44-.74,.09-.22,.22-.23,.37-.14,.08,.13,.09,.3,.05,.49l.32,.09c-.03-.17,.05-.34,.14-.51,.19-.04,.3-.3,.19-.46-.52-.3-1.08,.04-1.43,.07,0,.6-.25,1.57,.36,1.95h0Z"/><path class="cls-6" d="M21.18,60.37c-.24,.43-.47,1.05,.07,1.3,2.37,.97,1.79-.21,2.04-.63-.13,.76-.02,1.06,.46,.58,.23-1.08-.08-1.01-.26-1.16-1.34,.38-1.74,.11-2.32-.09h0Z"/><path class="cls-11" d="M27.91,60.1c.53-.69,1.13-.77,1.72-.93"/><path class="cls-5" d="M28.56,60.47c.42-.51,1.12-.73,1.83-.88"/><path class="cls-19" d="M30.93,56.25c.73-.69,1.56-1.47,2.2-2.07,.14-.11,.33-.22,.56-.33,1.28,.75,3.48-.51,4.69,.03,.73-.15,1.52-.57,2.17-.3,1.68,.21,1.93,1.27,4.59,2.26,2.03,.49,2.89-.48,3.91-1.25,.18,2.53-.06,3.36-.39,3.81,.15,.88,.22,1.72-.49,2.17-.32,.48-.14,.58-.13,.82-.78,.45-1.58,.69-1.75,.61-.3,.35-.68,.43-1.3,.41-.22,.26-.43,.58-.65,.7-.22,.1-.51,.42-.47,0-.07-.15,.06-.42,.13-.66,.4-.23,.74-.57,1.08-.89,.19-.26-1.04,1.02-1.94,.92-.24-.07-.81,.46-1.25,.75-.09-.15-.34-.6,1.64-1.74-.42-.02-1.16,.69-1.81,1.18-.68,.54-.48,.23-.43,.07,.18-.85,1.16-1.4,1.81-1.61-.54,.35-1.03,.2-1.64,1.25-.26,.02-.33-.04-.43-.17,.81-1.19,1.07-1.07,1.52-1.27-.03-.6,.95-.3,1.44-.43,.22-.17,.51-.42,.92-.18,.1-.64,.01-1.13,0-1.69-.35-.31-.52-.9-.72-1.44-.26-.5-.8-1.31-1.33-1.5-.36,.31-.89-.28-1.33-.07-.06-.36-1.09-.83-2.2-1.05-2.57,.17-3.93-.93-6.04,.69-.4,0-2.39,1.19-2.36,.98h0Z"/><path class="cls-5" d="M59.35,55.78c-1.09-1.45-.52-2.61-.58-3.13,.21-2.2,.77-2.5,1.11-3.06,1.06-1.11,2.21-2,3.16-2.07"/><path class="cls-5" d="M45.17,45.78c.22-.47,3.01,2.01,2.65,2.74,1.78,1.73,1.03,2.45,1.3,3.48,.22,.22,.9,1.26,.02,2.58"/><path class="cls-9" d="M58.95,60.49c.23-.56-.23-.8,1.39-2.02,.88-.97,1.38-.54,2.04-.71,.47-.32,.88-.7,2.04-.21,.8,0,1.61-.38,2.41-.6,.38,.03,3.1-1.22,3.27-1.88,.4-.48,.79-.89,1.22-1.25,.6-.17,.31,.07,.31,.21-.37,.65-.9,3.04-3.64,4.32-2.32,.38-2.11,.77-2.94,1.15,.16,.27-.81,.34-1.45,.46-.39,.13-.76,.43-1.17,.26-.62,.51-1.16,.62-1.59,.17-.9,.64-1.3,.36-1.07-.16-.28,.18-.56,.41-.84,.27h0Z"/><path class="cls-5" d="M59.9,60.12c.48-.75,1.13-1.13,1.76-1.54"/><path class="cls-5" d="M60.91,60.3c-.01-.24,1.67-1.59,1.71-1.49"/><path class="cls-5" d="M62.49,60.13c.26-.57,1.03-1.12,1.08-1.04"/><path class="cls-12" d="M72.58,53.32c-.21,.12,2.34,3.15,2.11,3.68,.61,.83,1.03,1.03,1.39,1,1.07,.1,1.4,.31,1.67,.53,.53,.18,1.06,.35,1.38,.07,.57,.36,.7,.25,.99,.3,.52-.08,.76,.51,1.64-.39,0-.35-.66-.55-1.02-.82-.25-.51-.57-1.06-1.31-1.75,.04-.72-1.62-2.28-2.84-3.62-.37-.38-.77-.74-1.2-1.09-.17,.01-.76-.74-.21,.62-.37-.18-.64-.81-1.11-.49-.42,.19-.09,.44-.09,.66-.43-.15-.53-.02-.06,.58,0,.12-.81-.44-1.13-.57-.11,.25,.19,.47,.45,.7,.14,.18,.1,.34-.01,.49,.16,.44,.09,.51,.03,.59l-.68-.48Z"/><path class="cls-10" d="M21.86,56.14c-.08,.37-.15,.75,.28,.98,.21-.35-.07-.67-.28-.98Z"/><path class="cls-5" d="M41.74,62.19c.27-.79,.96-.72,1.47-1.05"/><path class="cls-5" d="M42.11,62.49c.65-.73,1.74-1.11,1.6-1.02"/><path class="cls-13" d="M49.49,53.64c.35-.58,1.19,.15,1.3,.79,.03,.24-.14,.4-.42,.51,1.42,1.74,7.57-.03,8.4-.05,.18,.32,.34,.62,.6,1.02-.77,.28-1.99,.43-4.5,.19-1.36-.1-2.72-.08-4.08-.46-.68-.15-1.3-.39-1.72-.93l.42-1.07Z"/><path class="cls-1" d="M41.92,62.83c-.15-.04,.97-1.08,1.64-1.18,.2-.05,.2,.03,.05,.33-.43-.1-1.12,.62-1.68,.84h0Z"/><path class="cls-28" d="M41.34,62.83c-.22-.08,1.1-1.4,1.81-1.66,.2-.05,.09,.14,.05,.24-.28,0-1.26,.99-1.86,1.42h0Z"/><path class="cls-29" d="M41.16,62c-.15-.04,.97-1.08,1.64-1.18,.2-.05,.2,.03,.05,.33-.43-.1-1.12,.62-1.68,.84h0Z"/><path class="cls-25" d="M43.9,63.49c-.17-.01,.28-1.25,.89-1.51,.16-.12,.28-.09,.26,.25-.44,.08-.73,.83-1.15,1.26h0Z"/><path class="cls-17" d="M28.46,60.94c-.22-.05,.79-1.1,1.64-1.18,.18-.04,.51-.15,.16,.26-.43-.1-1.24,.69-1.8,.92h0Z"/><path class="cls-26" d="M27.84,60.61c-.22-.05,.79-1.1,1.64-1.18,.18-.04,.59-.08,.21,.19-.45-.18-1.31,.67-1.85,.99h0Z"/><path class="cls-30" d="M26.91,60.86c-.22-.04,.85-1.61,1.65-1.83,.09-.02,.47-.17,.27,.2-.32-.05-1.48,.89-1.91,1.63h0Z"/><path class="cls-27" d="M61.4,60.83c-.22,.02,.27-.97,1.12-1.31,.02-.04,.4-.11,.12,.23-.37,.13-.62,.78-1.24,1.08h0Z"/><path class="cls-22" d="M60.05,60.82c-.23-.09,.63-1.48,1.43-1.88,.1-.05,.2-.09,.3-.1,.13-.13,.58-.38,.57,0-.19-.2-1.83,1.36-2.29,1.99h0Z"/><path class="cls-20" d="M59.16,60.6c-.22,.01,1.03-1.92,1.82-2.22,.16-.09,.56-.2,.34,.29-.47-.09-1.7,1.5-2.17,1.93h0Z"/></g></g></g></svg>